<?xml version="1.0" encoding="utf-8"?>
<!-- Generator: Adobe Illustrator 26.0.3, SVG Export Plug-In . SVG Version: 6.00 Build 0)  -->
<svg version="1.1" id="Layer_1" xmlns="http://www.w3.org/2000/svg" xmlns:xlink="http://www.w3.org/1999/xlink" x="0px" y="0px"
	 viewBox="0 0 43.81 7.88" style="enable-background:new 0 0 43.81 7.88;" xml:space="preserve">
<style type="text/css">
	.st0{fill:#E8B158;stroke:#000000;stroke-width:0.25;stroke-miterlimit:10;}
	.st1{fill:#EAB871;stroke:#EAB871;stroke-width:0.5;stroke-miterlimit:10;}
</style>
<path class="st0" d="M40.28,7.63H3.53c-1.81,0-3.28-1.47-3.28-3.28V3.53c0-1.81,1.47-3.28,3.28-3.28h36.74
	c1.81,0,3.28,1.47,3.28,3.28v0.81C43.56,6.16,42.09,7.63,40.28,7.63z"/>
<g>
	<g>
		<path d="M4.39,5.54V2.66h2.29v2.88H4.39z M4.84,5.17h1.39V3.02H4.84V5.17z"/>
		<path d="M7.79,4.26V3.02H7.26V2.66h0.98v1.6H7.79z"/>
		<path d="M9.3,4.26V3.02H8.77V2.66h0.98v1.6H9.3z"/>
		<path d="M11.02,2.66v2.37c0.16,0.06,0.32,0.12,0.49,0.15s0.34,0.06,0.5,0.06c0.23,0,0.44-0.03,0.62-0.1
			c0.18-0.07,0.33-0.17,0.44-0.3s0.16-0.31,0.16-0.52V2.66h0.44v1.7c0,0.21-0.04,0.39-0.13,0.55s-0.21,0.28-0.36,0.39
			s-0.33,0.18-0.52,0.23c-0.2,0.05-0.41,0.08-0.63,0.08c-0.23,0-0.48-0.03-0.73-0.08c-0.25-0.06-0.49-0.14-0.72-0.25V2.66H11.02z
			 M11.71,4.74c0.06-0.07,0.11-0.15,0.14-0.27s0.05-0.24,0.05-0.39V2.66h0.44v1.35c0,0.16-0.02,0.31-0.06,0.43
			c-0.04,0.12-0.1,0.23-0.19,0.31L11.71,4.74z"/>
		<path d="M14.26,2.66h2.3v0.36h-0.48v2.51h-0.45V3.02h-1.37V2.66z"/>
		<path d="M17.29,5.54V3.02h-0.33V2.66h0.79v2.88H17.29z"/>
		<path d="M18.63,5.54l0-2.88h1.08c0.38,0,0.67,0.09,0.85,0.27s0.28,0.46,0.28,0.83v1.78H20.4v-1.8c0-0.25-0.05-0.43-0.16-0.54
			s-0.28-0.17-0.52-0.17h-0.63l0,2.51H18.63z"/>
		<path d="M22.61,2.66h2.3v0.36h-0.48v2.51h-0.45V3.02h-1.37V2.66z"/>
		<path d="M26.24,5.6c-0.15,0-0.31-0.02-0.48-0.05c-0.17-0.03-0.35-0.08-0.54-0.16l0.11-0.34c0.16,0.06,0.32,0.11,0.46,0.14
			s0.28,0.05,0.4,0.05c0.27,0,0.48-0.07,0.64-0.22c0.16-0.14,0.24-0.35,0.24-0.63V2.66h0.45v1.72c0,0.26-0.05,0.49-0.16,0.67
			s-0.26,0.32-0.45,0.41C26.72,5.55,26.49,5.6,26.24,5.6z M25.38,2.66h0.46l0.47,2.12c0.03,0.12,0.06,0.22,0.09,0.31
			s0.08,0.16,0.13,0.23l-0.36-0.01c-0.07-0.07-0.13-0.15-0.19-0.24c-0.06-0.09-0.1-0.2-0.12-0.32L25.38,2.66z"/>
		<path d="M30.08,2.66v2.37c0.16,0.06,0.32,0.12,0.49,0.15s0.34,0.06,0.5,0.06c0.23,0,0.44-0.03,0.62-0.1
			c0.18-0.07,0.33-0.17,0.44-0.3s0.16-0.31,0.16-0.52V2.66h0.44v1.7c0,0.21-0.04,0.39-0.13,0.55S32.4,5.19,32.25,5.3
			s-0.33,0.18-0.52,0.23c-0.2,0.05-0.41,0.08-0.63,0.08c-0.23,0-0.48-0.03-0.73-0.08c-0.25-0.06-0.49-0.14-0.72-0.25V2.66H30.08z
			 M30.78,4.74c0.06-0.07,0.11-0.15,0.14-0.27s0.05-0.24,0.05-0.39V2.66h0.44v1.35c0,0.16-0.02,0.31-0.06,0.43
			c-0.04,0.12-0.1,0.23-0.19,0.31L30.78,4.74z"/>
		<path d="M33.32,2.66h2.3v0.36h-0.48v2.51h-0.45V3.02h-1.37V2.66z"/>
		<path d="M36.36,5.54V3.02h-0.33V2.66h0.79v2.88H36.36z"/>
		<path d="M37.69,5.54l0-2.88h1.08c0.38,0,0.67,0.09,0.85,0.27s0.28,0.46,0.28,0.83v1.78h-0.45v-1.8c0-0.25-0.05-0.43-0.16-0.54
			s-0.28-0.17-0.52-0.17h-0.63l0,2.51H37.69z"/>
	</g>
</g>
<path class="st1" d="M1.86,2.41c0.21-0.23,0.63-0.64,1.28-0.9c0.74-0.3,1.39-0.28,1.71-0.24"/>
</svg>
