<?xml version="1.0" encoding="utf-8"?>
<!-- Generator: Adobe Illustrator 26.0.3, SVG Export Plug-In . SVG Version: 6.00 Build 0)  -->
<svg version="1.1" id="Layer_1" xmlns="http://www.w3.org/2000/svg" xmlns:xlink="http://www.w3.org/1999/xlink" x="0px" y="0px"
	 viewBox="0 0 113.48 51.78" style="enable-background:new 0 0 113.48 51.78;" xml:space="preserve">
<style type="text/css">
	.st0{fill:#628459;stroke:#000000;stroke-miterlimit:10;}
	.st1{fill:none;stroke:#7DA372;stroke-width:2;stroke-miterlimit:10;}
</style>
<path class="st0" d="M87.89,51.09H26.24c-13.84,0-25.07-11.22-25.07-25.07v0c0-13.84,11.22-25.07,25.07-25.07h61.65
	c13.84,0,25.07,11.22,25.07,25.07v0C112.96,39.86,101.73,51.09,87.89,51.09z"/>
<g>
	<g>
		<path d="M37.98,31.24v-7.63c0-0.59-0.17-1.06-0.52-1.41c-0.35-0.34-0.83-0.52-1.43-0.52h-3.67v-1.38h3.73
			c1.13,0,2.02,0.3,2.66,0.9c0.64,0.6,0.96,1.45,0.96,2.53v7.5H37.98z"/>
		<path d="M43.31,31.24v-9.55h-1.27v-1.38h3v10.93H43.31z"/>
		<path d="M52.91,31.24v-7.63c0-0.59-0.17-1.06-0.52-1.41c-0.35-0.34-0.83-0.52-1.43-0.52h-3.67v-1.38H51c1.13,0,2.02,0.3,2.66,0.9
			c0.64,0.6,0.96,1.45,0.96,2.53v7.5H52.91z"/>
		<path d="M57.72,31.24l0.01-10.93h4.11c1.45,0,2.53,0.34,3.24,1.03c0.71,0.69,1.07,1.74,1.08,3.15v6.74h-1.72v-6.85
			c0-0.95-0.21-1.63-0.61-2.06s-1.06-0.64-1.97-0.64h-2.41l-0.01,9.55H57.72z"/>
		<path d="M70.92,20.31v8.99c0.59,0.25,1.21,0.44,1.86,0.59c0.66,0.15,1.28,0.22,1.88,0.22c0.87,0,1.66-0.12,2.36-0.38
			c0.7-0.25,1.25-0.63,1.67-1.15c0.41-0.52,0.62-1.17,0.62-1.96v-6.31h1.67v6.47c0,0.8-0.16,1.49-0.49,2.08
			c-0.33,0.59-0.78,1.08-1.35,1.48c-0.58,0.39-1.24,0.69-1.99,0.88s-1.55,0.29-2.39,0.29c-0.89,0-1.81-0.11-2.76-0.32
			c-0.95-0.21-1.87-0.53-2.74-0.94v-9.93H70.92z M73.55,28.22c0.24-0.25,0.41-0.58,0.52-1.01c0.11-0.42,0.17-0.91,0.17-1.47v-5.44
			h1.68v5.13c0,0.62-0.08,1.17-0.23,1.64c-0.15,0.47-0.39,0.87-0.72,1.2L73.55,28.22z"/>
	</g>
</g>
<path class="st1" d="M8.05,18.23c0.95-1.96,2.89-5.33,6.55-8.32c4.36-3.55,8.84-4.68,11.05-5.09"/>
</svg>
