<?xml version="1.0" encoding="utf-8"?>
<!-- Generator: Adobe Illustrator 26.0.3, SVG Export Plug-In . SVG Version: 6.00 Build 0)  -->
<svg version="1.1" id="Layer_1" xmlns="http://www.w3.org/2000/svg" xmlns:xlink="http://www.w3.org/1999/xlink" x="0px" y="0px"
	 viewBox="0 0 43.81 7.88" style="enable-background:new 0 0 43.81 7.88;" xml:space="preserve">
<style type="text/css">
	.st0{fill:#E8B158;stroke:#000000;stroke-width:0.25;stroke-miterlimit:10;}
	.st1{fill:#EAB871;stroke:#EAB871;stroke-width:0.5;stroke-miterlimit:10;}
</style>
<path class="st0" d="M40.28,7.63H3.53c-1.81,0-3.28-1.47-3.28-3.28V3.53c0-1.81,1.47-3.28,3.28-3.28h36.74
	c1.81,0,3.28,1.47,3.28,3.28v0.81C43.56,6.16,42.09,7.63,40.28,7.63z"/>
<g>
	<g>
		<path d="M21.27,4.34h-1.19V3.98h1.19V4.34z"/>
		<path d="M21.81,5.67V2.8h2.29v2.88H21.81z M22.26,5.31h1.39V3.16h-1.39V5.31z"/>
		<path d="M25.21,4.4V3.16h-0.53V2.8h0.98v1.6H25.21z"/>
		<path d="M26.94,2.8v2.37c0.16,0.06,0.32,0.12,0.49,0.15s0.34,0.06,0.5,0.06c0.23,0,0.44-0.03,0.62-0.1
			c0.18-0.07,0.33-0.17,0.44-0.3s0.16-0.31,0.16-0.52V2.8h0.44v1.7c0,0.21-0.04,0.39-0.13,0.55s-0.21,0.28-0.36,0.39
			s-0.33,0.18-0.52,0.23c-0.2,0.05-0.41,0.08-0.63,0.08c-0.23,0-0.48-0.03-0.73-0.08c-0.25-0.06-0.49-0.14-0.72-0.25V2.8H26.94z
			 M27.63,4.88c0.06-0.07,0.11-0.15,0.14-0.27s0.05-0.24,0.05-0.39V2.8h0.44v1.35c0,0.16-0.02,0.31-0.06,0.43
			C28.15,4.7,28.09,4.81,28,4.89L27.63,4.88z"/>
		<path d="M30.17,2.8h2.3v0.36h-0.48v2.51h-0.45V3.16h-1.37V2.8z"/>
		<path d="M33.21,5.67V3.16h-0.33V2.8h0.79v2.88H33.21z"/>
		<path d="M34.55,5.67l0-2.88h1.08c0.38,0,0.67,0.09,0.85,0.27c0.19,0.18,0.28,0.46,0.28,0.83v1.78h-0.45v-1.8
			c0-0.25-0.05-0.43-0.16-0.54s-0.28-0.17-0.52-0.17H35l0,2.51H34.55z"/>
		<path d="M40.92,4.71c0,0.22-0.05,0.4-0.15,0.55c-0.1,0.15-0.24,0.26-0.41,0.34S40,5.72,39.79,5.72s-0.41-0.04-0.58-0.12
			S38.9,5.41,38.8,5.26s-0.15-0.33-0.15-0.55c0-0.19,0.05-0.35,0.14-0.5s0.23-0.26,0.4-0.34c0.17-0.08,0.36-0.13,0.58-0.13
			c0.22,0,0.41,0.04,0.58,0.13c0.17,0.08,0.31,0.2,0.4,0.34S40.92,4.52,40.92,4.71z M40.83,3.04c0,0.17-0.04,0.33-0.14,0.47
			c-0.09,0.14-0.21,0.25-0.37,0.33s-0.34,0.12-0.54,0.12c-0.2,0-0.38-0.04-0.54-0.12c-0.16-0.08-0.28-0.19-0.37-0.33
			c-0.09-0.14-0.13-0.29-0.13-0.47c0-0.21,0.04-0.38,0.14-0.53c0.09-0.14,0.21-0.25,0.37-0.33c0.16-0.08,0.34-0.11,0.54-0.11
			s0.38,0.04,0.54,0.11c0.16,0.08,0.28,0.19,0.37,0.33C40.79,2.66,40.83,2.84,40.83,3.04z M40.46,4.7c0-0.13-0.03-0.25-0.09-0.35
			c-0.06-0.1-0.14-0.18-0.24-0.24c-0.1-0.06-0.22-0.08-0.36-0.08c-0.14,0-0.25,0.03-0.36,0.08c-0.1,0.06-0.18,0.14-0.23,0.24
			s-0.08,0.22-0.08,0.35c0,0.14,0.03,0.25,0.08,0.35s0.13,0.17,0.23,0.22c0.1,0.05,0.22,0.08,0.36,0.08c0.14,0,0.26-0.03,0.36-0.08
			c0.1-0.05,0.18-0.13,0.23-0.22S40.46,4.84,40.46,4.7z M40.38,3.05c0-0.12-0.02-0.22-0.07-0.32s-0.12-0.17-0.21-0.22
			s-0.19-0.08-0.31-0.08c-0.12,0-0.22,0.03-0.31,0.08c-0.09,0.05-0.16,0.12-0.21,0.21s-0.08,0.2-0.08,0.33
			c0,0.12,0.03,0.23,0.08,0.32c0.05,0.09,0.12,0.16,0.21,0.21c0.09,0.05,0.19,0.08,0.31,0.08s0.22-0.03,0.31-0.08
			c0.09-0.05,0.16-0.12,0.21-0.21C40.35,3.28,40.38,3.17,40.38,3.05z"/>
	</g>
</g>
<path class="st1" d="M1.86,2.41c0.21-0.23,0.63-0.64,1.28-0.9c0.74-0.3,1.39-0.28,1.71-0.24"/>
<g>
	<g>
		<path d="M3.52,3.3c0.23,0,0.4,0.05,0.51,0.16C4.14,3.57,4.2,3.74,4.2,3.96v1.07H3.93l0-1.08c0-0.15-0.03-0.26-0.1-0.33
			s-0.17-0.1-0.31-0.1H3.27C3.24,3.57,3.22,3.64,3.2,3.72C3.18,3.81,3.17,3.89,3.17,3.98v0.58c0,0.16-0.04,0.28-0.11,0.36
			C2.98,5,2.87,5.04,2.73,5.04c-0.03,0-0.06,0-0.08,0c-0.03,0-0.06-0.01-0.08-0.01V4.81c0.02,0,0.03,0,0.05,0c0.02,0,0.03,0,0.05,0
			c0.09,0,0.15-0.02,0.19-0.07C2.88,4.71,2.9,4.64,2.9,4.54V4c0-0.09,0.01-0.17,0.03-0.26c0.02-0.09,0.06-0.16,0.1-0.21H2.71V3.3
			H3.52z"/>
		<path d="M4.77,5.03V3.52h-0.2V3.3h0.47v1.73H4.77z"/>
		<path d="M5.56,5.03l0.13-1.1C5.7,3.85,5.72,3.77,5.76,3.7s0.08-0.12,0.12-0.16c0,0,0.01-0.01,0.02-0.01
			c0.01,0,0.01-0.01,0.01-0.01l0,0c-0.04,0.01-0.1,0.02-0.16,0.04C5.68,3.57,5.62,3.59,5.56,3.61L5.5,3.4
			c0.08-0.03,0.16-0.05,0.25-0.07S5.92,3.3,6.01,3.29C6.1,3.28,6.19,3.27,6.27,3.27c0.23,0,0.41,0.06,0.53,0.19
			C6.92,3.58,6.98,3.76,6.99,4v1.03H6.27V4.81h0.44V3.97c0-0.15-0.04-0.27-0.1-0.35C6.54,3.54,6.44,3.5,6.31,3.5
			c-0.09,0-0.17,0.04-0.24,0.11s-0.1,0.17-0.12,0.3L5.82,5.03H5.56z"/>
		<path d="M7.47,5.03l0-1.73h0.65c0.23,0,0.4,0.05,0.51,0.16C8.75,3.57,8.8,3.74,8.8,3.96v1.07H8.53V3.95c0-0.15-0.03-0.26-0.1-0.33
			s-0.17-0.1-0.31-0.1H7.75l0,1.51H7.47z"/>
		<path d="M9.38,5.03V3.52h-0.2V3.3h0.47v1.73H9.38z"/>
		<path d="M10.03,3.52V2.78h0.27V3.3h0.94v0.22H10.03z M11.35,3.47l-0.63,1.55h-0.29l0.72-1.73h0.21V3.47z"/>
		<path d="M13.17,3.3c0.23,0,0.4,0.05,0.51,0.16c0.11,0.11,0.17,0.27,0.17,0.5v1.07h-0.27l0-1.08c0-0.15-0.03-0.26-0.1-0.33
			c-0.06-0.07-0.17-0.1-0.31-0.1h-0.24c-0.03,0.05-0.06,0.12-0.08,0.2c-0.02,0.08-0.03,0.17-0.03,0.25v0.58
			c0,0.16-0.04,0.28-0.11,0.36C12.63,5,12.52,5.04,12.38,5.04c-0.03,0-0.06,0-0.08,0c-0.03,0-0.05-0.01-0.08-0.01V4.81
			c0.02,0,0.03,0,0.05,0c0.02,0,0.03,0,0.05,0c0.09,0,0.15-0.02,0.19-0.07c0.04-0.04,0.06-0.11,0.06-0.21V4
			c0-0.09,0.01-0.17,0.03-0.26c0.02-0.09,0.06-0.16,0.1-0.21h-0.32V3.3H13.17z"/>
		<path d="M14.44,5.06c-0.05,0-0.1,0-0.14-0.01c-0.05-0.01-0.09-0.01-0.14-0.02l0.01-0.21c0.06,0.01,0.13,0.02,0.21,0.02
			c0.08,0,0.14-0.02,0.18-0.07c0.04-0.04,0.06-0.12,0.06-0.21V3.52h-0.34V3.3h0.61v1.27c0,0.16-0.04,0.28-0.12,0.36
			C14.7,5.02,14.58,5.06,14.44,5.06z"/>
		<path d="M15.56,4.26V3.52h-0.32V3.3h0.59v0.96H15.56z"/>
		<path d="M16.67,5.05c-0.07,0-0.15-0.01-0.23-0.02C16.36,5.02,16.27,5,16.18,4.97l0.04-0.2c0.16,0.04,0.3,0.06,0.43,0.06
			c0.16,0,0.28-0.04,0.36-0.12s0.12-0.19,0.12-0.34V3.52h-0.9V3.3h1.17v1.01c0,0.17-0.03,0.3-0.09,0.41s-0.15,0.19-0.26,0.24
			C16.95,5.03,16.82,5.05,16.67,5.05z"/>
		<path d="M17.93,5.03l0.13-1.1c0.01-0.08,0.03-0.16,0.07-0.23s0.08-0.12,0.12-0.16c0,0,0.01-0.01,0.01-0.01
			c0.01,0,0.01-0.01,0.01-0.01l0,0c-0.04,0.01-0.1,0.02-0.16,0.04c-0.07,0.02-0.13,0.04-0.18,0.05L17.87,3.4
			c0.08-0.03,0.16-0.05,0.25-0.07c0.09-0.02,0.18-0.04,0.27-0.05c0.09-0.01,0.18-0.02,0.26-0.02c0.23,0,0.41,0.06,0.53,0.19
			c0.12,0.12,0.18,0.3,0.18,0.54v1.03h-0.71V4.81h0.44V3.97c0-0.15-0.04-0.27-0.1-0.35c-0.07-0.08-0.17-0.12-0.3-0.12
			c-0.1,0-0.17,0.04-0.24,0.11s-0.1,0.17-0.12,0.3L18.2,5.03H17.93z"/>
	</g>
</g>
</svg>
