<?xml version="1.0" encoding="utf-8"?>
<!-- Generator: Adobe Illustrator 26.0.3, SVG Export Plug-In . SVG Version: 6.00 Build 0)  -->
<svg version="1.1" id="Layer_1" xmlns="http://www.w3.org/2000/svg" xmlns:xlink="http://www.w3.org/1999/xlink" x="0px" y="0px"
	 viewBox="0 0 43.81 7.88" style="enable-background:new 0 0 43.81 7.88;" xml:space="preserve">
<style type="text/css">
	.st0{fill:#8BC8EA;stroke:#000000;stroke-width:0.25;stroke-miterlimit:10;}
	.st1{fill:#9DD2EA;stroke:#9DD2EA;stroke-width:0.5;stroke-miterlimit:10;}
</style>
<path class="st0" d="M40.28,7.63H3.53c-1.81,0-3.28-1.47-3.28-3.28V3.53c0-1.81,1.47-3.28,3.28-3.28h36.74
	c1.81,0,3.28,1.47,3.28,3.28v0.81C43.56,6.16,42.09,7.63,40.28,7.63z"/>
<g>
	<g>
		<path d="M13.14,5.67V2.8h2.29v2.88H13.14z M13.59,5.31h1.39V3.16h-1.39V5.31z"/>
		<path d="M16.54,4.4V3.16h-0.53V2.8h0.98v1.6H16.54z"/>
		<path d="M18.27,2.8v2.37c0.16,0.06,0.32,0.12,0.49,0.15s0.34,0.06,0.5,0.06c0.23,0,0.44-0.03,0.62-0.1
			c0.18-0.07,0.33-0.17,0.44-0.3s0.16-0.31,0.16-0.52V2.8h0.44v1.7c0,0.21-0.04,0.39-0.13,0.55s-0.21,0.28-0.36,0.39
			s-0.33,0.18-0.52,0.23c-0.2,0.05-0.41,0.08-0.63,0.08c-0.23,0-0.48-0.03-0.73-0.08c-0.25-0.06-0.49-0.14-0.72-0.25V2.8H18.27z
			 M18.96,4.88c0.06-0.07,0.11-0.15,0.14-0.27s0.05-0.24,0.05-0.39V2.8h0.44v1.35c0,0.16-0.02,0.31-0.06,0.43
			c-0.04,0.12-0.1,0.23-0.19,0.31L18.96,4.88z"/>
		<path d="M21.5,2.8h2.3v0.36h-0.48v2.51h-0.45V3.16H21.5V2.8z"/>
		<path d="M24.54,5.67V3.16h-0.33V2.8H25v2.88H24.54z"/>
		<path d="M25.88,5.67l0-2.88h1.08c0.38,0,0.67,0.09,0.85,0.27C28,3.25,28.1,3.53,28.1,3.9v1.78h-0.45v-1.8
			c0-0.25-0.05-0.43-0.16-0.54s-0.28-0.17-0.52-0.17h-0.63l0,2.51H25.88z"/>
		<path d="M32.41,4.84h-2.57V4.58l1.59-2.46h0.37l-0.4,0.71l-1.05,1.65h2.05V4.84z M31.92,5.67h-0.46V2.12h0.46V5.67z"/>
	</g>
</g>
<path class="st1" d="M1.86,2.41c0.21-0.23,0.63-0.64,1.28-0.9c0.74-0.3,1.39-0.28,1.71-0.24"/>
</svg>
