<?xml version="1.0" encoding="utf-8"?>
<!-- Generator: Adobe Illustrator 26.0.3, SVG Export Plug-In . SVG Version: 6.00 Build 0)  -->
<svg version="1.1" id="Layer_1" xmlns="http://www.w3.org/2000/svg" xmlns:xlink="http://www.w3.org/1999/xlink" x="0px" y="0px"
	 viewBox="0 0 11.79 7.71" style="enable-background:new 0 0 11.79 7.71;" xml:space="preserve">
<style type="text/css">
	.st0{fill:#E5B776;stroke:#E5B776;stroke-width:0.5;stroke-miterlimit:10;}
	.st1{fill:#E8B158;stroke:#000000;stroke-width:0.25;stroke-miterlimit:10;}
</style>
<path class="st0" d="M1,2.61c0.18-0.29,0.53-0.79,1.08-1.13c0.62-0.38,1.17-0.35,1.44-0.3"/>
<path class="st1" d="M8.33,7.54H3.46c-1.81,0-3.28-1.47-3.28-3.28V3.45c0-1.81,1.47-3.28,3.28-3.28h4.87c1.81,0,3.28,1.47,3.28,3.28
	v0.81C11.62,6.07,10.15,7.54,8.33,7.54z"/>
<g>
	<g>
		<path d="M4.52,1.9c0.15,0,0.27,0.04,0.34,0.11C4.94,2.09,4.98,2.2,4.98,2.34v0.71H4.8l0-0.72c0-0.1-0.02-0.17-0.06-0.22
			C4.69,2.07,4.62,2.05,4.53,2.05H4.36C4.34,2.08,4.33,2.13,4.31,2.19C4.3,2.24,4.29,2.3,4.29,2.35v0.39c0,0.11-0.03,0.19-0.08,0.24
			C4.17,3.04,4.09,3.06,4,3.06c-0.02,0-0.04,0-0.06,0c-0.02,0-0.04,0-0.06-0.01V2.91c0.01,0,0.02,0,0.03,0c0.01,0,0.02,0,0.03,0
			c0.06,0,0.1-0.01,0.12-0.04s0.04-0.08,0.04-0.14V2.37c0-0.06,0.01-0.12,0.02-0.18C4.15,2.13,4.18,2.09,4.2,2.05H3.99V1.9H4.52z"/>
		<path d="M5.19,3.06c-0.01,0-0.01,0-0.02,0c-0.01,0-0.02,0-0.02,0V2.89c0.01,0,0.02,0,0.03,0s0.02,0,0.03,0
			c0.07,0,0.12-0.02,0.17-0.04c0.05-0.03,0.08-0.06,0.11-0.11C5.51,2.71,5.53,2.66,5.54,2.6V2.05H5.28V1.9h0.44V2.5
			c0,0.06,0.01,0.12,0.02,0.18l0.08,0.38H5.65L5.58,2.73H5.58C5.57,2.79,5.55,2.84,5.51,2.89C5.48,2.94,5.43,2.99,5.38,3.02
			C5.32,3.05,5.26,3.06,5.19,3.06z"/>
		<path d="M5.98,2.05v-0.5h0.18V1.9h0.62v0.15H5.98z M6.86,2.02L6.43,3.05H6.24L6.72,1.9h0.14V2.02z"/>
		<path d="M7.5,3.07c-0.06,0-0.12-0.01-0.18-0.02C7.25,3.05,7.18,3.03,7.12,3.01l0.04-0.14C7.22,2.89,7.28,2.9,7.34,2.91
			c0.06,0.01,0.11,0.01,0.15,0.01c0.11,0,0.19-0.03,0.25-0.08s0.09-0.13,0.09-0.23V2.05H7.36C7.34,2.09,7.33,2.13,7.31,2.19
			C7.3,2.24,7.29,2.3,7.29,2.35v0.09c0.01,0.01,0.03,0.01,0.06,0.01s0.06,0,0.09,0v0.16c-0.05,0-0.1,0-0.14-0.01S7.24,2.6,7.21,2.59
			C7.18,2.58,7.15,2.56,7.12,2.55l0-0.15c0-0.07,0.01-0.13,0.03-0.19c0.02-0.06,0.04-0.11,0.07-0.16H7.07V1.9H8v0.68
			c0,0.11-0.02,0.2-0.07,0.28C7.9,2.93,7.84,2.99,7.76,3.02C7.68,3.06,7.6,3.08,7.5,3.07z"/>
		<path d="M2.37,4.3c0.15,0,0.27,0.04,0.34,0.11C2.78,4.49,2.82,4.6,2.82,4.75v0.71H2.64l0-0.72c0-0.1-0.02-0.17-0.06-0.22
			C2.53,4.47,2.47,4.45,2.37,4.45H2.21C2.19,4.49,2.17,4.53,2.16,4.59C2.14,4.64,2.14,4.7,2.14,4.75v0.39
			c0,0.11-0.03,0.19-0.08,0.24C2.01,5.44,1.94,5.46,1.84,5.46c-0.02,0-0.04,0-0.06,0c-0.02,0-0.04,0-0.06-0.01V5.31
			c0.01,0,0.02,0,0.03,0s0.02,0,0.03,0c0.06,0,0.1-0.01,0.12-0.04S1.96,5.2,1.96,5.13V4.77c0-0.06,0.01-0.12,0.02-0.18
			C2,4.53,2.02,4.49,2.05,4.45H1.83V4.3H2.37z"/>
		<path d="M3.2,5.46v-1H3.07V4.3h0.32v1.15H3.2z"/>
		<path d="M3.83,4.95v-0.5H3.61V4.3h0.39v0.64H3.83z"/>
		<path d="M4.41,5.47c-0.03,0-0.07,0-0.1-0.01S4.25,5.46,4.22,5.45l0-0.14c0.04,0.01,0.09,0.01,0.14,0.01s0.09-0.02,0.12-0.04
			C4.52,5.25,4.53,5.2,4.53,5.14V4.45H4.3V4.3h0.41v0.85c0,0.11-0.03,0.19-0.08,0.24C4.58,5.45,4.51,5.47,4.41,5.47z"/>
		<path d="M5.54,4.3c0.15,0,0.27,0.04,0.34,0.11C5.95,4.49,5.99,4.6,5.99,4.75v0.71H5.81l0-0.72c0-0.1-0.02-0.17-0.06-0.22
			C5.7,4.47,5.63,4.45,5.54,4.45H5.37C5.35,4.49,5.34,4.53,5.32,4.59C5.31,4.64,5.3,4.7,5.3,4.75v0.39c0,0.11-0.03,0.19-0.08,0.24
			C5.18,5.44,5.1,5.46,5.01,5.46c-0.02,0-0.04,0-0.06,0c-0.02,0-0.04,0-0.06-0.01V5.31c0.01,0,0.02,0,0.03,0c0.01,0,0.02,0,0.03,0
			c0.06,0,0.1-0.01,0.12-0.04S5.13,5.2,5.13,5.13V4.77c0-0.06,0.01-0.12,0.02-0.18c0.01-0.06,0.04-0.11,0.06-0.14H5V4.3H5.54z"/>
		<path d="M6.4,4.95v-0.5H6.19V4.3h0.39v0.64H6.4z"/>
		<path d="M7.31,5.47c-0.06,0-0.12-0.01-0.18-0.02C7.06,5.45,7,5.43,6.94,5.41l0.04-0.14C7.03,5.29,7.09,5.3,7.15,5.31
			C7.21,5.32,7.26,5.33,7.3,5.33c0.11,0,0.19-0.03,0.25-0.08s0.09-0.13,0.09-0.23V4.45H7.18C7.16,4.49,7.14,4.53,7.13,4.59
			C7.11,4.64,7.11,4.7,7.11,4.75v0.09c0.01,0.01,0.03,0.01,0.06,0.01s0.06,0,0.09,0v0.16c-0.05,0-0.1,0-0.14-0.01S7.05,5,7.02,4.99
			C6.99,4.98,6.96,4.96,6.93,4.95l0-0.15c0-0.07,0.01-0.13,0.03-0.19c0.02-0.06,0.04-0.11,0.07-0.16H6.88V4.3h0.94v0.68
			c0,0.11-0.02,0.2-0.07,0.28c-0.04,0.07-0.1,0.13-0.18,0.16C7.5,5.46,7.41,5.48,7.31,5.47z"/>
		<path d="M8.12,5.46V5.31h0.62l-0.69-1h0.2l0.35,0.53l0.37,0.53v0.09H8.12z M8.64,4.98L8.53,4.83L8.82,4.3h0.2L8.64,4.98z"/>
		<path d="M9.73,4.3c0.15,0,0.27,0.04,0.34,0.11c0.07,0.07,0.11,0.18,0.11,0.33v0.71h-0.18l0-0.72c0-0.1-0.02-0.17-0.06-0.22
			C9.9,4.47,9.83,4.45,9.74,4.45H9.57C9.55,4.49,9.54,4.53,9.52,4.59C9.51,4.64,9.5,4.7,9.5,4.75v0.39c0,0.11-0.03,0.19-0.08,0.24
			C9.38,5.44,9.3,5.46,9.21,5.46c-0.02,0-0.04,0-0.06,0c-0.02,0-0.04,0-0.06-0.01V5.31c0.01,0,0.02,0,0.03,0c0.01,0,0.02,0,0.03,0
			c0.06,0,0.1-0.01,0.12-0.04S9.33,5.2,9.33,5.13V4.77c0-0.06,0.01-0.12,0.02-0.18c0.01-0.06,0.04-0.11,0.06-0.14H9.2V4.3H9.73z"/>
	</g>
</g>
</svg>
