<?xml version="1.0" encoding="utf-8"?>
<!-- Generator: Adobe Illustrator 26.0.3, SVG Export Plug-In . SVG Version: 6.00 Build 0)  -->
<svg version="1.1" id="Layer_1" xmlns="http://www.w3.org/2000/svg" xmlns:xlink="http://www.w3.org/1999/xlink" x="0px" y="0px"
	 viewBox="0 0 11.79 7.71" style="enable-background:new 0 0 11.79 7.71;" xml:space="preserve">
<style type="text/css">
	.st0{fill:#E5B776;stroke:#E5B776;stroke-width:0.5;stroke-miterlimit:10;}
	.st1{fill:#E8B158;stroke:#000000;stroke-width:0.25;stroke-miterlimit:10;}
</style>
<path class="st0" d="M1,2.61c0.18-0.29,0.53-0.79,1.08-1.13c0.62-0.38,1.17-0.35,1.44-0.3"/>
<path class="st1" d="M8.33,7.54H3.46c-1.81,0-3.28-1.47-3.28-3.28V3.45c0-1.81,1.47-3.28,3.28-3.28h4.87c1.81,0,3.28,1.47,3.28,3.28
	v0.81C11.62,6.07,10.15,7.54,8.33,7.54z"/>
<g>
	<g>
		<path d="M4.52,1.9c0.15,0,0.27,0.04,0.34,0.11C4.94,2.09,4.98,2.2,4.98,2.34v0.71H4.8l0-0.72c0-0.1-0.02-0.17-0.06-0.22
			C4.69,2.07,4.62,2.05,4.53,2.05H4.36C4.34,2.08,4.33,2.13,4.31,2.19C4.3,2.24,4.29,2.3,4.29,2.35v0.39c0,0.11-0.03,0.19-0.08,0.24
			C4.17,3.04,4.09,3.06,4,3.06c-0.02,0-0.04,0-0.06,0c-0.02,0-0.04,0-0.06-0.01V2.91c0.01,0,0.02,0,0.03,0c0.01,0,0.02,0,0.03,0
			c0.06,0,0.1-0.01,0.12-0.04s0.04-0.08,0.04-0.14V2.37c0-0.06,0.01-0.12,0.02-0.18C4.15,2.13,4.18,2.09,4.2,2.05H3.99V1.9H4.52z"/>
		<path d="M5.19,3.06c-0.01,0-0.01,0-0.02,0c-0.01,0-0.02,0-0.02,0V2.89c0.01,0,0.02,0,0.03,0s0.02,0,0.03,0
			c0.07,0,0.12-0.02,0.17-0.04c0.05-0.03,0.08-0.06,0.11-0.11C5.51,2.71,5.53,2.66,5.54,2.6V2.05H5.28V1.9h0.44V2.5
			c0,0.06,0.01,0.12,0.02,0.18l0.08,0.38H5.65L5.58,2.73H5.58C5.57,2.79,5.55,2.84,5.51,2.89C5.48,2.94,5.43,2.99,5.38,3.02
			C5.32,3.05,5.26,3.06,5.19,3.06z"/>
		<path d="M5.98,2.05v-0.5h0.18V1.9h0.62v0.15H5.98z M6.86,2.02L6.43,3.05H6.24L6.72,1.9h0.14V2.02z"/>
		<path d="M7.5,3.07c-0.06,0-0.12-0.01-0.18-0.02C7.25,3.05,7.18,3.03,7.12,3.01l0.04-0.14C7.22,2.89,7.28,2.9,7.34,2.91
			c0.06,0.01,0.11,0.01,0.15,0.01c0.11,0,0.19-0.03,0.25-0.08s0.09-0.13,0.09-0.23V2.05H7.36C7.34,2.09,7.33,2.13,7.31,2.19
			C7.3,2.24,7.29,2.3,7.29,2.35v0.09c0.01,0.01,0.03,0.01,0.06,0.01s0.06,0,0.09,0v0.16c-0.05,0-0.1,0-0.14-0.01S7.24,2.6,7.21,2.59
			C7.18,2.58,7.15,2.56,7.12,2.55l0-0.15c0-0.07,0.01-0.13,0.03-0.19c0.02-0.06,0.04-0.11,0.07-0.16H7.07V1.9H8v0.68
			c0,0.11-0.02,0.2-0.07,0.28C7.9,2.93,7.84,2.99,7.76,3.02C7.68,3.06,7.6,3.08,7.5,3.07z"/>
		<path d="M4.21,5.46V5.31c0.1,0,0.17-0.03,0.23-0.09C4.5,5.16,4.53,5.08,4.53,4.98V4.45H3.82V4.3h0.89v0.68
			c0,0.1-0.02,0.18-0.06,0.25s-0.1,0.12-0.18,0.16C4.39,5.43,4.31,5.45,4.21,5.46z M3.84,5.86V5.02c0-0.07,0.01-0.12,0.02-0.15
			s0.02-0.07,0.03-0.09h0.15c-0.01,0.03-0.01,0.06-0.02,0.1c0,0.04-0.01,0.08-0.01,0.13v0.85H3.84z"/>
		<path d="M5.22,4.08c0,0.04-0.01,0.08-0.02,0.12C5.18,4.25,5.17,4.29,5.14,4.33S5.08,4.4,5.05,4.43l-0.1-0.07
			C4.97,4.32,5,4.28,5.01,4.23c0.02-0.05,0.02-0.09,0.02-0.15V3.96h0.18V4.08z M5.52,4.08c0,0.04-0.01,0.08-0.02,0.12
			C5.49,4.25,5.47,4.29,5.44,4.33S5.38,4.4,5.35,4.43l-0.1-0.07C5.27,4.32,5.3,4.28,5.31,4.23c0.02-0.05,0.02-0.09,0.02-0.15V3.96
			h0.18V4.08z"/>
		<path d="M6.17,5.46V5.31c0.1,0,0.17-0.03,0.23-0.09c0.06-0.06,0.09-0.14,0.09-0.24V4.45H5.78V4.3h0.89v0.68
			c0,0.1-0.02,0.18-0.06,0.25S6.5,5.36,6.43,5.39C6.35,5.43,6.27,5.45,6.17,5.46z M5.8,5.86V5.02c0-0.07,0.01-0.12,0.02-0.15
			s0.02-0.07,0.03-0.09H6c-0.01,0.03-0.01,0.06-0.02,0.1c0,0.04-0.01,0.08-0.01,0.13v0.85H5.8z"/>
		<path d="M7.08,5.46v-1H6.94V4.3h0.32v1.15H7.08z"/>
		<path d="M8.09,5.46v-0.8c0-0.06-0.02-0.11-0.06-0.15C7.99,4.47,7.94,4.45,7.88,4.45H7.49V4.3h0.39C8,4.3,8.1,4.34,8.17,4.4
			c0.07,0.06,0.1,0.15,0.1,0.27v0.79H8.09z"/>
	</g>
</g>
</svg>
