<?xml version="1.0" encoding="utf-8"?>
<!-- Generator: Adobe Illustrator 26.0.3, SVG Export Plug-In . SVG Version: 6.00 Build 0)  -->
<svg version="1.1" id="Layer_1" xmlns="http://www.w3.org/2000/svg" xmlns:xlink="http://www.w3.org/1999/xlink" x="0px" y="0px"
	 viewBox="0 0 11.79 7.71" style="enable-background:new 0 0 11.79 7.71;" xml:space="preserve">
<style type="text/css">
	.st0{fill:#E5B776;stroke:#E5B776;stroke-width:0.5;stroke-miterlimit:10;}
	.st1{fill:#E8B158;stroke:#000000;stroke-width:0.25;stroke-miterlimit:10;}
</style>
<path class="st0" d="M1,2.61c0.18-0.29,0.53-0.79,1.08-1.13c0.62-0.38,1.17-0.35,1.44-0.3"/>
<path class="st1" d="M8.33,7.54H3.46c-1.81,0-3.28-1.47-3.28-3.28V3.45c0-1.81,1.47-3.28,3.28-3.28h4.87c1.81,0,3.28,1.47,3.28,3.28
	v0.81C11.62,6.07,10.15,7.54,8.33,7.54z"/>
<g>
	<g>
		<path d="M4.52,1.9c0.15,0,0.27,0.04,0.34,0.11C4.94,2.09,4.98,2.2,4.98,2.34v0.71H4.8l0-0.72c0-0.1-0.02-0.17-0.06-0.22
			C4.69,2.07,4.62,2.05,4.53,2.05H4.36C4.34,2.08,4.33,2.13,4.31,2.19C4.3,2.24,4.29,2.3,4.29,2.35v0.39c0,0.11-0.03,0.19-0.08,0.24
			C4.17,3.04,4.09,3.06,4,3.06c-0.02,0-0.04,0-0.06,0c-0.02,0-0.04,0-0.06-0.01V2.91c0.01,0,0.02,0,0.03,0c0.01,0,0.02,0,0.03,0
			c0.06,0,0.1-0.01,0.12-0.04s0.04-0.08,0.04-0.14V2.37c0-0.06,0.01-0.12,0.02-0.18C4.15,2.13,4.18,2.09,4.2,2.05H3.99V1.9H4.52z"/>
		<path d="M5.19,3.06c-0.01,0-0.01,0-0.02,0c-0.01,0-0.02,0-0.02,0V2.89c0.01,0,0.02,0,0.03,0s0.02,0,0.03,0
			c0.07,0,0.12-0.02,0.17-0.04c0.05-0.03,0.08-0.06,0.11-0.11C5.51,2.71,5.53,2.66,5.54,2.6V2.05H5.28V1.9h0.44V2.5
			c0,0.06,0.01,0.12,0.02,0.18l0.08,0.38H5.65L5.58,2.73H5.58C5.57,2.79,5.55,2.84,5.51,2.89C5.48,2.94,5.43,2.99,5.38,3.02
			C5.32,3.05,5.26,3.06,5.19,3.06z"/>
		<path d="M5.98,2.05v-0.5h0.18V1.9h0.62v0.15H5.98z M6.86,2.02L6.43,3.05H6.24L6.72,1.9h0.14V2.02z"/>
		<path d="M7.5,3.07c-0.06,0-0.12-0.01-0.18-0.02C7.25,3.05,7.18,3.03,7.12,3.01l0.04-0.14C7.22,2.89,7.28,2.9,7.34,2.91
			c0.06,0.01,0.11,0.01,0.15,0.01c0.11,0,0.19-0.03,0.25-0.08s0.09-0.13,0.09-0.23V2.05H7.36C7.34,2.09,7.33,2.13,7.31,2.19
			C7.3,2.24,7.29,2.3,7.29,2.35v0.09c0.01,0.01,0.03,0.01,0.06,0.01s0.06,0,0.09,0v0.16c-0.05,0-0.1,0-0.14-0.01S7.24,2.6,7.21,2.59
			C7.18,2.58,7.15,2.56,7.12,2.55l0-0.15c0-0.07,0.01-0.13,0.03-0.19c0.02-0.06,0.04-0.11,0.07-0.16H7.07V1.9H8v0.68
			c0,0.11-0.02,0.2-0.07,0.28C7.9,2.93,7.84,2.99,7.76,3.02C7.68,3.06,7.6,3.08,7.5,3.07z"/>
		<path d="M4.24,5.46V4.73c0-0.1-0.02-0.17-0.07-0.22C4.13,4.47,4.05,4.45,3.95,4.45H3.54V4.3h0.43c0.15,0,0.26,0.04,0.34,0.11
			c0.08,0.07,0.12,0.18,0.12,0.32v0.72H4.24z M3.54,5.46V5.06c0-0.07,0.01-0.12,0.02-0.15s0.02-0.07,0.03-0.09h0.15
			c-0.01,0.03-0.01,0.06-0.02,0.1c0,0.04-0.01,0.08-0.01,0.13v0.4H3.54z"/>
		<path d="M4.73,5.46l0.09-0.73c0.01-0.05,0.02-0.1,0.05-0.15s0.05-0.08,0.08-0.11c0,0,0.01,0,0.01-0.01c0,0,0.01,0,0.01-0.01l0,0
			c-0.03,0-0.07,0.01-0.11,0.02C4.82,4.48,4.78,4.5,4.74,4.51L4.7,4.37c0.05-0.02,0.1-0.03,0.16-0.05C4.92,4.31,4.98,4.3,5.04,4.29
			C5.1,4.29,5.16,4.28,5.21,4.28c0.16,0,0.27,0.04,0.35,0.12c0.08,0.08,0.12,0.2,0.12,0.36v0.69H5.21V5.31h0.29V4.75
			c0-0.1-0.02-0.18-0.07-0.23c-0.05-0.05-0.11-0.08-0.2-0.08c-0.06,0-0.12,0.02-0.16,0.07C5.04,4.56,5.01,4.62,5,4.71L4.91,5.46
			H4.73z"/>
		<path d="M6.01,5.46l0-1.15h0.43c0.15,0,0.27,0.04,0.34,0.11C6.86,4.49,6.9,4.6,6.9,4.75v0.71H6.72V4.73c0-0.1-0.02-0.17-0.06-0.22
			S6.54,4.45,6.45,4.45H6.19l0,1H6.01z"/>
		<path d="M7.28,5.46v-1H7.15V4.3h0.32v1.15H7.28z"/>
		<path d="M7.72,4.45v-0.5H7.9V4.3h0.62v0.15H7.72z M8.59,4.42L8.17,5.46H7.98L8.46,4.3h0.14V4.42z"/>
	</g>
</g>
</svg>
