<?xml version="1.0" encoding="utf-8"?>
<!-- Generator: Adobe Illustrator 26.0.3, SVG Export Plug-In . SVG Version: 6.00 Build 0)  -->
<svg version="1.1" id="Layer_1" xmlns="http://www.w3.org/2000/svg" xmlns:xlink="http://www.w3.org/1999/xlink" x="0px" y="0px"
	 viewBox="0 0 149.78 122.61" style="enable-background:new 0 0 149.78 122.61;" xml:space="preserve">
<style type="text/css">
	.st0{fill:#8BC8EA;stroke:#000000;stroke-miterlimit:10;}
	.st1{fill:#71C7FF;}
	.st2{fill:#8BC8EA;stroke:#000000;stroke-width:0.5;stroke-miterlimit:10;}
</style>
<path class="st0" d="M104.73,17.86c8.26,13.17,16.51,26.34,24.77,39.5c1.36,2.17,1.33,4.94-0.08,7.09
	c-9.03,13.69-18.06,27.38-27.08,41.07c-0.07,0.1-0.13,0.2-0.19,0.31c-1.55,2.68-4.71,7.33-10.37,11.12
	c-4.29,2.88-8.43,4.19-11.26,4.83c-0.48,0.11-0.97,0.17-1.47,0.17l-54.39,0c-13.02,0-23.57-10.55-23.57-23.57l0-73.85
	c0-13.02,10.55-23.57,23.57-23.57l54.24,0c0.56,0,1.12,0.07,1.66,0.21C83.63,2,87.58,3.43,91.76,5.94
	c6.26,3.77,10.3,8.32,12.65,11.45C104.52,17.55,104.63,17.7,104.73,17.86z"/>
<path class="st1" d="M34.22,304.3"/>
<line class="st0" x1="134.58" y1="60.95" x2="138.58" y2="60.95"/>
<circle class="st2" cx="145.58" cy="60.95" r="3.5"/>
<g>
	<g>
		<path d="M27.57,65.74l0.01-9.78h3.68c1.29,0,2.26,0.31,2.9,0.93c0.64,0.62,0.96,1.56,0.96,2.82v6.03h-1.54v-6.13
			c0-0.85-0.18-1.46-0.55-1.84s-0.95-0.57-1.76-0.57h-2.16l-0.01,8.54H27.57z"/>
		<path d="M38.35,65.74V57.2h-1.14v-1.24h2.68v9.78H38.35z"/>
		<path d="M46.89,55.96c1.29,0,2.26,0.31,2.9,0.93c0.64,0.62,0.96,1.56,0.96,2.82v6.03h-1.54l-0.01-6.13c0-0.85-0.18-1.46-0.54-1.84
			c-0.36-0.38-0.95-0.57-1.76-0.57h-1.39c-0.18,0.3-0.33,0.68-0.44,1.15c-0.11,0.47-0.16,0.95-0.16,1.44v3.3
			c0,0.9-0.21,1.58-0.64,2.05c-0.43,0.46-1.05,0.69-1.86,0.69c-0.17,0-0.33-0.01-0.48-0.02c-0.15-0.01-0.31-0.03-0.48-0.05v-1.24
			c0.1,0.01,0.2,0.02,0.29,0.02c0.1,0.01,0.19,0.01,0.28,0.01c0.49,0,0.84-0.12,1.05-0.37c0.22-0.25,0.32-0.64,0.32-1.18v-3.09
			c0-0.49,0.06-0.99,0.2-1.49c0.13-0.5,0.31-0.91,0.55-1.21h-1.83v-1.24H46.89z"/>
		<path d="M54.26,61.42V57.2h-1.79v-1.24h3.34v5.45H54.26z"/>
		<path d="M61.98,65.91c-0.47,0-0.99-0.05-1.55-0.14c-0.56-0.09-1.11-0.23-1.64-0.42l0.3-1.15c0.51,0.15,1.01,0.27,1.52,0.34
			c0.5,0.07,0.94,0.11,1.32,0.11c0.91-0.01,1.61-0.24,2.1-0.69c0.49-0.45,0.74-1.09,0.74-1.93V57.2h-3.92
			c-0.18,0.3-0.32,0.69-0.43,1.16c-0.11,0.47-0.16,0.94-0.16,1.39v0.75c0.13,0.06,0.29,0.09,0.5,0.12s0.47,0.03,0.8,0.03v1.33
			c-0.46,0-0.85-0.02-1.17-0.05s-0.61-0.09-0.86-0.17c-0.25-0.08-0.51-0.19-0.77-0.33l-0.03-1.26c0-0.56,0.07-1.11,0.21-1.64
			c0.14-0.53,0.33-0.98,0.58-1.32h-1.19v-1.24h7.98v5.78c0,0.95-0.19,1.73-0.56,2.34c-0.37,0.62-0.88,1.08-1.53,1.38
			C63.57,65.77,62.82,65.91,61.98,65.91z"/>
		<path d="M77.56,65.93c-0.81,0-1.53-0.19-2.15-0.56c-0.62-0.37-1.1-0.9-1.45-1.57c-0.35-0.68-0.52-1.46-0.54-2.36v-1
			c0-0.43,0.06-0.86,0.18-1.27c0.12-0.42,0.28-0.79,0.49-1.13c0.21-0.33,0.45-0.59,0.71-0.77c0.02-0.01,0.03-0.02,0.05-0.04
			c0.02-0.01,0.04-0.02,0.06-0.03l-0.01-0.02c-0.21,0.02-0.48,0.07-0.8,0.16c-0.32,0.08-0.64,0.17-0.95,0.25l-0.3-1.16
			c0.43-0.13,0.9-0.24,1.42-0.34c0.51-0.1,1.03-0.17,1.56-0.22c0.52-0.05,1.01-0.08,1.46-0.08c0.91,0,1.7,0.18,2.35,0.54
			c0.65,0.36,1.16,0.87,1.51,1.54c0.35,0.67,0.53,1.47,0.53,2.41v1.17c0,0.9-0.17,1.68-0.51,2.36c-0.34,0.68-0.82,1.2-1.44,1.57
			C79.12,65.74,78.39,65.93,77.56,65.93z M77.56,64.62c0.52,0,0.98-0.13,1.37-0.4c0.39-0.27,0.69-0.64,0.91-1.11
			c0.22-0.48,0.33-1.03,0.33-1.67v-1.16c0-0.66-0.11-1.24-0.33-1.71c-0.22-0.48-0.53-0.85-0.93-1.1c-0.4-0.26-0.88-0.39-1.44-0.39
			c-0.5,0-0.93,0.13-1.3,0.39c-0.37,0.26-0.66,0.64-0.86,1.13c-0.21,0.49-0.32,1.07-0.34,1.76v1.09c0,0.64,0.11,1.19,0.32,1.67
			s0.52,0.85,0.91,1.11C76.6,64.49,77.05,64.62,77.56,64.62z"/>
		<path d="M84.93,65.91c-0.29,0-0.56-0.02-0.81-0.05s-0.51-0.08-0.77-0.13l0.04-1.2c0.36,0.07,0.76,0.11,1.21,0.11
			s0.79-0.13,1.02-0.39c0.23-0.26,0.34-0.66,0.34-1.21V57.2h-1.92v-1.24h3.46v7.2c0,0.9-0.22,1.59-0.67,2.05
			C86.39,65.68,85.76,65.91,84.93,65.91z"/>
		<path d="M92.45,65.88c-0.42,0-0.85-0.04-1.32-0.11c-0.46-0.08-0.95-0.18-1.45-0.33l0.25-1.15c0.91,0.25,1.72,0.37,2.41,0.36
			c0.91-0.02,1.6-0.25,2.07-0.7c0.47-0.45,0.71-1.09,0.71-1.92V57.2h-5.09v-1.24h6.62v5.74c0,0.95-0.17,1.73-0.51,2.35
			c-0.34,0.62-0.83,1.08-1.46,1.38C94.05,65.73,93.3,65.88,92.45,65.88z"/>
	</g>
</g>
</svg>
