<?xml version="1.0" encoding="utf-8"?>
<!-- Generator: Adobe Illustrator 26.0.3, SVG Export Plug-In . SVG Version: 6.00 Build 0)  -->
<svg version="1.1" id="Layer_1" xmlns="http://www.w3.org/2000/svg" xmlns:xlink="http://www.w3.org/1999/xlink" x="0px" y="0px"
	 viewBox="0 0 149.78 122.61" style="enable-background:new 0 0 149.78 122.61;" xml:space="preserve">
<style type="text/css">
	.st0{fill:#E8B158;stroke:#000000;stroke-miterlimit:10;}
	.st1{fill:#71C7FF;}
	.st2{fill:#8BC8EA;stroke:#000000;stroke-miterlimit:10;}
	.st3{fill:#E8B158;stroke:#000000;stroke-width:0.5;stroke-miterlimit:10;}
</style>
<path class="st0" d="M45.55,105.55c-8.42-13.06-16.84-26.13-25.26-39.19c-1.39-2.16-1.39-4.93-0.01-7.09
	c8.86-13.8,17.71-27.6,26.57-41.4c0.07-0.1,0.13-0.2,0.19-0.31c1.51-2.7,4.62-7.39,10.24-11.25c4.26-2.93,8.37-4.3,11.19-4.97
	c0.48-0.12,0.97-0.18,1.47-0.18l54.38-0.68c13.02-0.16,23.7,10.26,23.86,23.28l0.92,73.85c0.16,13.02-10.26,23.7-23.28,23.86
	l-54.23,0.67c-0.56,0.01-1.12-0.05-1.66-0.19c-3.1-0.8-7.07-2.18-11.28-4.64c-6.3-3.69-10.41-8.2-12.79-11.29
	C45.76,105.86,45.65,105.71,45.55,105.55z"/>
<path class="st1" d="M34.22,304.3"/>
<line class="st2" x1="15.17" y1="62.84" x2="11.17" y2="62.88"/>
<circle class="st3" cx="4.17" cy="62.97" r="3.5"/>
<g>
	<g>
	</g>
</g>
<g>
	<g>
		<path d="M50.85,67.65v-6.13c0-0.85-0.19-1.46-0.57-1.84c-0.38-0.38-1-0.57-1.84-0.57h-3.54v-1.24h3.62c1.28,0,2.25,0.31,2.9,0.93
			c0.66,0.62,0.98,1.54,0.98,2.76v6.09H50.85z M44.91,67.65v-3.34c0-0.57,0.05-1,0.14-1.3s0.19-0.55,0.29-0.76h1.26
			c-0.07,0.25-0.12,0.53-0.15,0.83c-0.03,0.31-0.05,0.68-0.05,1.13v3.44H44.91z"/>
		<path d="M55.74,67.81c-0.29,0-0.56-0.02-0.81-0.05s-0.51-0.08-0.77-0.13l0.04-1.2c0.36,0.07,0.76,0.11,1.21,0.11
			s0.79-0.13,1.02-0.39c0.23-0.26,0.34-0.66,0.34-1.21V59.1h-1.92v-1.24h3.46v7.2c0,0.9-0.22,1.59-0.67,2.05
			C57.2,67.58,56.57,67.81,55.74,67.81z"/>
		<path d="M62.07,63.32V59.1h-1.79v-1.24h3.34v5.45H62.07z"/>
		<path d="M66.45,67.65l0.01-9.78h3.68c1.29,0,2.26,0.31,2.9,0.93c0.64,0.62,0.96,1.56,0.96,2.82v6.03h-1.54v-6.13
			c0-0.85-0.18-1.46-0.55-1.84s-0.95-0.57-1.76-0.57h-2.16l-0.01,8.54H66.45z"/>
		<path d="M75.77,67.65V66.4h5.31l1.54-0.06l1.19,0.12v1.18H75.77z M81.08,67.3v-5.79c0-0.85-0.19-1.46-0.57-1.84
			c-0.38-0.38-0.99-0.57-1.85-0.57H76.3v-1.24h2.45c1.27,0,2.24,0.31,2.89,0.93c0.65,0.62,0.98,1.54,0.98,2.76v5.74H81.08z"/>
		<path d="M93.93,57.87c1.29,0,2.26,0.31,2.9,0.93c0.64,0.62,0.96,1.56,0.96,2.82v6.03h-1.54l-0.01-6.13c0-0.85-0.18-1.46-0.54-1.84
			c-0.36-0.38-0.95-0.57-1.76-0.57h-1.39c-0.18,0.3-0.33,0.68-0.44,1.15c-0.11,0.47-0.16,0.95-0.16,1.44v3.3
			c0,0.9-0.21,1.58-0.64,2.05c-0.43,0.46-1.05,0.69-1.86,0.69c-0.17,0-0.33-0.01-0.48-0.02c-0.15-0.01-0.31-0.03-0.48-0.05v-1.24
			c0.1,0.01,0.2,0.02,0.29,0.02c0.1,0.01,0.19,0.01,0.28,0.01c0.49,0,0.84-0.12,1.05-0.37s0.32-0.64,0.32-1.18v-3.09
			c0-0.49,0.06-0.99,0.2-1.49c0.13-0.5,0.31-0.91,0.55-1.21h-1.83v-1.24H93.93z"/>
		<path d="M103.9,67.81c-0.47,0-0.99-0.05-1.55-0.14c-0.56-0.09-1.11-0.23-1.64-0.42l0.3-1.15c0.51,0.15,1.01,0.27,1.52,0.34
			c0.5,0.07,0.94,0.11,1.32,0.11c0.91-0.01,1.61-0.24,2.1-0.69s0.74-1.09,0.74-1.93V59.1h-3.92c-0.18,0.3-0.32,0.69-0.43,1.16
			c-0.11,0.47-0.16,0.94-0.16,1.39v0.75c0.13,0.06,0.29,0.09,0.5,0.12s0.47,0.03,0.8,0.03v1.33c-0.46,0-0.85-0.02-1.17-0.05
			s-0.61-0.09-0.86-0.17c-0.25-0.08-0.51-0.19-0.77-0.33l-0.03-1.26c0-0.56,0.07-1.11,0.21-1.64c0.14-0.53,0.33-0.98,0.58-1.32
			h-1.19v-1.24h7.98v5.78c0,0.95-0.19,1.73-0.56,2.34c-0.37,0.62-0.88,1.08-1.53,1.38C105.48,67.67,104.74,67.82,103.9,67.81z"/>
		<path d="M111.68,67.65V59.1h-1.14v-1.24h2.68v9.78H111.68z"/>
		<path d="M119.52,67.65v-1.21c0.82-0.03,1.48-0.29,1.98-0.77c0.5-0.49,0.75-1.16,0.75-2.02V59.1h-6.03v-1.24h7.58v5.74
			c0,0.82-0.18,1.54-0.53,2.13s-0.85,1.06-1.49,1.38C121.12,67.45,120.38,67.62,119.52,67.65z M116.4,71.1v-7.12
			c0-0.56,0.05-0.99,0.14-1.29s0.19-0.55,0.29-0.76h1.26c-0.07,0.25-0.12,0.53-0.15,0.83c-0.03,0.3-0.05,0.68-0.05,1.13v7.21H116.4z
			"/>
		<path d="M130.79,57.87c1.29,0,2.26,0.31,2.9,0.93c0.64,0.62,0.96,1.56,0.96,2.82v6.03h-1.54l-0.01-6.13
			c0-0.85-0.18-1.46-0.54-1.84c-0.36-0.38-0.95-0.57-1.76-0.57h-1.39c-0.18,0.3-0.33,0.68-0.44,1.15c-0.11,0.47-0.16,0.95-0.16,1.44
			v3.3c0,0.9-0.21,1.58-0.64,2.05c-0.43,0.46-1.05,0.69-1.86,0.69c-0.17,0-0.33-0.01-0.48-0.02c-0.15-0.01-0.31-0.03-0.48-0.05
			v-1.24c0.1,0.01,0.2,0.02,0.29,0.02c0.1,0.01,0.19,0.01,0.28,0.01c0.49,0,0.84-0.12,1.05-0.37s0.32-0.64,0.32-1.18v-3.09
			c0-0.49,0.06-0.99,0.2-1.49c0.13-0.5,0.31-0.91,0.55-1.21h-1.83v-1.24H130.79z"/>
	</g>
</g>
</svg>
