<?xml version="1.0" encoding="utf-8"?>
<!-- Generator: Adobe Illustrator 26.0.3, SVG Export Plug-In . SVG Version: 6.00 Build 0)  -->
<svg version="1.1" id="Layer_1" xmlns="http://www.w3.org/2000/svg" xmlns:xlink="http://www.w3.org/1999/xlink" x="0px" y="0px"
	 viewBox="0 0 149.78 122.61" style="enable-background:new 0 0 149.78 122.61;" xml:space="preserve">
<style type="text/css">
	.st0{fill:#8BC8EA;stroke:#000000;stroke-miterlimit:10;}
	.st1{fill:#71C7FF;}
	.st2{fill:#8BC8EA;stroke:#000000;stroke-width:0.5;stroke-miterlimit:10;}
</style>
<path class="st0" d="M104.73,17.86c8.26,13.17,16.51,26.34,24.77,39.5c1.36,2.17,1.33,4.94-0.08,7.09
	c-9.03,13.69-18.06,27.38-27.08,41.07c-0.07,0.1-0.13,0.2-0.19,0.31c-1.55,2.68-4.71,7.33-10.37,11.12
	c-4.29,2.88-8.43,4.19-11.26,4.83c-0.48,0.11-0.97,0.17-1.47,0.17l-54.39,0c-13.02,0-23.57-10.55-23.57-23.57l0-73.85
	c0-13.02,10.55-23.57,23.57-23.57l54.24,0c0.56,0,1.12,0.07,1.66,0.21C83.63,2,87.58,3.43,91.76,5.94
	c6.26,3.77,10.3,8.32,12.65,11.45C104.52,17.55,104.63,17.7,104.73,17.86z"/>
<path class="st1" d="M34.22,304.3"/>
<line class="st0" x1="134.58" y1="60.95" x2="138.58" y2="60.95"/>
<circle class="st2" cx="145.58" cy="60.95" r="3.5"/>
<g>
	<g>
		<path d="M14.25,66.39v-9.78h7.8v9.78H14.25z M15.79,65.15h4.73v-7.3h-4.73V65.15z"/>
		<path d="M27,66.54c-0.42,0-0.85-0.04-1.32-0.11c-0.46-0.08-0.95-0.18-1.45-0.33l0.25-1.15c0.91,0.25,1.72,0.37,2.41,0.36
			c0.91-0.02,1.6-0.25,2.07-0.7s0.71-1.09,0.71-1.92v-4.83h-5.09v-1.24h6.62v5.74c0,0.95-0.17,1.73-0.51,2.35s-0.83,1.08-1.46,1.38
			C28.6,66.39,27.85,66.54,27,66.54z"/>
		<path d="M38.24,66.58c-0.81,0-1.53-0.19-2.15-0.56c-0.62-0.37-1.1-0.9-1.45-1.57c-0.35-0.68-0.52-1.46-0.54-2.36v-1
			c0-0.43,0.06-0.86,0.18-1.27c0.12-0.42,0.28-0.79,0.49-1.13c0.21-0.33,0.45-0.59,0.71-0.77c0.02-0.01,0.03-0.02,0.05-0.04
			c0.02-0.01,0.04-0.02,0.06-0.03l-0.01-0.02c-0.21,0.02-0.48,0.07-0.8,0.16c-0.32,0.08-0.64,0.17-0.95,0.25l-0.3-1.16
			c0.43-0.13,0.9-0.24,1.42-0.34c0.51-0.1,1.03-0.17,1.56-0.22c0.52-0.05,1.01-0.08,1.46-0.08c0.91,0,1.7,0.18,2.35,0.54
			c0.65,0.36,1.16,0.87,1.51,1.54c0.35,0.67,0.53,1.47,0.53,2.41v1.17c0,0.9-0.17,1.68-0.51,2.36c-0.34,0.68-0.82,1.2-1.44,1.57
			C39.8,66.39,39.07,66.58,38.24,66.58z M38.24,65.27c0.52,0,0.98-0.13,1.37-0.4c0.39-0.27,0.69-0.64,0.91-1.11
			c0.22-0.48,0.33-1.03,0.33-1.67v-1.16c0-0.66-0.11-1.24-0.33-1.71c-0.22-0.48-0.53-0.85-0.93-1.1c-0.4-0.26-0.88-0.39-1.44-0.39
			c-0.5,0-0.93,0.13-1.3,0.39c-0.37,0.26-0.66,0.64-0.86,1.13c-0.21,0.49-0.32,1.07-0.34,1.76v1.09c0,0.64,0.11,1.19,0.32,1.67
			c0.22,0.48,0.52,0.85,0.91,1.11C37.28,65.14,37.73,65.27,38.24,65.27z"/>
		<path d="M44.95,66.39l0.75-6.22c0.06-0.46,0.19-0.89,0.39-1.29s0.43-0.71,0.71-0.92c0.03-0.02,0.06-0.04,0.09-0.06
			c0.03-0.02,0.06-0.04,0.08-0.05l-0.02-0.02c-0.24,0.04-0.55,0.11-0.93,0.2c-0.37,0.1-0.72,0.2-1.03,0.31l-0.36-1.16
			c0.43-0.15,0.89-0.28,1.39-0.39c0.5-0.11,1.01-0.2,1.52-0.26c0.51-0.06,1-0.1,1.44-0.1c1.32,0,2.32,0.35,3.02,1.05
			c0.69,0.7,1.04,1.73,1.05,3.08v5.83h-4.03v-1.24h2.49v-4.76c0-0.87-0.2-1.54-0.59-1.99c-0.4-0.45-0.96-0.68-1.71-0.68
			c-0.54,0-0.98,0.21-1.34,0.62c-0.36,0.41-0.58,0.97-0.66,1.68l-0.74,6.37H44.95z"/>
		<path d="M60.4,69.85V57.85h-1.15v-1.24h2.67v13.23H60.4z"/>
		<path d="M65.39,66.39v-8.54h-1.14v-1.24h2.68v9.78H65.39z"/>
		<path d="M70.68,62.07v-4.22h-1.79v-1.24h3.34v5.45H70.68z"/>
		<path d="M74.98,66.39l0.75-6.22c0.06-0.46,0.19-0.89,0.39-1.29s0.43-0.71,0.71-0.92c0.03-0.02,0.06-0.04,0.09-0.06
			c0.03-0.02,0.06-0.04,0.08-0.05l-0.02-0.02c-0.24,0.04-0.55,0.11-0.93,0.2c-0.37,0.1-0.72,0.2-1.03,0.31l-0.36-1.16
			c0.43-0.15,0.89-0.28,1.39-0.39c0.5-0.11,1.01-0.2,1.52-0.26c0.51-0.06,1-0.1,1.44-0.1c1.32,0,2.32,0.35,3.02,1.05
			c0.69,0.7,1.04,1.73,1.05,3.08v5.83h-4.03v-1.24h2.49v-4.76c0-0.87-0.2-1.54-0.59-1.99c-0.39-0.45-0.96-0.68-1.71-0.68
			c-0.54,0-0.98,0.21-1.34,0.62c-0.36,0.41-0.58,0.97-0.66,1.68l-0.74,6.37H74.98z"/>
		<path d="M94.11,66.58c-0.81,0-1.53-0.19-2.15-0.56c-0.62-0.37-1.1-0.9-1.45-1.57c-0.35-0.68-0.52-1.46-0.54-2.36v-1
			c0-0.43,0.06-0.86,0.18-1.27c0.12-0.42,0.28-0.79,0.49-1.13c0.21-0.33,0.45-0.59,0.71-0.77c0.02-0.01,0.04-0.02,0.05-0.04
			c0.02-0.01,0.04-0.02,0.06-0.03l-0.01-0.02c-0.21,0.02-0.48,0.07-0.8,0.16c-0.32,0.08-0.64,0.17-0.95,0.25l-0.3-1.16
			c0.43-0.13,0.9-0.24,1.42-0.34c0.51-0.1,1.03-0.17,1.56-0.22c0.52-0.05,1.01-0.08,1.46-0.08c0.91,0,1.7,0.18,2.35,0.54
			c0.65,0.36,1.16,0.87,1.51,1.54c0.35,0.67,0.53,1.47,0.53,2.41v1.17c0,0.9-0.17,1.68-0.51,2.36c-0.34,0.68-0.82,1.2-1.44,1.57
			C95.66,66.39,94.94,66.58,94.11,66.58z M94.11,65.27c0.52,0,0.98-0.13,1.37-0.4c0.39-0.27,0.69-0.64,0.91-1.11
			c0.22-0.48,0.33-1.03,0.33-1.67v-1.16c0-0.66-0.11-1.24-0.33-1.71c-0.22-0.48-0.53-0.85-0.93-1.1c-0.4-0.26-0.88-0.39-1.44-0.39
			c-0.5,0-0.93,0.13-1.3,0.39c-0.37,0.26-0.66,0.64-0.86,1.13c-0.21,0.49-0.32,1.07-0.34,1.76v1.09c0,0.64,0.11,1.19,0.32,1.67
			c0.21,0.48,0.52,0.85,0.91,1.11C93.14,65.14,93.59,65.27,94.11,65.27z"/>
		<path d="M101.48,66.56c-0.29,0-0.56-0.02-0.81-0.05c-0.25-0.03-0.51-0.08-0.77-0.13l0.04-1.2c0.36,0.07,0.76,0.11,1.21,0.11
			c0.45,0,0.79-0.13,1.02-0.39c0.23-0.26,0.34-0.66,0.34-1.21v-5.84h-1.92v-1.24h3.46v7.2c0,0.9-0.22,1.59-0.67,2.05
			S102.3,66.56,101.48,66.56z"/>
		<path d="M108.99,66.54c-0.42,0-0.85-0.04-1.32-0.11c-0.46-0.08-0.95-0.18-1.45-0.33l0.25-1.15c0.91,0.25,1.71,0.37,2.41,0.36
			c0.91-0.02,1.6-0.25,2.07-0.7s0.71-1.09,0.71-1.92v-4.83h-5.09v-1.24h6.62v5.74c0,0.95-0.17,1.73-0.51,2.35s-0.83,1.08-1.46,1.38
			C110.59,66.39,109.85,66.54,108.99,66.54z"/>
	</g>
</g>
</svg>
