<?xml version="1.0" encoding="utf-8"?>
<!-- Generator: Adobe Illustrator 26.0.3, SVG Export Plug-In . SVG Version: 6.00 Build 0)  -->
<svg version="1.1" id="Layer_1" xmlns="http://www.w3.org/2000/svg" xmlns:xlink="http://www.w3.org/1999/xlink" x="0px" y="0px"
	 viewBox="0 0 149.78 122.61" style="enable-background:new 0 0 149.78 122.61;" xml:space="preserve">
<style type="text/css">
	.st0{fill:#E8B158;stroke:#000000;stroke-miterlimit:10;}
	.st1{fill:#71C7FF;}
	.st2{fill:#8BC8EA;stroke:#000000;stroke-miterlimit:10;}
	.st3{fill:#E8B158;stroke:#000000;stroke-width:0.5;stroke-miterlimit:10;}
</style>
<path class="st0" d="M45.55,105.55c-8.42-13.06-16.84-26.13-25.26-39.19c-1.39-2.16-1.39-4.93-0.01-7.09
	c8.86-13.8,17.71-27.6,26.57-41.4c0.07-0.1,0.13-0.2,0.19-0.31c1.51-2.7,4.62-7.39,10.24-11.25c4.26-2.93,8.37-4.3,11.19-4.97
	c0.48-0.12,0.97-0.18,1.47-0.18l54.38-0.68c13.02-0.16,23.7,10.26,23.86,23.28l0.92,73.85c0.16,13.02-10.26,23.7-23.28,23.86
	l-54.23,0.67c-0.56,0.01-1.12-0.05-1.66-0.19c-3.1-0.8-7.07-2.18-11.28-4.64c-6.3-3.69-10.41-8.2-12.79-11.29
	C45.76,105.86,45.65,105.71,45.55,105.55z"/>
<path class="st1" d="M34.22,304.3"/>
<line class="st2" x1="15.17" y1="62.84" x2="11.17" y2="62.88"/>
<circle class="st3" cx="4.17" cy="62.97" r="3.5"/>
<g>
	<g>
	</g>
</g>
<g>
	<g>
		<path d="M27.87,59.02h6.91v1.09h-1.44v7.54h-1.36v-7.54h-4.1V59.02z"/>
		<path d="M37.23,63.83v-3.72h-1.58v-1.09h2.94v4.81H37.23z"/>
		<path d="M44,67.65v-1.07c0.72-0.02,1.3-0.25,1.75-0.68s0.66-1.02,0.66-1.78v-4.01h-5.32v-1.09h6.69v5.07
			c0,0.73-0.16,1.35-0.47,1.88s-0.75,0.93-1.32,1.22C45.42,67.47,44.75,67.63,44,67.65z M41.25,70.69v-6.28
			c0-0.49,0.04-0.87,0.12-1.14s0.17-0.49,0.26-0.67h1.11c-0.06,0.22-0.11,0.46-0.14,0.73s-0.04,0.6-0.04,1v6.36H41.25z"/>
		<path d="M53.36,67.79c-0.42,0-0.87-0.04-1.37-0.12c-0.5-0.08-0.98-0.21-1.45-0.37l0.26-1.02c0.45,0.14,0.89,0.24,1.34,0.3
			s0.83,0.1,1.16,0.1c0.8-0.01,1.42-0.21,1.85-0.61s0.65-0.96,0.65-1.7v-4.26h-3.46c-0.16,0.27-0.28,0.61-0.38,1.03
			c-0.1,0.42-0.14,0.83-0.14,1.23v0.66c0.11,0.05,0.26,0.08,0.44,0.1s0.42,0.03,0.7,0.03v1.17c-0.41,0-0.75-0.01-1.03-0.04
			s-0.54-0.08-0.76-0.15c-0.22-0.07-0.45-0.17-0.68-0.29l-0.03-1.11c0-0.49,0.06-0.98,0.19-1.45c0.12-0.47,0.29-0.86,0.51-1.17
			h-1.05v-1.09h7.04v5.1c0,0.83-0.16,1.52-0.49,2.07s-0.78,0.95-1.35,1.22C54.76,67.67,54.11,67.8,53.36,67.79z"/>
		<path d="M63.35,59.02c1.14,0,2,0.27,2.56,0.82c0.56,0.54,0.85,1.37,0.85,2.49v5.32H65.4l-0.01-5.41c0-0.75-0.16-1.29-0.48-1.63
			s-0.84-0.51-1.55-0.51h-1.22c-0.16,0.26-0.29,0.6-0.38,1.01c-0.1,0.41-0.14,0.84-0.14,1.27v2.91c0,0.8-0.19,1.4-0.57,1.81
			s-0.92,0.61-1.64,0.61c-0.15,0-0.29-0.01-0.42-0.02c-0.13-0.01-0.27-0.03-0.42-0.05v-1.09c0.09,0.01,0.17,0.02,0.26,0.02
			c0.08,0,0.17,0.01,0.25,0.01c0.43,0,0.74-0.11,0.93-0.33s0.29-0.57,0.29-1.04V62.5c0-0.43,0.06-0.87,0.17-1.32s0.28-0.8,0.49-1.07
			h-1.62v-1.09H63.35z"/>
		<path d="M68.31,67.65v-1.1H73l1.35-0.05l1.05,0.11v1.04H68.31z M73,67.34v-5.1c0-0.75-0.17-1.29-0.5-1.62
			c-0.33-0.33-0.88-0.5-1.63-0.5h-2.09v-1.09h2.16c1.12,0,1.97,0.27,2.55,0.82c0.58,0.54,0.86,1.36,0.86,2.44v5.07H73z"/>
		<path d="M81.14,70.69V60.11h-1.02v-1.09h2.36v11.67H81.14z"/>
		<path d="M85.06,67.65l0.66-5.49c0.05-0.41,0.17-0.78,0.34-1.14s0.38-0.62,0.62-0.81c0.02-0.02,0.05-0.04,0.08-0.06
			c0.03-0.02,0.05-0.03,0.07-0.05l-0.01-0.02c-0.21,0.03-0.49,0.09-0.82,0.18c-0.33,0.09-0.63,0.18-0.91,0.27l-0.31-1.03
			c0.38-0.13,0.78-0.25,1.23-0.34s0.89-0.17,1.34-0.23c0.45-0.06,0.88-0.08,1.27-0.08c1.16,0,2.05,0.31,2.66,0.93
			c0.61,0.62,0.92,1.52,0.93,2.72v5.14h-3.55v-1.09h2.2v-4.2c0-0.77-0.17-1.36-0.52-1.75c-0.35-0.4-0.85-0.6-1.51-0.6
			c-0.47,0-0.87,0.18-1.19,0.55s-0.51,0.86-0.59,1.48l-0.65,5.62H85.06z"/>
		<path d="M95.65,67.65l-1.17-7.48l-0.61-0.1v-1.05h4.19l-0.01,1.09h-2.23l1.22,7.54H95.65z"/>
		<path d="M107.19,59.02c1.14,0,2,0.27,2.56,0.82c0.56,0.54,0.85,1.37,0.85,2.49v5.32h-1.35l-0.01-5.41c0-0.75-0.16-1.29-0.48-1.63
			s-0.84-0.51-1.55-0.51h-1.22c-0.16,0.26-0.29,0.6-0.38,1.01c-0.1,0.41-0.14,0.84-0.14,1.27v2.91c0,0.8-0.19,1.4-0.57,1.81
			s-0.92,0.61-1.64,0.61c-0.15,0-0.29-0.01-0.42-0.02c-0.13-0.01-0.27-0.03-0.42-0.05v-1.09c0.09,0.01,0.17,0.02,0.26,0.02
			c0.08,0,0.17,0.01,0.25,0.01c0.43,0,0.74-0.11,0.93-0.33s0.29-0.57,0.29-1.04V62.5c0-0.43,0.06-0.87,0.17-1.32s0.28-0.8,0.49-1.07
			h-1.62v-1.09H107.19z"/>
		<path d="M115.98,67.79c-0.42,0-0.87-0.04-1.37-0.12c-0.5-0.08-0.98-0.21-1.45-0.37l0.26-1.02c0.45,0.14,0.89,0.24,1.34,0.3
			s0.83,0.1,1.16,0.1c0.8-0.01,1.42-0.21,1.85-0.61s0.65-0.96,0.65-1.7v-4.26h-3.46c-0.16,0.27-0.28,0.61-0.38,1.03
			c-0.1,0.42-0.14,0.83-0.14,1.23v0.66c0.11,0.05,0.26,0.08,0.44,0.1s0.42,0.03,0.7,0.03v1.17c-0.41,0-0.75-0.01-1.03-0.04
			s-0.54-0.08-0.76-0.15c-0.22-0.07-0.45-0.17-0.68-0.29l-0.03-1.11c0-0.49,0.06-0.98,0.19-1.45c0.12-0.47,0.29-0.86,0.51-1.17
			h-1.05v-1.09h7.04v5.1c0,0.83-0.16,1.52-0.49,2.07s-0.78,0.95-1.35,1.22C117.38,67.67,116.72,67.8,115.98,67.79z"/>
		<path d="M122.85,67.65v-7.54h-1v-1.09h2.37v8.63H122.85z"/>
		<path d="M129.76,67.65v-1.07c0.72-0.02,1.3-0.25,1.75-0.68s0.66-1.02,0.66-1.78v-4.01h-5.32v-1.09h6.69v5.07
			c0,0.73-0.16,1.35-0.47,1.88s-0.75,0.93-1.32,1.22C131.18,67.47,130.52,67.63,129.76,67.65z M127.02,70.69v-6.28
			c0-0.49,0.04-0.87,0.12-1.14s0.17-0.49,0.26-0.67h1.11c-0.06,0.22-0.11,0.46-0.14,0.73s-0.04,0.6-0.04,1v6.36H127.02z"/>
		<path d="M139.71,59.02c1.14,0,2,0.27,2.56,0.82c0.56,0.54,0.85,1.37,0.85,2.49v5.32h-1.35l-0.01-5.41c0-0.75-0.16-1.29-0.48-1.63
			s-0.84-0.51-1.55-0.51h-1.22c-0.16,0.26-0.29,0.6-0.38,1.01c-0.1,0.41-0.14,0.84-0.14,1.27v2.91c0,0.8-0.19,1.4-0.57,1.81
			s-0.92,0.61-1.64,0.61c-0.15,0-0.29-0.01-0.42-0.02c-0.13-0.01-0.27-0.03-0.42-0.05v-1.09c0.09,0.01,0.17,0.02,0.26,0.02
			c0.08,0,0.17,0.01,0.25,0.01c0.43,0,0.74-0.11,0.93-0.33s0.29-0.57,0.29-1.04V62.5c0-0.43,0.06-0.87,0.17-1.32s0.28-0.8,0.49-1.07
			h-1.62v-1.09H139.71z"/>
	</g>
</g>
</svg>
