<?xml version="1.0" encoding="utf-8"?>
<!-- Generator: Adobe Illustrator 26.0.3, SVG Export Plug-In . SVG Version: 6.00 Build 0)  -->
<svg version="1.1" id="Layer_1" xmlns="http://www.w3.org/2000/svg" xmlns:xlink="http://www.w3.org/1999/xlink" x="0px" y="0px"
	 viewBox="0 0 66.57 73.52" style="enable-background:new 0 0 66.57 73.52;" xml:space="preserve">
<style type="text/css">
	.st0{fill:#71C7FF;}
	.st1{fill:#E8B158;stroke:#000000;stroke-width:0.5;stroke-miterlimit:10;}
	.st2{fill:none;stroke:#E8C591;stroke-width:4;stroke-miterlimit:10;}
</style>
<path class="st0" d="M-14.48,279.78"/>
<g>
	<g>
	</g>
</g>
<path class="st1" d="M38.43,15.34l23.02,13.52c6.36,3.74,6.29,12.96-0.13,16.6L38.1,58.64L14.88,71.82
	c-6.42,3.64-14.37-1.03-14.32-8.41l0.2-26.7l0.2-26.7C1.03,2.63,9.05-1.92,15.42,1.82L38.43,15.34z"/>
<path class="st2" d="M17.02,7.71c0,0-11.59-1.98-11.39,8.59s0.12,17.63,0.12,17.63"/>
<g>
	<g>
		<path d="M18.38,41.61v-7.22c0-0.56-0.17-1.01-0.5-1.33s-0.78-0.49-1.36-0.49h-3.48v-1.31h3.53c1.07,0,1.91,0.29,2.52,0.86
			c0.61,0.57,0.91,1.37,0.91,2.4v7.1H18.38z"/>
		<path d="M23.43,41.61v-9.04h-1.2v-1.31h2.84v10.35H23.43z"/>
		<path d="M29.46,41.61l-1.41-8.97l-0.73-0.12v-1.26h5.03l-0.01,1.31h-2.67l1.47,9.04H29.46z"/>
		<path d="M34.61,41.61l0.01-10.35h3.89c1.37,0,2.39,0.33,3.07,0.98c0.67,0.65,1.01,1.65,1.02,2.98v6.39h-1.63v-6.49
			c0-0.9-0.19-1.55-0.58-1.95s-1.01-0.61-1.86-0.61h-2.29l-0.01,9.04H34.61z"/>
	</g>
</g>
</svg>
