<?xml version="1.0" encoding="utf-8"?>
<!-- Generator: Adobe Illustrator 26.0.3, SVG Export Plug-In . SVG Version: 6.00 Build 0)  -->
<svg version="1.1" id="Layer_1" xmlns="http://www.w3.org/2000/svg" xmlns:xlink="http://www.w3.org/1999/xlink" x="0px" y="0px"
	 viewBox="0 0 496 420" style="enable-background:new 0 0 496 420;" xml:space="preserve">
<style type="text/css">
	.st0{fill:#69C1ED;}
	.st1{fill:#EAB66A;}
	.st2{fill:#E5AB5E;}
	.st3{fill:#55B8E0;}
	.st4{fill:#496B41;stroke:#000000;stroke-miterlimit:10;}
	.st5{fill:#56754E;}
	.st6{stroke:#6D8267;stroke-width:4;stroke-miterlimit:10;}
	.st7{fill:#DB9E56;}
</style>
<path class="st0" d="M-1697.5,1149.5c-14.81-139.49,12.78-251.73,65-289c15.43-11.01,42.72-30.49,76-27
	c31.28,3.28,39.13,23.84,59,20c29.71-5.74,23.5-53.89,68-103c24.05-26.54,70.03-61.21,102-49c13.57,5.18,19.85,16.99,39,19
	c17.52,1.84,31.63-6.01,37-9c37.88-21.08,47.73-76.64,85-162c30.36-69.54,48.87-90.04,72-96c4.02-1.04,22.33-5.28,41,3
	c23.8,10.55,33.92,35.11,38,45c221.95,538.39,87,696,87,696C-1069.16,1361.78-1423.69,1384.48-1697.5,1149.5z"/>
<path class="st1" d="M-2404,53c36.79,76.11-5.93,203.34-57,217c-20.34,5.44-38.06-8.2-83,0c-18.34,3.34-39.71,7.24-59,22
	c-39.11,29.91-21.08,67.26-56,93c-38.12,28.1-98.48,12.25-103,11c-23.94-6.6-24.62-14.26-37-13c-42.26,4.3-43.27,94.35-89,110
	c-40.36,13.81-91.68-38.5-96-43c-84.76-88.27-80.93-301.48,29-419C-2800.46-134.2-2467.04-77.39-2404,53z"/>
<path class="st2" d="M-2439.93-8.63c36.79,76.11-5.93,203.34-57,217c-20.34,5.44-38.06-8.2-83,0c-18.34,3.34-39.71,7.24-59,22
	c-39.11,29.91-21.08,67.26-56,93c-38.12,28.1-98.48,12.25-103,11c-23.94-6.6-24.62-14.26-37-13c-42.26,4.3-43.27,94.35-89,110
	c-40.36,13.81-91.68-38.5-96-43c-84.76-88.27-80.93-301.48,29-419C-2836.39-195.83-2502.97-139.02-2439.93-8.63z"/>
<path class="st3" d="M-1659.35,1223.95c-14.81-139.49,12.78-251.73,65-289c15.43-11.01,42.72-30.49,76-27
	c31.28,3.28,39.13,23.84,59,20c29.71-5.74,23.5-53.89,68-103c24.05-26.54,70.03-61.21,102-49c13.57,5.18,19.85,16.99,39,19
	c17.52,1.84,31.63-6.01,37-9c37.88-21.08,47.73-76.64,85-162c30.36-69.54,48.87-90.04,72-96c4.02-1.04,22.33-5.28,41,3
	c23.8,10.55,33.92,35.11,38,45c221.95,538.39,87,696,87,696C-1031.02,1436.23-1385.55,1458.93-1659.35,1223.95z"/>
<path class="st4" d="M17.5,479.5"/>
<path class="st5" d="M-82.49,478.83c-1.44-1.29-25.72,24.16-37.51,37.03c-12.45,13.59-20.49,23.52-42.2,50.32
	c-25.36,31.32-38.05,46.98-38.45,47.47c-38.58,47.36-44.71,51.58-75.02,89.25c-21,26.09-49.06,62.57-47.83,63.61
	c1.9,1.6,72.8-81.54,89.09-100.64C-172.33,593.07-79.55,481.44-82.49,478.83z"/>
<path class="st5" d="M-173.45,593.29c3.03,9.6,53.43,5.31,96.19-16.64c28.71-14.74,58.56-39.79,54.96-47.85
	c-4.16-9.33-52.75,4.95-87.35,20.81C-132.58,560.1-176.46,583.73-173.45,593.29z"/>
<path class="st4" d="M-2115.5,642.5"/>
<path class="st5" d="M-227.48,660.12c3.02,8.44,53.3,4.67,95.96-14.63c28.64-12.95,58.42-34.98,54.84-42.06
	c-4.15-8.2-52.63,4.35-87.15,18.29C-186.71,630.96-230.49,651.72-227.48,660.12z"/>
<path class="st5" d="M-178.62,590.04c10.44,2.1,18.27-30.35,6.4-65.41c-7.97-23.54-26.1-52.01-35.12-53.14
	c-10.44-1.3-7.74,34.15-0.06,61.74C-202.31,551.51-189.02,587.94-178.62,590.04z"/>
<path class="st5" d="M-285.35,717.6c3.48,7.56,61.48,4.18,110.68-13.12c33.03-11.61,67.38-31.36,63.24-37.71
	c-4.78-7.35-60.7,3.9-100.51,16.39C-238.33,691.45-288.82,710.07-285.35,717.6z"/>
<path class="st5" d="M-231.63,655.81c10.88,1.69,16.64-30.61,1.95-64.77c-9.86-22.93-30.51-50.37-39.86-51.15
	c-10.82-0.91-5.54,33.98,4.31,60.92C-258.71,618.66-242.47,654.12-231.63,655.81z"/>
<path class="st5" d="M-289.09,717.81c9.9,2.46,18.83-28.36,9.02-62.52c-6.59-22.93-22.68-51.04-31.27-52.5
	c-9.94-1.7-8.92,32.46-2.78,59.27C-310.07,679.82-298.95,715.36-289.09,717.81z"/>
<path class="st5" d="M-143.37,539.82c7.08,3.87,21.11-18.85,21.43-47.85c0.21-19.47-5.72-44.88-12.01-47.7
	c-7.28-3.27-14.4,24.02-15.86,46.48C-150.79,505.62-150.42,535.97-143.37,539.82z"/>
<path class="st6" d="M-132,577c24.67-10.67,49.33-21.33,74-32"/>
<path class="st6" d="M-188.83,649.07c24.67-10.67,49.33-21.33,74-32"/>
<path class="st6" d="M-240.77,706.67c25.3-9.07,50.59-18.15,75.89-27.22"/>
<path class="st6" d="M-286.01,694.9c-7.37-24.7-14.75-49.41-22.12-74.11"/>
<path class="st6" d="M-231.83,633.27c-10.67-23.47-21.33-46.94-32-70.41"/>
<path class="st6" d="M-177.79,567.59c-8.52-24.33-17.04-48.67-25.56-73"/>
<path class="st6" d="M-139.94,519.73c1.31-19.91,2.63-39.82,3.94-59.73"/>
<path class="st0" d="M496,82.5c0,112.33,0,224.67,0,337H166c-55,0-110,0-165,0c-0.48-4.99-0.97-11.84-1-20
	c-0.05-16.09,1.77-28.14,5-47c5.34-31.16,8.01-46.74,10-53c4.54-14.26,9.99-30.8,24-47c9.76-11.28,19.23-22.23,33-22
	c19.27,0.32,31.11,22.3,32,24c2.67,4.46,7.35,11.04,15,17c4.6,3.58,6.89,5.37,9,5c7.48-1.32,6.56-24.68,11-50
	c2.84-16.18,10.01-57.04,39-83c12.2-10.92,25.02-16.3,33-19c22.52,3.25,35.86,11.62,44,19c13.04,11.82,18.66,26.6,31,27
	c6.63,0.22,12.22-3.6,16-7c5.39-24.29,12.2-45.36,19-63c17.65-45.77,34.82-90.3,70-99c12.71-3.14,24.5-0.8,33,2
	c9.01,7.19,18.45,15.47,28,25C470.77,47.23,485.12,65.95,496,82.5z"/>
<path class="st2" d="M208,118.5"/>
<path class="st3" d="M496,150.38c0,89.71,0,179.41,0,269.12H179.31c-52.78,0-105.56,0-158.35,0c-0.46-3.98-0.93-9.46-0.96-15.97
	c-0.05-12.85,1.7-22.47,4.8-37.53c5.12-24.88,7.68-37.32,9.6-42.32c4.36-11.38,9.59-24.6,23.03-37.53
	c9.36-9.01,18.46-17.75,31.67-17.57c18.5,0.26,29.86,17.81,30.71,19.17c2.57,3.56,7.05,8.82,14.4,13.58
	c4.41,2.86,6.62,4.29,8.64,3.99c7.18-1.05,6.29-19.71,10.56-39.93c2.73-12.92,9.61-45.55,37.43-66.28
	c11.71-8.72,24.01-13.02,31.67-15.17c21.61,2.59,34.41,9.28,42.23,15.17c12.52,9.44,17.9,21.24,29.75,21.56
	c6.36,0.17,11.73-2.88,15.35-5.59c5.17-19.4,11.7-36.22,18.23-50.31c16.94-36.55,33.42-72.11,67.18-79.06
	c12.19-2.51,23.51-0.64,31.67,1.6c8.64,5.74,17.71,12.36,26.87,19.96C471.79,122.22,485.56,137.17,496,150.38z"/>
<path class="st2" d="M516,338c0-112.33,0-224.67,0-337l330,0c55,0,110,0,165,0c0.48,4.99,0.97,11.84,1,20
	c0.05,16.09-1.77,28.14-5,47c-5.34,31.16-8.01,46.74-10,53c-4.54,14.26-9.99,30.8-24,47c-9.76,11.28-19.23,22.23-33,22
	c-19.27-0.32-31.11-22.3-32-24c-2.67-4.46-7.35-11.04-15-17c-4.6-3.58-6.89-5.37-9-5c-7.48,1.32-6.56,24.68-11,50
	c-2.84,16.18-10.01,57.04-39,83c-12.2,10.92-25.02,16.3-33,19c-22.52-3.25-35.86-11.62-44-19c-13.04-11.82-18.66-26.6-31-27
	c-6.63-0.22-12.22,3.6-16,7c-5.39,24.29-12.2,45.36-19,63c-17.65,45.77-34.82,90.3-70,99c-12.71,3.14-24.5,0.8-33-2
	c-9.01-7.19-18.45-15.47-28-25C541.23,373.27,526.88,354.55,516,338z"/>
<path class="st2" d="M804,302"/>
<path class="st7" d="M516,270.12c0-89.71,0-179.41,0-269.12l316.69,0c52.78,0,105.56,0,158.35,0c0.46,3.98,0.93,9.46,0.96,15.97
	c0.05,12.85-1.7,22.47-4.8,37.53c-5.12,24.88-7.68,37.32-9.6,42.32c-4.36,11.38-9.59,24.6-23.03,37.53
	c-9.36,9.01-18.46,17.75-31.67,17.57c-18.5-0.26-29.86-17.81-30.71-19.17c-2.57-3.56-7.05-8.82-14.4-13.58
	c-4.41-2.86-6.62-4.29-8.64-3.99c-7.18,1.05-6.29,19.71-10.56,39.93c-2.73,12.92-9.61,45.55-37.43,66.28
	c-11.71,8.72-24.01,13.02-31.67,15.17c-21.61-2.59-34.41-9.28-42.23-15.17c-12.52-9.44-17.9-21.24-29.75-21.56
	c-6.36-0.17-11.73,2.88-15.35,5.59c-5.17,19.4-11.7,36.22-18.23,50.31c-16.94,36.55-33.42,72.11-67.18,79.06
	c-12.19,2.51-23.51,0.64-31.67-1.6c-8.64-5.74-17.71-12.36-26.87-19.96C540.21,298.28,526.44,283.33,516,270.12z"/>
</svg>
