<?xml version="1.0" encoding="utf-8"?>
<!-- Generator: Adobe Illustrator 26.0.3, SVG Export Plug-In . SVG Version: 6.00 Build 0)  -->
<svg version="1.1" id="Layer_1" xmlns="http://www.w3.org/2000/svg" xmlns:xlink="http://www.w3.org/1999/xlink" x="0px" y="0px"
	 viewBox="0 0 300 200" style="enable-background:new 0 0 300 200;" xml:space="preserve">
<style type="text/css">
	.st0{fill:#71C7FF;stroke:#000000;stroke-miterlimit:10;}
	.st1{fill:#71C7FF;stroke:#99DBFF;stroke-width:3;stroke-miterlimit:10;}
</style>
<path class="st0" d="M252.96,149.35H56.52c-9.58,0-17.35-7.77-17.35-17.35V97.04c0-9.58,7.77-17.35,17.35-17.35h196.43
	c9.58,0,17.35,7.77,17.35,17.35V132C270.3,141.58,262.54,149.35,252.96,149.35z"/>
<path class="st1" d="M47.52,99.78c0.07-1.32,0.45-5.71,3.91-9.39c5.06-5.39,12.28-4.54,13.04-4.43"/>
<g>
	<g>
		<path d="M106.23,119.4v-9.63c0-0.75-0.22-1.34-0.66-1.78s-1.04-0.65-1.81-0.65h-4.64v-1.75h4.71c1.43,0,2.55,0.38,3.36,1.14
			s1.21,1.83,1.21,3.19v9.47H106.23z"/>
		<path d="M112.97,119.4v-12.06h-1.61v-1.75h3.79v13.8H112.97z"/>
		<path d="M117.97,105.59h11.05v1.75h-2.31v12.06h-2.18v-12.06h-6.56V105.59z"/>
		<path d="M131.78,119.4l1.05-8.78c0.09-0.65,0.27-1.25,0.55-1.82s0.61-1,1-1.3c0.04-0.03,0.08-0.06,0.12-0.09s0.08-0.05,0.11-0.08
			l-0.02-0.04c-0.34,0.05-0.78,0.15-1.31,0.29s-1.01,0.28-1.46,0.44l-0.5-1.64c0.6-0.21,1.26-0.39,1.96-0.55s1.42-0.28,2.15-0.37
			s1.41-0.13,2.04-0.13c1.86,0,3.28,0.49,4.26,1.48s1.47,2.44,1.48,4.35v8.23h-5.68v-1.75h3.52v-6.73c0-1.23-0.28-2.17-0.84-2.81
			s-1.36-0.96-2.41-0.96c-0.76,0-1.39,0.29-1.9,0.87s-0.82,1.37-0.94,2.37l-1.04,8.99H131.78z"/>
		<path d="M155.14,119.4v-8.66c0-1.2-0.27-2.06-0.81-2.6s-1.41-0.8-2.6-0.8h-5v-1.75h5.11c1.8,0,3.17,0.44,4.1,1.31
			s1.39,2.17,1.39,3.9v8.6H155.14z M146.75,119.4v-4.71c0-0.8,0.07-1.42,0.2-1.84s0.27-0.78,0.41-1.08h1.78
			c-0.09,0.35-0.16,0.74-0.21,1.18s-0.07,0.97-0.07,1.6v4.85H146.75z"/>
		<path d="M172.69,124.27v-16.93h-6.87v-1.75h9.01v18.68H172.69z"/>
		<path d="M179.72,119.4v-12.06h-1.61v-1.75h3.79v13.8H179.72z"/>
		<path d="M191.78,105.59c1.83,0,3.19,0.44,4.1,1.31s1.35,2.2,1.35,3.98v8.52h-2.17l-0.01-8.65c0-1.2-0.26-2.06-0.77-2.6
			s-1.34-0.81-2.48-0.81h-1.96c-0.26,0.42-0.46,0.96-0.62,1.62S189,110.3,189,111v4.65c0,1.27-0.3,2.24-0.91,2.89
			s-1.48,0.98-2.62,0.98c-0.23,0-0.46-0.01-0.67-0.03s-0.44-0.04-0.67-0.08v-1.75c0.14,0.02,0.28,0.03,0.42,0.04
			s0.27,0.01,0.39,0.01c0.69,0,1.18-0.18,1.49-0.53s0.46-0.91,0.46-1.66v-4.36c0-0.7,0.09-1.4,0.28-2.11s0.44-1.28,0.78-1.71h-2.59
			v-1.75H191.78z"/>
		<path d="M199.72,119.4v-1.76h7.5l2.17-0.08l1.68,0.18v1.66H199.72z M207.22,118.91v-8.17c0-1.2-0.27-2.06-0.8-2.6
			s-1.4-0.8-2.61-0.8h-3.34v-1.75h3.46c1.8,0,3.16,0.44,4.08,1.31s1.38,2.17,1.38,3.9v8.11H207.22z"/>
	</g>
</g>
</svg>
