<?xml version="1.0" encoding="utf-8"?>
<!-- Generator: Adobe Illustrator 26.0.3, SVG Export Plug-In . SVG Version: 6.00 Build 0)  -->
<svg version="1.1" id="Layer_1" xmlns="http://www.w3.org/2000/svg" xmlns:xlink="http://www.w3.org/1999/xlink" x="0px" y="0px"
	 viewBox="0 0 300 200" style="enable-background:new 0 0 300 200;" xml:space="preserve">
<style type="text/css">
	.st0{fill:#71C7FF;stroke:#000000;stroke-miterlimit:10;}
	.st1{fill:#71C7FF;stroke:#99DBFF;stroke-width:3;stroke-miterlimit:10;}
</style>
<path class="st0" d="M252.96,149.35H56.52c-9.58,0-17.35-7.77-17.35-17.35V97.04c0-9.58,7.77-17.35,17.35-17.35h196.43
	c9.58,0,17.35,7.77,17.35,17.35V132C270.3,141.58,262.54,149.35,252.96,149.35z"/>
<path class="st1" d="M47.52,99.78c0.07-1.32,0.45-5.71,3.91-9.39c5.06-5.39,12.28-4.54,13.04-4.43"/>
<g>
	<g>
		<path d="M106.23,119.4v-9.63c0-0.75-0.22-1.34-0.66-1.78s-1.04-0.65-1.81-0.65h-4.64v-1.75h4.71c1.43,0,2.55,0.38,3.36,1.14
			s1.21,1.83,1.21,3.19v9.47H106.23z"/>
		<path d="M112.97,119.4v-12.06h-1.61v-1.75h3.79v13.8H112.97z"/>
		<path d="M117.97,105.59h11.05v1.75h-2.31v12.06h-2.18v-12.06h-6.56V105.59z"/>
		<path d="M131.78,119.4l1.05-8.78c0.09-0.65,0.27-1.25,0.55-1.82s0.61-1,1-1.3c0.04-0.03,0.08-0.06,0.12-0.09s0.08-0.05,0.11-0.08
			l-0.02-0.04c-0.34,0.05-0.78,0.15-1.31,0.29s-1.01,0.28-1.46,0.44l-0.5-1.64c0.6-0.21,1.26-0.39,1.96-0.55s1.42-0.28,2.15-0.37
			s1.41-0.13,2.04-0.13c1.86,0,3.28,0.49,4.26,1.48s1.47,2.44,1.48,4.35v8.23h-5.68v-1.75h3.52v-6.73c0-1.23-0.28-2.17-0.84-2.81
			s-1.36-0.96-2.41-0.96c-0.76,0-1.39,0.29-1.9,0.87s-0.82,1.37-0.94,2.37l-1.04,8.99H131.78z"/>
		<path d="M145.97,107.34v-5.94h2.17v4.2h7.5v1.75H145.97z M156.46,106.96l-5.06,12.43h-2.33l5.73-13.8h1.66V106.96z"/>
		<path d="M170.25,124.27v-8.55c0-0.62-0.15-1.14-0.45-1.58l-5.84-8.54h2.45l4.09,6.26l1.12,1.62c0.23,0.34,0.4,0.7,0.51,1.1
			s0.16,0.85,0.16,1.35v8.36H170.25z M171.01,113.67l-1.35-1.75l3.49-6.33h2.45L171.01,113.67z"/>
		<path d="M178.9,119.4v-12.06h-1.61v-1.75h3.79v13.8H178.9z"/>
		<path d="M185.32,119.4l0.01-13.8h5.19c1.83,0,3.19,0.44,4.09,1.31s1.35,2.2,1.36,3.98v8.52h-2.17v-8.65c0-1.2-0.26-2.06-0.77-2.6
			s-1.34-0.81-2.48-0.81h-3.05l-0.01,12.06H185.32z"/>
		<path d="M199.77,119.4l1.05-8.78c0.09-0.65,0.27-1.25,0.55-1.82s0.61-1,1-1.3c0.04-0.03,0.08-0.06,0.12-0.09s0.08-0.05,0.11-0.08
			l-0.02-0.04c-0.34,0.05-0.78,0.15-1.31,0.29s-1.01,0.28-1.46,0.44l-0.5-1.64c0.6-0.21,1.26-0.39,1.96-0.55s1.42-0.28,2.15-0.37
			s1.41-0.13,2.04-0.13c1.86,0,3.28,0.49,4.26,1.48s1.47,2.44,1.48,4.35v8.23h-5.68v-1.75h3.52v-6.73c0-1.23-0.28-2.17-0.84-2.81
			s-1.36-0.96-2.41-0.96c-0.76,0-1.39,0.29-1.9,0.87s-0.82,1.37-0.94,2.37l-1.04,8.99H199.77z"/>
	</g>
</g>
</svg>
