<?xml version="1.0" encoding="utf-8"?>
<!-- Generator: Adobe Illustrator 26.0.3, SVG Export Plug-In . SVG Version: 6.00 Build 0)  -->
<svg version="1.1" id="Layer_1" xmlns="http://www.w3.org/2000/svg" xmlns:xlink="http://www.w3.org/1999/xlink" x="0px" y="0px"
	 viewBox="0 0 300 325" style="enable-background:new 0 0 300 325;" xml:space="preserve">
<style type="text/css">
	.st0{fill:#69C1ED;}
	.st1{fill:#EAB66A;}
	.st2{fill:#E5AB5E;}
	.st3{fill:#55B8E0;}
	.st4{fill:#496B41;stroke:#000000;stroke-miterlimit:10;}
	.st5{fill:#56754E;}
	.st6{stroke:#6D8267;stroke-width:4;stroke-miterlimit:10;}
</style>
<path class="st5" d="M237.51,36.83c-1.44-1.29-25.72,24.16-37.51,37.03c-12.45,13.59-20.49,23.52-42.2,50.32
	c-25.36,31.32-38.05,46.98-38.45,47.47C80.77,219,74.64,223.23,44.33,260.89c-21,26.08-49.06,62.57-47.83,63.61
	c1.9,1.6,72.8-81.54,89.09-100.64C147.67,151.07,240.45,39.44,237.51,36.83z"/>
<path class="st5" d="M146.55,151.29c3.03,9.6,53.43,5.31,96.19-16.64c28.71-14.74,58.56-39.79,54.96-47.85
	c-4.16-9.33-52.75,4.95-87.35,20.81C187.42,118.1,143.54,141.73,146.55,151.29z"/>
<path class="st5" d="M92.52,218.12c3.02,8.44,53.3,4.67,95.96-14.63c28.64-12.95,58.42-34.98,54.84-42.06
	c-4.15-8.2-52.63,4.35-87.15,18.29C133.29,188.96,89.51,209.72,92.52,218.12z"/>
<path class="st5" d="M141.38,148.04c10.44,2.1,18.27-30.35,6.4-65.41c-7.97-23.54-26.1-52.01-35.12-53.14
	c-10.44-1.3-7.74,34.15-0.06,61.74C117.69,109.51,130.98,145.94,141.38,148.04z"/>
<path class="st5" d="M34.65,275.6c3.48,7.56,61.48,4.18,110.68-13.12c33.03-11.61,67.38-31.36,63.24-37.71
	c-4.78-7.35-60.7,3.9-100.51,16.39C81.67,249.45,31.18,268.07,34.65,275.6z"/>
<path class="st5" d="M88.37,213.81c10.88,1.69,16.64-30.61,1.95-64.77c-9.86-22.93-30.51-50.37-39.86-51.15
	c-10.82-0.91-5.54,33.98,4.31,60.92C61.29,176.66,77.53,212.12,88.37,213.81z"/>
<path class="st5" d="M30.91,275.81c9.9,2.46,18.83-28.36,9.02-62.52c-6.59-22.93-22.68-51.04-31.27-52.5
	c-9.94-1.7-8.92,32.46-2.78,59.27C9.93,237.82,21.05,273.36,30.91,275.81z"/>
<path class="st5" d="M176.63,97.82c7.08,3.87,21.11-18.85,21.43-47.85c0.21-19.47-5.72-44.88-12.01-47.7
	c-7.28-3.27-14.4,24.02-15.86,46.48C169.21,63.62,169.58,93.97,176.63,97.82z"/>
<path class="st6" d="M188,135c24.67-10.67,49.33-21.33,74-32"/>
<path class="st6" d="M131.17,207.07c24.67-10.67,49.33-21.33,74-32"/>
<path class="st6" d="M79.23,264.67c25.3-9.07,50.59-18.15,75.89-27.22"/>
<path class="st6" d="M33.99,252.9c-7.37-24.7-14.75-49.41-22.12-74.11"/>
<path class="st6" d="M88.17,191.27c-10.67-23.47-21.33-46.94-32-70.41"/>
<path class="st6" d="M142.21,125.59c-8.52-24.33-17.04-48.67-25.56-73"/>
<path class="st6" d="M180.06,77.73c1.31-19.91,2.63-39.82,3.94-59.73"/>
</svg>
