<?xml version="1.0" encoding="utf-8"?>
<!-- Generator: Adobe Illustrator 26.0.3, SVG Export Plug-In . SVG Version: 6.00 Build 0)  -->
<svg version="1.1" id="Layer_1" xmlns="http://www.w3.org/2000/svg" xmlns:xlink="http://www.w3.org/1999/xlink" x="0px" y="0px"
	 viewBox="0 0 148.87 123.46" style="enable-background:new 0 0 148.87 123.46;" xml:space="preserve">
<style type="text/css">
	.st0{fill:#F9CB6E;stroke:#000000;stroke-miterlimit:10;}
	.st1{fill:#71C7FF;}
	.st2{fill:#71C7FF;stroke:#000000;stroke-miterlimit:10;}
	.st3{fill:#F9CB6E;stroke:#000000;stroke-width:0.5;stroke-miterlimit:10;}
</style>
<path class="st0" d="M105.41,17.89c8.26,13.17,16.51,26.34,24.77,39.5c1.36,2.17,1.33,4.94-0.08,7.09
	c-9.03,13.69-18.06,27.38-27.08,41.07c-0.07,0.1-0.13,0.2-0.19,0.31c-1.55,2.68-4.71,7.33-10.37,11.12
	c-4.29,2.88-8.43,4.19-11.26,4.83c-0.48,0.11-0.97,0.17-1.47,0.17l-54.39,0c-13.02,0-23.57-10.55-23.57-23.57V24.55
	c0-13.02,10.55-23.57,23.57-23.57l54.24,0c0.56,0,1.12,0.07,1.66,0.21c3.09,0.84,7.04,2.27,11.22,4.78
	c6.26,3.77,10.3,8.32,12.65,11.45C105.2,17.58,105.31,17.73,105.41,17.89z"/>
<path class="st1" d="M34.22,304.83"/>
<line class="st2" x1="133.5" y1="60" x2="137.5" y2="60"/>
<circle class="st3" cx="144.5" cy="60" r="3.5"/>
</svg>
