<?xml version="1.0" encoding="utf-8"?>
<!-- Generator: Adobe Illustrator 26.0.3, SVG Export Plug-In . SVG Version: 6.00 Build 0)  -->
<svg version="1.1" id="Layer_1" xmlns="http://www.w3.org/2000/svg" xmlns:xlink="http://www.w3.org/1999/xlink" x="0px" y="0px"
	 viewBox="0 0 422.02 47.37" style="enable-background:new 0 0 422.02 47.37;" xml:space="preserve">
<style type="text/css">
	.st0{fill:#71C7FF;}
	.st1{fill:#8BC8EA;stroke:#000000;stroke-width:0.25;stroke-miterlimit:10;}
	.st2{fill:none;stroke:#A6D8ED;stroke-width:0.5;stroke-miterlimit:10;}
	.st3{fill:#E8B158;stroke:#000000;stroke-miterlimit:10;}
	.st4{fill:#8BC8EA;stroke:#000000;stroke-miterlimit:10;}
	.st5{fill:#E8B158;stroke:#000000;stroke-width:0.5;stroke-miterlimit:10;}
	.st6{fill:#E8B158;stroke:#000000;stroke-width:0.25;stroke-miterlimit:10;}
	.st7{fill:#EAB871;stroke:#EAB871;stroke-width:0.5;stroke-miterlimit:10;}
	.st8{fill:#8BC8EA;stroke:#000000;stroke-width:4;stroke-miterlimit:10;}
</style>
<path class="st0" d="M186.26,283.89"/>
<path class="st1" d="M417.71,27.26H271.4c-1.81,0-3.28-1.47-3.28-3.28V4.49c0-1.81,1.47-3.28,3.28-3.28h146.31
	c1.81,0,3.28,1.47,3.28,3.28v19.48C420.99,25.79,419.52,27.26,417.71,27.26z"/>
<g>
	<g>
		<path d="M326.92,20.25c-0.43,0-0.89-0.04-1.37-0.12c-0.48-0.08-0.98-0.19-1.5-0.34l0.26-1.2c0.95,0.26,1.78,0.38,2.5,0.37
			c0.94-0.02,1.66-0.26,2.15-0.72s0.73-1.13,0.73-1.99v-5.02h-5.28V9.96h6.88v5.96c0,0.98-0.18,1.8-0.53,2.44
			c-0.36,0.64-0.86,1.12-1.51,1.43C328.58,20.1,327.81,20.25,326.92,20.25z"/>
		<path d="M335.78,7.97c0,0.34-0.06,0.71-0.18,1.09c-0.12,0.38-0.29,0.75-0.51,1.1c-0.22,0.35-0.5,0.66-0.82,0.92l-0.91-0.62
			c0.27-0.38,0.48-0.77,0.62-1.17c0.14-0.4,0.21-0.83,0.21-1.31V6.87h1.59V7.97z M338.43,7.97c0,0.34-0.06,0.71-0.18,1.09
			c-0.12,0.38-0.29,0.75-0.51,1.1c-0.22,0.35-0.5,0.66-0.82,0.92l-0.91-0.62c0.27-0.38,0.48-0.77,0.62-1.17
			c0.14-0.4,0.21-0.83,0.21-1.31V6.87h1.59V7.97z"/>
		<path d="M340.64,20.11l0.78-6.45c0.06-0.48,0.2-0.92,0.41-1.34s0.45-0.73,0.73-0.96c0.03-0.02,0.06-0.04,0.09-0.06
			c0.03-0.02,0.06-0.04,0.08-0.06l-0.02-0.03c-0.25,0.04-0.57,0.11-0.96,0.21c-0.39,0.1-0.75,0.21-1.07,0.32l-0.37-1.21
			c0.44-0.15,0.92-0.29,1.44-0.4c0.52-0.12,1.05-0.21,1.58-0.27s1.03-0.1,1.5-0.1c1.37,0,2.41,0.36,3.13,1.09
			c0.72,0.73,1.08,1.79,1.09,3.2v6.05h-4.18v-1.28h2.58v-4.95c0-0.91-0.21-1.6-0.62-2.06c-0.41-0.47-1-0.7-1.77-0.7
			c-0.56,0-1.02,0.21-1.4,0.64c-0.37,0.43-0.6,1.01-0.69,1.75l-0.77,6.61H340.64z"/>
		<path d="M352.4,20.11v-8.87h-1.18V9.96h2.78v10.15H352.4z"/>
		<path d="M360.54,20.11v-1.26c0.85-0.03,1.54-0.3,2.06-0.8c0.52-0.51,0.78-1.2,0.78-2.09v-4.71h-6.26V9.96h7.87v5.96
			c0,0.86-0.18,1.59-0.55,2.21c-0.37,0.62-0.88,1.1-1.55,1.44C362.21,19.9,361.43,20.08,360.54,20.11z M357.31,23.69V16.3
			c0-0.58,0.05-1.03,0.15-1.34c0.1-0.31,0.2-0.57,0.3-0.79h1.31c-0.08,0.26-0.13,0.55-0.16,0.86c-0.03,0.32-0.05,0.71-0.05,1.17
			v7.49H357.31z"/>
	</g>
</g>
<path class="st2" d="M273.81,12.83c0.74-0.83,2.22-2.25,4.53-3.19c2.6-1.07,4.91-0.98,6.04-0.86"/>
<path class="st1" d="M150.55,27.27H4.25c-1.81,0-3.28-1.47-3.28-3.28V4.5c0-1.81,1.47-3.28,3.28-3.28h146.31
	c1.81,0,3.28,1.47,3.28,3.28v19.48C153.84,25.8,152.37,27.27,150.55,27.27z"/>
<g>
	<g>
		<path d="M35.16,19.64v-6.37c0-0.88-0.2-1.52-0.59-1.91c-0.4-0.39-1.03-0.59-1.91-0.59h-3.68V9.49h3.76c1.33,0,2.33,0.32,3.01,0.96
			c0.68,0.64,1.02,1.6,1.02,2.87v6.33H35.16z M28.99,19.64v-3.46c0-0.59,0.05-1.04,0.15-1.35s0.2-0.57,0.3-0.79h1.31
			c-0.07,0.26-0.12,0.55-0.16,0.87c-0.03,0.32-0.05,0.71-0.05,1.18v3.57H28.99z"/>
		<path d="M40.24,19.81c-0.3,0-0.58-0.02-0.84-0.05c-0.26-0.03-0.53-0.08-0.8-0.14l0.04-1.25c0.37,0.07,0.79,0.11,1.26,0.11
			s0.82-0.13,1.06-0.4s0.36-0.69,0.36-1.25v-6.06h-1.99V9.49h3.59v7.47c0,0.94-0.23,1.65-0.69,2.13
			C41.75,19.57,41.09,19.81,40.24,19.81z"/>
		<path d="M46.51,19.64v-8.87h-1.18V9.49h2.78v10.15H46.51z"/>
		<path d="M50.79,19.64v-1.29h5.46l-6.07-8.86h1.8l3.08,4.66l3.24,4.68v0.81H50.79z M55.36,15.43l-0.99-1.28l2.57-4.65h1.8
			L55.36,15.43z"/>
		<path d="M64.29,19.64v-1.26c0.85-0.03,1.54-0.3,2.06-0.8c0.52-0.51,0.78-1.2,0.78-2.09v-4.71h-6.26V9.49h7.87v5.96
			c0,0.86-0.18,1.59-0.55,2.21c-0.37,0.62-0.88,1.1-1.55,1.44C65.96,19.44,65.18,19.62,64.29,19.64z M61.06,23.23v-7.39
			c0-0.58,0.05-1.03,0.15-1.34c0.1-0.31,0.2-0.57,0.3-0.79h1.31c-0.08,0.26-0.13,0.55-0.16,0.86c-0.03,0.32-0.05,0.71-0.05,1.17
			v7.49H61.06z"/>
		<path d="M71,10.77V6.41h1.59v3.08h5.52v1.28H71z M78.72,10.5l-3.72,9.14h-1.71l4.21-10.15h1.22V10.5z"/>
		<path d="M91.19,19.64v-6.37c0-0.88-0.2-1.52-0.59-1.91s-1.03-0.59-1.91-0.59h-3.68V9.49h3.76c1.33,0,2.33,0.32,3.01,0.96
			s1.02,1.6,1.02,2.87v6.33H91.19z M85.02,19.64v-3.46c0-0.59,0.05-1.04,0.15-1.35s0.2-0.57,0.3-0.79h1.31
			c-0.07,0.26-0.12,0.55-0.16,0.87s-0.05,0.71-0.05,1.18v3.57H85.02z"/>
		<path d="M96.27,19.81c-0.3,0-0.58-0.02-0.84-0.05c-0.26-0.03-0.53-0.08-0.8-0.14l0.04-1.25c0.37,0.07,0.79,0.11,1.26,0.11
			s0.82-0.13,1.06-0.4s0.36-0.69,0.36-1.25v-6.06h-1.99V9.49h3.59v7.47c0,0.94-0.23,1.65-0.69,2.13
			C97.79,19.57,97.13,19.81,96.27,19.81z"/>
		<path d="M104.07,19.79c-0.43,0-0.89-0.04-1.37-0.12c-0.48-0.08-0.98-0.19-1.5-0.34l0.26-1.2c0.95,0.26,1.78,0.38,2.5,0.37
			c0.94-0.02,1.66-0.26,2.15-0.72s0.73-1.13,0.73-1.99v-5.02h-5.28V9.49h6.88v5.96c0,0.98-0.18,1.8-0.53,2.44
			c-0.36,0.64-0.86,1.12-1.51,1.43C105.73,19.63,104.96,19.79,104.07,19.79z"/>
		<path d="M117.45,19.64v-6.37c0-0.88-0.2-1.52-0.59-1.91s-1.03-0.59-1.91-0.59h-3.68V9.49h3.76c1.33,0,2.33,0.32,3.01,0.96
			s1.02,1.6,1.02,2.87v6.33H117.45z M111.28,19.64v-3.46c0-0.59,0.05-1.04,0.15-1.35s0.2-0.57,0.3-0.79h1.31
			c-0.07,0.26-0.12,0.55-0.16,0.87s-0.05,0.71-0.05,1.18v3.57H111.28z"/>
	</g>
</g>
<path class="st2" d="M6.65,8.85C7.4,8.02,8.88,6.6,11.18,5.65c2.6-1.07,4.91-0.98,6.04-0.86"/>
<path class="st3" d="M1056.61,26.5c13.17-8.26,26.34-16.51,39.5-24.77c2.17-1.36,4.94-1.33,7.09,0.08
	c13.69,9.03,27.38,18.06,41.07,27.08c0.1,0.07,0.2,0.13,0.31,0.19c2.68,1.55,7.33,4.71,11.12,10.37c2.88,4.29,4.19,8.43,4.83,11.26
	c0.11,0.48,0.17,0.97,0.17,1.47v54.39c0,13.02-10.55,23.57-23.57,23.57h-73.85c-13.02,0-23.57-10.55-23.57-23.57V52.34
	c0-0.56,0.07-1.12,0.21-1.66c0.84-3.09,2.27-7.04,4.78-11.22c3.77-6.26,8.32-10.3,11.45-12.65
	C1056.3,26.71,1056.45,26.6,1056.61,26.5z"/>
<line class="st4" x1="1100.33" y1="-3.33" x2="1100.28" y2="-7.33"/>
<g>
	<g>
	</g>
</g>
<path class="st1" d="M1083.68-4.81H937.37c-1.81,0-3.28-1.47-3.28-3.28v-19.48c0-1.81,1.47-3.28,3.28-3.28h146.31
	c1.81,0,3.28,1.47,3.28,3.28v19.48C1086.96-6.28,1085.49-4.81,1083.68-4.81z"/>
<g>
	<g>
		<path d="M992.89-11.81c-0.43,0-0.89-0.04-1.37-0.12s-0.98-0.19-1.5-0.34l0.26-1.2c0.95,0.26,1.78,0.38,2.5,0.37
			c0.94-0.02,1.66-0.26,2.15-0.72s0.73-1.13,0.73-1.99v-5.02h-5.28v-1.28h6.88v5.96c0,0.98-0.18,1.8-0.53,2.44
			c-0.36,0.64-0.86,1.12-1.51,1.43C994.55-11.97,993.78-11.81,992.89-11.81z"/>
		<path d="M1001.75-24.09c0,0.34-0.06,0.71-0.18,1.09c-0.12,0.38-0.29,0.75-0.51,1.1c-0.22,0.35-0.5,0.66-0.82,0.92l-0.91-0.62
			c0.27-0.38,0.48-0.77,0.62-1.17c0.14-0.4,0.21-0.83,0.21-1.31v-1.12h1.59V-24.09z M1004.4-24.09c0,0.34-0.06,0.71-0.18,1.09
			c-0.12,0.38-0.29,0.75-0.51,1.1c-0.22,0.35-0.5,0.66-0.82,0.92l-0.91-0.62c0.27-0.38,0.48-0.77,0.62-1.17
			c0.14-0.4,0.21-0.83,0.21-1.31v-1.12h1.59V-24.09z"/>
		<path d="M1006.61-11.96l0.78-6.45c0.06-0.48,0.2-0.92,0.41-1.34s0.45-0.73,0.73-0.96c0.03-0.02,0.06-0.04,0.09-0.06
			c0.03-0.02,0.06-0.04,0.08-0.06l-0.02-0.03c-0.25,0.04-0.57,0.11-0.96,0.21c-0.39,0.1-0.75,0.21-1.07,0.32l-0.37-1.21
			c0.44-0.15,0.92-0.29,1.44-0.4c0.52-0.12,1.05-0.21,1.58-0.27s1.03-0.1,1.5-0.1c1.37,0,2.41,0.36,3.13,1.09
			c0.72,0.73,1.08,1.79,1.09,3.2v6.05h-4.18v-1.28h2.58v-4.95c0-0.91-0.21-1.6-0.62-2.06c-0.41-0.47-1-0.7-1.77-0.7
			c-0.56,0-1.02,0.21-1.4,0.64c-0.37,0.43-0.6,1.01-0.69,1.75l-0.77,6.61H1006.61z"/>
		<path d="M1018.37-11.96v-8.87h-1.18v-1.28h2.78v10.15H1018.37z"/>
		<path d="M1026.51-11.96v-1.26c0.85-0.03,1.54-0.3,2.06-0.8c0.52-0.51,0.78-1.2,0.78-2.09v-4.71h-6.26v-1.28h7.87v5.96
			c0,0.86-0.18,1.59-0.55,2.21c-0.37,0.62-0.88,1.1-1.55,1.44C1028.18-12.16,1027.4-11.98,1026.51-11.96z M1023.28-8.37v-7.39
			c0-0.58,0.05-1.03,0.15-1.34c0.1-0.31,0.2-0.57,0.3-0.79h1.31c-0.08,0.26-0.13,0.55-0.16,0.86c-0.03,0.32-0.05,0.71-0.05,1.17
			v7.49H1023.28z"/>
	</g>
</g>
<path class="st2" d="M939.78-19.23c0.74-0.83,2.22-2.25,4.53-3.19c2.6-1.07,4.91-0.98,6.04-0.86"/>
<path class="st1" d="M762.69-2.81H616.38c-1.81,0-3.28-1.47-3.28-3.28v-19.48c0-1.81,1.47-3.28,3.28-3.28h146.31
	c1.81,0,3.28,1.47,3.28,3.28v19.48C765.97-4.28,764.5-2.81,762.69-2.81z"/>
<g>
	<g>
		<path d="M647.3-10.43v-6.37c0-0.88-0.2-1.52-0.59-1.91s-1.03-0.59-1.91-0.59h-3.68v-1.28h3.76c1.33,0,2.33,0.32,3.01,0.96
			c0.68,0.64,1.02,1.6,1.02,2.87v6.33H647.3z M641.13-10.43v-3.46c0-0.59,0.05-1.04,0.15-1.35s0.2-0.57,0.3-0.79h1.31
			c-0.07,0.26-0.12,0.55-0.16,0.87s-0.05,0.71-0.05,1.18v3.57H641.13z"/>
		<path d="M652.38-10.26c-0.3,0-0.58-0.02-0.84-0.05c-0.26-0.03-0.53-0.08-0.8-0.14l0.04-1.25c0.37,0.07,0.79,0.11,1.26,0.11
			s0.82-0.13,1.06-0.4s0.36-0.69,0.36-1.25v-6.06h-1.99v-1.28h3.59v7.47c0,0.94-0.23,1.65-0.69,2.13
			C653.89-10.5,653.23-10.26,652.38-10.26z"/>
		<path d="M658.65-10.43v-8.87h-1.18v-1.28h2.78v10.15H658.65z"/>
		<path d="M662.93-10.43v-1.29h5.46l-6.07-8.86h1.8l3.08,4.66l3.24,4.68v0.81H662.93z M667.5-14.65l-0.99-1.28l2.57-4.65h1.8
			L667.5-14.65z"/>
		<path d="M676.43-10.43v-1.26c0.85-0.03,1.54-0.3,2.06-0.8c0.52-0.51,0.78-1.2,0.78-2.09v-4.71H673v-1.28h7.87v5.96
			c0,0.86-0.18,1.59-0.55,2.21c-0.37,0.62-0.88,1.1-1.55,1.44C678.1-10.64,677.32-10.46,676.43-10.43z M673.2-6.85v-7.39
			c0-0.58,0.05-1.03,0.15-1.34c0.1-0.31,0.2-0.57,0.3-0.79h1.31c-0.08,0.26-0.13,0.55-0.16,0.86c-0.03,0.32-0.05,0.71-0.05,1.17
			v7.49H673.2z"/>
		<path d="M683.14-19.3v-4.37h1.59v3.08h5.52v1.28H683.14z M690.85-19.58l-3.72,9.14h-1.71l4.21-10.15h1.22V-19.58z"/>
		<path d="M703.33-10.43v-6.37c0-0.88-0.2-1.52-0.59-1.91s-1.03-0.59-1.91-0.59h-3.68v-1.28h3.76c1.33,0,2.33,0.32,3.01,0.96
			s1.02,1.6,1.02,2.87v6.33H703.33z M697.16-10.43v-3.46c0-0.59,0.05-1.04,0.15-1.35s0.2-0.57,0.3-0.79h1.31
			c-0.07,0.26-0.12,0.55-0.16,0.87s-0.05,0.71-0.05,1.18v3.57H697.16z"/>
		<path d="M708.41-10.26c-0.3,0-0.58-0.02-0.84-0.05c-0.26-0.03-0.53-0.08-0.8-0.14l0.04-1.25c0.37,0.07,0.79,0.11,1.26,0.11
			s0.82-0.13,1.06-0.4s0.36-0.69,0.36-1.25v-6.06h-1.99v-1.28h3.59v7.47c0,0.94-0.23,1.65-0.69,2.13
			C709.92-10.5,709.27-10.26,708.41-10.26z"/>
		<path d="M716.21-10.29c-0.43,0-0.89-0.04-1.37-0.12c-0.48-0.08-0.98-0.19-1.5-0.34l0.26-1.2c0.95,0.26,1.78,0.38,2.5,0.37
			c0.94-0.02,1.66-0.26,2.15-0.72s0.73-1.13,0.73-1.99v-5.02h-5.28v-1.28h6.88v5.96c0,0.98-0.18,1.8-0.53,2.44
			c-0.36,0.64-0.86,1.12-1.51,1.43C717.87-10.44,717.1-10.29,716.21-10.29z"/>
		<path d="M729.59-10.43v-6.37c0-0.88-0.2-1.52-0.59-1.91s-1.03-0.59-1.91-0.59h-3.68v-1.28h3.76c1.33,0,2.33,0.32,3.01,0.96
			s1.02,1.6,1.02,2.87v6.33H729.59z M723.42-10.43v-3.46c0-0.59,0.05-1.04,0.15-1.35s0.2-0.57,0.3-0.79h1.31
			c-0.07,0.26-0.12,0.55-0.16,0.87s-0.05,0.71-0.05,1.18v3.57H723.42z"/>
	</g>
</g>
<path class="st2" d="M618.79-21.23c0.74-0.83,2.22-2.25,4.53-3.19c2.6-1.07,4.91-0.98,6.04-0.86"/>
<path class="st3" d="M564.39,26.98c13.17-8.26,26.34-16.51,39.5-24.77c2.17-1.36,4.94-1.33,7.09,0.08
	c13.69,9.03,27.38,18.06,41.07,27.08c0.1,0.07,0.2,0.13,0.31,0.19c2.68,1.55,7.33,4.71,11.12,10.37c2.88,4.29,4.19,8.43,4.83,11.26
	c0.11,0.48,0.17,0.97,0.17,1.47v54.39c0,13.02-10.55,23.57-23.57,23.57h-73.85c-13.02,0-23.57-10.55-23.57-23.57V52.82
	c0-0.56,0.07-1.12,0.21-1.66c0.84-3.09,2.27-7.04,4.78-11.22c3.77-6.26,8.32-10.3,11.45-12.65
	C564.08,27.18,564.23,27.08,564.39,26.98z"/>
<line class="st4" x1="607.98" y1="-3.33" x2="607.93" y2="-7.33"/>
<circle class="st5" cx="607.84" cy="-14.33" r="3.5"/>
<g>
	<g>
	</g>
</g>
<circle class="st5" cx="1100.2" cy="-14.33" r="3.5"/>
<g>
	<g>
		<path d="M1084.47,52.88v-7.22c0-1-0.22-1.72-0.67-2.16s-1.17-0.67-2.17-0.67h-4.17v-1.46h4.26c1.5,0,2.64,0.36,3.41,1.09
			s1.16,1.81,1.16,3.25v7.17H1084.47z M1077.48,52.88v-3.93c0-0.67,0.06-1.18,0.17-1.53s0.22-0.65,0.34-0.9h1.48
			c-0.08,0.29-0.14,0.62-0.18,0.98s-0.06,0.81-0.06,1.33v4.04H1077.48z"/>
		<path d="M1094.3,53.09c-0.96,0-1.8-0.22-2.53-0.66s-1.3-1.06-1.7-1.85s-0.62-1.72-0.63-2.77v-1.17c0-0.51,0.07-1.01,0.21-1.5
			s0.33-0.93,0.58-1.33s0.53-0.69,0.84-0.9c0.02-0.01,0.04-0.03,0.06-0.04s0.05-0.03,0.07-0.03l-0.01-0.03
			c-0.25,0.03-0.56,0.09-0.94,0.19s-0.75,0.2-1.12,0.29l-0.35-1.37c0.51-0.15,1.06-0.28,1.67-0.4s1.22-0.2,1.83-0.26
			s1.19-0.09,1.72-0.09c1.07,0,2,0.21,2.76,0.63s1.36,1.02,1.77,1.81s0.62,1.73,0.62,2.84v1.38c0,1.05-0.2,1.98-0.61,2.77
			s-0.97,1.41-1.7,1.85S1095.27,53.09,1094.3,53.09z M1094.3,51.56c0.61,0,1.15-0.16,1.61-0.47s0.82-0.75,1.07-1.31
			s0.39-1.21,0.39-1.96v-1.37c0-0.78-0.13-1.45-0.39-2.02s-0.62-1-1.1-1.3s-1.04-0.45-1.69-0.45c-0.59,0-1.1,0.15-1.53,0.46
			s-0.77,0.75-1.02,1.33s-0.38,1.26-0.4,2.07v1.28c0,0.75,0.13,1.4,0.38,1.96s0.61,1,1.07,1.31S1093.69,51.56,1094.3,51.56z"/>
		<path d="M1103.16,47.79v-4.96h-2.11v-1.46h3.93v6.42H1103.16z"/>
		<path d="M1109,53.07c-0.34,0-0.66-0.02-0.96-0.06s-0.6-0.09-0.91-0.16l0.05-1.42c0.42,0.08,0.9,0.13,1.43,0.13s0.93-0.15,1.2-0.45
			s0.41-0.78,0.41-1.42v-6.87h-2.26v-1.46h4.07v8.47c0,1.06-0.26,1.87-0.79,2.41S1109.97,53.07,1109,53.07z"/>
		<path d="M1117.84,53.04c-0.49,0-1-0.04-1.55-0.13s-1.11-0.22-1.7-0.39l0.29-1.36c1.07,0.29,2.02,0.43,2.83,0.42
			c1.07-0.02,1.88-0.29,2.43-0.82s0.83-1.28,0.83-2.26v-5.68h-5.99v-1.46h7.79v6.75c0,1.11-0.2,2.03-0.61,2.76s-0.97,1.27-1.71,1.63
			S1118.85,53.04,1117.84,53.04z"/>
		<path d="M1072.07,65.37h9.21v1.46h-1.92v10.05h-1.82V66.83h-5.47V65.37z"/>
		<path d="M1084.22,76.88V66.83h-1.34v-1.46h3.15v11.5H1084.22z"/>
		<path d="M1093.44,76.88v-1.43c0.96-0.03,1.74-0.34,2.33-0.91s0.88-1.36,0.88-2.37v-5.34h-7.1v-1.46h8.92v6.76
			c0,0.97-0.21,1.81-0.62,2.51s-1,1.25-1.76,1.63S1094.45,76.85,1093.44,76.88z M1089.78,80.94v-8.38c0-0.66,0.06-1.16,0.17-1.51
			s0.22-0.65,0.34-0.9h1.48c-0.08,0.29-0.14,0.62-0.18,0.98s-0.05,0.8-0.05,1.33v8.49H1089.78z"/>
		<path d="M1102.88,71.79v-4.96h-2.11v-1.46h3.93v6.42H1102.88z"/>
		<path d="M1111.96,77.07c-0.55,0-1.16-0.06-1.82-0.17s-1.3-0.27-1.93-0.49l0.35-1.36c0.6,0.18,1.19,0.32,1.78,0.4
			s1.11,0.13,1.55,0.13c1.07-0.01,1.89-0.28,2.47-0.81s0.87-1.28,0.87-2.27v-5.68h-4.61c-0.21,0.36-0.38,0.81-0.5,1.37
			s-0.19,1.1-0.19,1.64v0.88c0.15,0.06,0.34,0.11,0.59,0.14s0.55,0.04,0.94,0.04v1.56c-0.54,0-1-0.02-1.38-0.06
			s-0.71-0.11-1.01-0.21s-0.6-0.23-0.9-0.39l-0.04-1.48c0-0.66,0.08-1.3,0.25-1.93s0.39-1.15,0.68-1.56h-1.4v-1.46h9.38v6.8
			c0,1.11-0.22,2.03-0.65,2.76s-1.04,1.27-1.8,1.62S1112.95,77.08,1111.96,77.07z"/>
		<path d="M1119.62,66.83v-4.95h1.81v3.5h6.25v1.46H1119.62z M1128.36,66.52l-4.22,10.36h-1.94l4.78-11.5h1.39V66.52z"/>
		<path d="M1079.52,89.37h9.21v1.46h-1.92v10.05h-1.82V90.83h-5.47V89.37z"/>
		<path d="M1092.68,87.13c0,0.39-0.07,0.8-0.2,1.24s-0.33,0.85-0.58,1.25s-0.56,0.75-0.93,1.04l-1.04-0.7
			c0.31-0.43,0.54-0.87,0.7-1.32s0.24-0.95,0.24-1.48v-1.27h1.81V87.13z M1095.69,87.13c0,0.39-0.07,0.8-0.2,1.24
			s-0.33,0.85-0.58,1.25s-0.56,0.75-0.93,1.04l-1.04-0.7c0.31-0.43,0.54-0.87,0.7-1.32s0.24-0.95,0.24-1.48v-1.27h1.81V87.13z"/>
		<path d="M1098.19,100.88l0.88-7.31c0.07-0.54,0.22-1.04,0.46-1.51s0.51-0.83,0.83-1.08c0.03-0.03,0.07-0.05,0.1-0.07
			s0.07-0.04,0.09-0.06l-0.02-0.03c-0.29,0.05-0.65,0.13-1.09,0.24s-0.84,0.24-1.22,0.37l-0.42-1.37c0.5-0.18,1.05-0.33,1.64-0.46
			s1.19-0.23,1.79-0.31s1.17-0.11,1.7-0.11c1.55,0,2.73,0.41,3.55,1.24s1.23,2.03,1.24,3.63v6.86h-4.74v-1.46h2.93v-5.61
			c0-1.03-0.23-1.81-0.7-2.34s-1.13-0.8-2.01-0.8c-0.63,0-1.16,0.24-1.58,0.73s-0.68,1.14-0.78,1.98l-0.87,7.49H1098.19z"/>
		<path d="M1114.84,100.88v-1.43c0.96-0.03,1.74-0.34,2.33-0.91s0.88-1.36,0.88-2.37v-5.34h-7.1v-1.46h8.92v6.76
			c0,0.97-0.21,1.81-0.62,2.51s-1,1.25-1.76,1.63S1115.85,100.85,1114.84,100.88z M1111.18,104.94v-8.38c0-0.66,0.06-1.16,0.17-1.51
			s0.22-0.65,0.34-0.9h1.48c-0.08,0.29-0.14,0.62-0.18,0.98s-0.05,0.8-0.05,1.33v8.49H1111.18z"/>
	</g>
</g>
<g>
	<g>
		<path d="M592.62,52.88v-7.22c0-1-0.22-1.72-0.67-2.16s-1.17-0.67-2.17-0.67h-4.17v-1.46h4.26c1.5,0,2.64,0.36,3.41,1.09
			s1.16,1.81,1.16,3.25v7.17H592.62z M585.62,52.88v-3.93c0-0.67,0.06-1.18,0.17-1.53s0.22-0.65,0.34-0.9h1.48
			c-0.08,0.29-0.14,0.62-0.18,0.98s-0.06,0.81-0.06,1.33v4.04H585.62z"/>
		<path d="M605.74,52.88l-8.34-11.5h2.03l8.33,11.5H605.74z M597.81,52.88v-4.17c0-1.07,0.2-1.94,0.6-2.6s1.02-1.14,1.86-1.45
			l0.71,0.94c-0.94,0.42-1.41,1.24-1.41,2.45v4.82H597.81z M607.81,41.37l-3.96,6.94l-1.2-1.4l3.12-5.55H607.81z"/>
		<path d="M611.4,47.79v-4.96h-2.11v-1.46h3.93v6.42H611.4z"/>
		<path d="M616.05,52.88v-1.46h6.18l-6.88-10.04h2.04l3.5,5.28l3.67,5.3v0.92H616.05z M621.23,48.1l-1.12-1.46l2.91-5.27h2.04
			L621.23,48.1z"/>
		<path d="M628.36,47.79v-4.96h-2.11v-1.46h3.93v6.42H628.36z"/>
		<path d="M583.46,65.37h9.21v1.46h-1.92v10.05h-1.82V66.83h-5.47V65.37z"/>
		<path d="M596.63,63.13c0,0.39-0.07,0.8-0.2,1.24s-0.33,0.85-0.58,1.25s-0.56,0.75-0.93,1.04l-1.04-0.7
			c0.31-0.43,0.54-0.87,0.7-1.32s0.24-0.95,0.24-1.48v-1.27h1.81V63.13z M599.63,63.13c0,0.39-0.07,0.8-0.2,1.24
			s-0.33,0.85-0.58,1.25s-0.56,0.75-0.93,1.04l-1.04-0.7c0.31-0.43,0.54-0.87,0.7-1.32s0.24-0.95,0.24-1.48v-1.27h1.81V63.13z"/>
		<path d="M608.92,76.88v-7.22c0-1-0.22-1.72-0.67-2.16s-1.17-0.67-2.17-0.67h-4.17v-1.46h4.26c1.5,0,2.64,0.36,3.41,1.09
			s1.16,1.81,1.16,3.25v7.17H608.92z M601.93,76.88v-3.93c0-0.67,0.06-1.18,0.17-1.53s0.22-0.65,0.34-0.9h1.48
			c-0.08,0.29-0.14,0.62-0.18,0.98s-0.06,0.81-0.06,1.33v4.04H601.93z"/>
		<path d="M612.82,76.88v-1.46h6.25l1.81-0.07l1.4,0.15v1.39H612.82z M619.07,76.47v-6.81c0-1-0.22-1.72-0.67-2.16
			s-1.17-0.67-2.17-0.67h-2.78v-1.46h2.88c1.5,0,2.63,0.36,3.4,1.09s1.15,1.81,1.15,3.25v6.76H619.07z"/>
		<path d="M623.57,66.83v-4.95h1.81v3.5h6.25v1.46H623.57z M632.31,66.51l-4.22,10.36h-1.94l4.78-11.5h1.39V66.51z"/>
		<path d="M609.46,100.88h-1.83V88.82L604,90.15v-1.63l5.18-1.94h0.28V100.88z"/>
	</g>
</g>
<path class="st6" d="M1161.76,162.14h-130.13c-1.81,0-3.28-1.47-3.28-3.28v-16.73c0-1.81,1.47-3.28,3.28-3.28h130.13
	c1.81,0,3.28,1.47,3.28,3.28v16.73C1165.05,160.67,1163.58,162.14,1161.76,162.14z"/>
<g>
	<g>
		<path d="M1066.84,154.97v-9.08h7.24v9.08H1066.84z M1068.27,153.82h4.39v-6.77h-4.39V153.82z"/>
		<path d="M1077.57,150.96v-3.92h-1.66v-1.15h3.1v5.06H1077.57z"/>
		<path d="M1083.02,145.89v7.47c0.49,0.21,1,0.37,1.55,0.49c0.54,0.12,1.07,0.18,1.56,0.18c0.72,0,1.38-0.1,1.96-0.31
			c0.58-0.21,1.04-0.53,1.38-0.96c0.34-0.43,0.51-0.97,0.51-1.63v-5.24h1.39v5.37c0,0.66-0.14,1.24-0.41,1.73s-0.65,0.9-1.12,1.23
			c-0.48,0.33-1.03,0.57-1.65,0.73c-0.62,0.16-1.29,0.24-1.99,0.24c-0.74,0-1.51-0.09-2.3-0.27s-1.55-0.44-2.27-0.78v-8.25H1083.02z
			 M1085.21,152.47c0.2-0.21,0.34-0.48,0.44-0.84c0.09-0.35,0.14-0.76,0.14-1.22v-4.52h1.39v4.26c0,0.52-0.06,0.97-0.19,1.36
			c-0.13,0.39-0.33,0.72-0.6,0.99L1085.21,152.47z"/>
		<path d="M1093.23,145.89h7.27v1.15h-1.52v7.93h-1.43v-7.93h-4.32V145.89z"/>
		<path d="M1102.82,154.97v-7.93h-1.06v-1.15h2.49v9.08H1102.82z"/>
		<path d="M1107.04,154.97l0.01-9.08h3.41c1.2,0,2.1,0.29,2.69,0.86c0.59,0.57,0.89,1.45,0.89,2.62v5.6h-1.43v-5.69
			c0-0.79-0.17-1.36-0.51-1.71c-0.34-0.35-0.88-0.53-1.63-0.53h-2l-0.01,7.93H1107.04z"/>
		<path d="M1127.15,151.94c0,0.68-0.16,1.26-0.47,1.74c-0.32,0.48-0.74,0.84-1.28,1.08c-0.54,0.25-1.14,0.37-1.82,0.37
			s-1.28-0.12-1.82-0.37s-0.97-0.61-1.28-1.08s-0.47-1.05-0.47-1.74c0-0.59,0.15-1.12,0.45-1.58c0.3-0.46,0.72-0.83,1.26-1.09
			c0.54-0.26,1.15-0.4,1.84-0.4c0.69,0,1.3,0.13,1.84,0.4c0.54,0.26,0.96,0.63,1.28,1.09
			C1126.99,150.82,1127.15,151.34,1127.15,151.94z M1126.89,146.67c0,0.54-0.14,1.04-0.43,1.47c-0.29,0.44-0.68,0.78-1.18,1.03
			c-0.5,0.25-1.06,0.38-1.7,0.38c-0.64,0-1.21-0.13-1.71-0.38c-0.5-0.25-0.89-0.6-1.17-1.03c-0.28-0.44-0.42-0.93-0.42-1.47
			c0-0.65,0.14-1.21,0.43-1.66c0.29-0.46,0.68-0.81,1.18-1.05c0.5-0.24,1.07-0.36,1.71-0.36s1.21,0.12,1.7,0.36
			c0.5,0.24,0.89,0.59,1.18,1.05C1126.74,145.46,1126.89,146.02,1126.89,146.67z M1125.71,151.9c0-0.42-0.09-0.78-0.27-1.11
			c-0.18-0.32-0.43-0.57-0.75-0.75c-0.32-0.18-0.7-0.27-1.12-0.27c-0.43,0-0.8,0.09-1.12,0.27c-0.32,0.18-0.56,0.43-0.73,0.75
			c-0.17,0.32-0.26,0.69-0.26,1.11c0,0.43,0.09,0.8,0.26,1.11c0.17,0.31,0.42,0.54,0.74,0.71c0.32,0.16,0.7,0.25,1.13,0.25
			c0.44,0,0.82-0.08,1.14-0.25c0.32-0.16,0.56-0.4,0.73-0.71C1125.62,152.71,1125.71,152.34,1125.71,151.9z M1125.45,146.7
			c0-0.38-0.08-0.71-0.24-1c-0.16-0.29-0.38-0.52-0.66-0.69c-0.28-0.17-0.6-0.25-0.97-0.25c-0.38,0-0.7,0.08-0.98,0.24
			s-0.5,0.38-0.66,0.67c-0.16,0.29-0.23,0.63-0.23,1.03c0,0.39,0.08,0.72,0.23,1.01c0.16,0.29,0.38,0.51,0.66,0.67
			s0.61,0.24,0.98,0.24s0.7-0.08,0.98-0.24s0.5-0.38,0.65-0.67C1125.37,147.42,1125.45,147.08,1125.45,146.7z"/>
	</g>
</g>
<path class="st7" d="M1033.43,145.66c0.67-0.74,1.99-2.01,4.05-2.86c2.33-0.96,4.39-0.88,5.4-0.77"/>
<line class="st8" x1="161.05" y1="14.24" x2="193.14" y2="14.24"/>
<line class="st8" x1="228.1" y1="14.23" x2="260.18" y2="14.23"/>
<line class="st8" x1="73.14" y1="35.03" x2="73.14" y2="47.03"/>
<line class="st8" x1="344.56" y1="35.37" x2="344.56" y2="47.37"/>
</svg>
