<?xml version="1.0" encoding="utf-8"?>
<!-- Generator: Adobe Illustrator 26.0.3, SVG Export Plug-In . SVG Version: 6.00 Build 0)  -->
<svg version="1.1" id="Layer_1" xmlns="http://www.w3.org/2000/svg" xmlns:xlink="http://www.w3.org/1999/xlink" x="0px" y="0px"
	 viewBox="0 0 149.78 122.61" style="enable-background:new 0 0 149.78 122.61;" xml:space="preserve">
<style type="text/css">
	.st0{fill:#E8B158;stroke:#000000;stroke-miterlimit:10;}
	.st1{fill:#71C7FF;}
	.st2{fill:#8BC8EA;stroke:#000000;stroke-miterlimit:10;}
	.st3{fill:#E8B158;stroke:#000000;stroke-width:0.5;stroke-miterlimit:10;}
</style>
<path class="st0" d="M45.55,105.55c-8.42-13.06-16.84-26.13-25.26-39.19c-1.39-2.16-1.39-4.93-0.01-7.09
	c8.86-13.8,17.71-27.6,26.57-41.4c0.07-0.1,0.13-0.2,0.19-0.31c1.51-2.7,4.62-7.39,10.24-11.25c4.26-2.93,8.37-4.3,11.19-4.97
	c0.48-0.12,0.97-0.18,1.47-0.18l54.38-0.68c13.02-0.16,23.7,10.26,23.86,23.28l0.92,73.85c0.16,13.02-10.26,23.7-23.28,23.86
	l-54.23,0.67c-0.56,0.01-1.12-0.05-1.66-0.19c-3.1-0.8-7.07-2.18-11.28-4.64c-6.3-3.69-10.41-8.2-12.79-11.29
	C45.76,105.86,45.65,105.71,45.55,105.55z"/>
<path class="st1" d="M34.22,304.3"/>
<line class="st2" x1="15.17" y1="62.84" x2="11.17" y2="62.88"/>
<circle class="st3" cx="4.17" cy="62.97" r="3.5"/>
<g>
	<g>
	</g>
</g>
<g>
	<g>
		<path d="M47.6,49.69c1.29,0,2.26,0.31,2.9,0.93c0.64,0.62,0.96,1.56,0.96,2.82v6.03h-1.54l-0.01-6.13c0-0.85-0.18-1.46-0.54-1.84
			c-0.36-0.38-0.95-0.57-1.76-0.57h-1.39c-0.18,0.3-0.33,0.68-0.44,1.15c-0.11,0.47-0.16,0.95-0.16,1.44v3.3
			c0,0.9-0.21,1.58-0.64,2.05c-0.43,0.46-1.05,0.69-1.86,0.69c-0.17,0-0.33-0.01-0.48-0.02c-0.15-0.01-0.31-0.03-0.48-0.05v-1.24
			c0.1,0.01,0.2,0.02,0.29,0.02c0.1,0.01,0.19,0.01,0.28,0.01c0.49,0,0.84-0.12,1.05-0.37s0.32-0.64,0.32-1.18v-3.09
			c0-0.49,0.06-0.99,0.2-1.49c0.13-0.5,0.31-0.91,0.55-1.21h-1.83v-1.24H47.6z"/>
		<path d="M54.69,59.47v-8.54h-1.14v-1.24h2.68v9.78H54.69z"/>
		<path d="M59.15,59.47l0.75-6.22c0.06-0.46,0.19-0.89,0.39-1.29s0.43-0.71,0.71-0.92c0.03-0.02,0.06-0.04,0.09-0.06
			c0.03-0.02,0.06-0.04,0.08-0.05l-0.02-0.02c-0.24,0.04-0.55,0.11-0.93,0.2c-0.37,0.1-0.72,0.2-1.03,0.31l-0.36-1.16
			c0.43-0.15,0.89-0.28,1.39-0.39c0.5-0.11,1.01-0.2,1.52-0.26c0.51-0.06,1-0.1,1.44-0.1c1.32,0,2.32,0.35,3.02,1.05
			c0.69,0.7,1.04,1.73,1.05,3.08v5.83h-4.03v-1.24h2.49v-4.76c0-0.87-0.2-1.54-0.59-1.99c-0.4-0.45-0.96-0.68-1.71-0.68
			c-0.54,0-0.98,0.21-1.34,0.62c-0.36,0.41-0.58,0.97-0.66,1.68l-0.74,6.37H59.15z"/>
		<path d="M70.02,59.47l0.01-9.78h3.68c1.29,0,2.26,0.31,2.9,0.93c0.64,0.62,0.96,1.56,0.96,2.82v6.03h-1.54v-6.13
			c0-0.85-0.18-1.46-0.55-1.84s-0.95-0.57-1.76-0.57h-2.16l-0.01,8.54H70.02z"/>
		<path d="M80.8,59.47v-8.54h-1.14v-1.24h2.68v9.78H80.8z"/>
		<path d="M84.54,50.93v-4.21h1.54v2.97h5.31v1.24H84.54z M91.96,50.66l-3.59,8.81h-1.65l4.06-9.78h1.18V50.66z"/>
		<path d="M102.29,49.69c1.29,0,2.26,0.31,2.9,0.93c0.64,0.62,0.96,1.56,0.96,2.82v6.03h-1.54l-0.01-6.13
			c0-0.85-0.18-1.46-0.54-1.84c-0.36-0.38-0.95-0.57-1.76-0.57h-1.39c-0.18,0.3-0.33,0.68-0.44,1.15c-0.11,0.47-0.16,0.95-0.16,1.44
			v3.3c0,0.9-0.21,1.58-0.64,2.05c-0.43,0.46-1.05,0.69-1.86,0.69c-0.17,0-0.33-0.01-0.48-0.02c-0.15-0.01-0.31-0.03-0.48-0.05
			v-1.24c0.1,0.01,0.2,0.02,0.29,0.02c0.1,0.01,0.19,0.01,0.28,0.01c0.49,0,0.84-0.12,1.05-0.37s0.32-0.64,0.32-1.18v-3.09
			c0-0.49,0.06-0.99,0.2-1.49c0.13-0.5,0.31-0.91,0.55-1.21h-1.83v-1.24H102.29z"/>
		<path d="M109.5,59.64c-0.29,0-0.56-0.02-0.81-0.05s-0.51-0.08-0.77-0.13l0.04-1.2c0.36,0.07,0.76,0.11,1.21,0.11
			s0.79-0.13,1.02-0.39c0.23-0.26,0.34-0.66,0.34-1.21v-5.84h-1.92v-1.24h3.46v7.2c0,0.9-0.22,1.59-0.67,2.05
			C110.96,59.41,110.32,59.64,109.5,59.64z"/>
		<path d="M115.82,55.15v-4.22h-1.79v-1.24h3.34v5.45H115.82z"/>
		<path d="M122.14,59.61c-0.42,0-0.85-0.04-1.32-0.11c-0.46-0.08-0.95-0.18-1.45-0.33l0.25-1.15c0.91,0.25,1.72,0.37,2.41,0.36
			c0.91-0.02,1.6-0.25,2.07-0.7s0.71-1.09,0.71-1.92v-4.83h-5.09v-1.24h6.62v5.74c0,0.95-0.17,1.73-0.51,2.35s-0.83,1.08-1.46,1.38
			C123.74,59.46,123,59.61,122.14,59.61z"/>
		<path d="M129.26,59.47l0.75-6.22c0.06-0.46,0.19-0.89,0.39-1.29s0.43-0.71,0.71-0.92c0.03-0.02,0.06-0.04,0.09-0.06
			c0.03-0.02,0.06-0.04,0.08-0.05l-0.02-0.02c-0.24,0.04-0.55,0.11-0.93,0.2c-0.37,0.1-0.72,0.2-1.03,0.31l-0.36-1.16
			c0.43-0.15,0.89-0.28,1.39-0.39c0.5-0.11,1.01-0.2,1.52-0.26c0.51-0.06,1-0.1,1.44-0.1c1.32,0,2.32,0.35,3.02,1.05
			c0.69,0.7,1.04,1.73,1.05,3.08v5.83h-4.03v-1.24h2.49v-4.76c0-0.87-0.2-1.54-0.59-1.99c-0.4-0.45-0.96-0.68-1.71-0.68
			c-0.54,0-0.98,0.21-1.34,0.62c-0.36,0.41-0.58,0.97-0.66,1.68l-0.74,6.37H129.26z"/>
	</g>
</g>
<g>
	<g>
		<path d="M72.58,67.66c0-0.28,0.05-0.57,0.14-0.87s0.23-0.59,0.41-0.87s0.4-0.52,0.65-0.73l0.72,0.49
			c-0.21,0.3-0.38,0.61-0.49,0.93s-0.17,0.66-0.17,1.03v0.85h-1.26V67.66z"/>
		<path d="M75.15,75.83V74.8h4.38l1.26-0.05l0.98,0.1v0.97H75.15z M79.52,75.54v-4.76c0-0.7-0.16-1.2-0.47-1.51
			s-0.82-0.47-1.52-0.47h-1.95v-1.02h2.02c1.05,0,1.84,0.25,2.38,0.76s0.81,1.27,0.81,2.27v4.73H79.52z"/>
		<path d="M85.99,75.83V74.8h4.38l1.26-0.05l0.98,0.1v0.97H85.99z M90.37,75.54v-4.76c0-0.7-0.16-1.2-0.47-1.51
			s-0.82-0.47-1.52-0.47h-1.95v-1.02h2.02c1.05,0,1.84,0.25,2.38,0.76s0.81,1.27,0.81,2.27v4.73H90.37z"/>
		<path d="M93.37,75.83V74.8h4.38l1.26-0.05l0.98,0.1v0.97H93.37z M97.75,75.54v-4.76c0-0.7-0.16-1.2-0.47-1.51
			s-0.82-0.47-1.52-0.47h-1.95v-1.02h2.02c1.05,0,1.84,0.25,2.38,0.76s0.81,1.27,0.81,2.27v4.73H97.75z"/>
		<path d="M104.9,75.98c-0.67,0-1.26-0.15-1.77-0.46s-0.91-0.74-1.19-1.3s-0.43-1.2-0.44-1.94v-0.82c0-0.36,0.05-0.71,0.15-1.05
			s0.23-0.65,0.41-0.93s0.37-0.49,0.59-0.63c0.01-0.01,0.03-0.02,0.04-0.03s0.03-0.02,0.05-0.02l-0.01-0.02
			c-0.17,0.02-0.39,0.06-0.66,0.13s-0.53,0.14-0.78,0.21l-0.25-0.96c0.36-0.1,0.75-0.2,1.17-0.28s0.85-0.14,1.28-0.18
			s0.83-0.06,1.21-0.06c0.75,0,1.4,0.15,1.93,0.44s0.95,0.72,1.24,1.26s0.43,1.21,0.43,1.99v0.96c0,0.74-0.14,1.39-0.42,1.94
			s-0.68,0.99-1.19,1.3S105.58,75.98,104.9,75.98z M104.9,74.91c0.43,0,0.8-0.11,1.12-0.33s0.57-0.52,0.75-0.92s0.27-0.85,0.27-1.37
			v-0.96c0-0.55-0.09-1.02-0.27-1.41s-0.44-0.7-0.77-0.91s-0.73-0.32-1.18-0.32c-0.41,0-0.77,0.11-1.07,0.32s-0.54,0.53-0.71,0.93
			s-0.26,0.89-0.28,1.45v0.9c0,0.52,0.09,0.98,0.27,1.37s0.43,0.7,0.75,0.92S104.47,74.91,104.9,74.91z"/>
	</g>
</g>
</svg>
