<?xml version="1.0" encoding="utf-8"?>
<!-- Generator: Adobe Illustrator 26.0.3, SVG Export Plug-In . SVG Version: 6.00 Build 0)  -->
<svg version="1.1" id="Layer_1" xmlns="http://www.w3.org/2000/svg" xmlns:xlink="http://www.w3.org/1999/xlink" x="0px" y="0px"
	 viewBox="0 0 149.78 122.61" style="enable-background:new 0 0 149.78 122.61;" xml:space="preserve">
<style type="text/css">
	.st0{fill:#E8B158;stroke:#000000;stroke-miterlimit:10;}
	.st1{fill:#71C7FF;}
	.st2{fill:#8BC8EA;stroke:#000000;stroke-miterlimit:10;}
	.st3{fill:#E8B158;stroke:#000000;stroke-width:0.5;stroke-miterlimit:10;}
</style>
<path class="st0" d="M45.55,105.55c-8.42-13.06-16.84-26.13-25.26-39.19c-1.39-2.16-1.39-4.93-0.01-7.09
	c8.86-13.8,17.71-27.6,26.57-41.4c0.07-0.1,0.13-0.2,0.19-0.31c1.51-2.7,4.62-7.39,10.24-11.25c4.26-2.93,8.37-4.3,11.19-4.97
	c0.48-0.12,0.97-0.18,1.47-0.18l54.38-0.68c13.02-0.16,23.7,10.26,23.86,23.28l0.92,73.85c0.16,13.02-10.26,23.7-23.28,23.86
	l-54.23,0.67c-0.56,0.01-1.12-0.05-1.66-0.19c-3.1-0.8-7.07-2.18-11.28-4.64c-6.3-3.69-10.41-8.2-12.79-11.29
	C45.76,105.86,45.65,105.71,45.55,105.55z"/>
<path class="st1" d="M34.22,304.3"/>
<line class="st2" x1="15.17" y1="62.84" x2="11.17" y2="62.88"/>
<circle class="st3" cx="4.17" cy="62.97" r="3.5"/>
<g>
	<g>
	</g>
</g>
<g>
	<g>
		<path d="M51.79,59.47v-6.82c0-0.53-0.16-0.95-0.47-1.26c-0.31-0.31-0.74-0.46-1.28-0.46h-3.29v-1.24h3.34
			c1.01,0,1.81,0.27,2.38,0.81c0.57,0.54,0.86,1.29,0.86,2.26v6.71H51.79z"/>
		<path d="M56.56,59.47v-8.54h-1.14v-1.24h2.68v9.78H56.56z"/>
		<path d="M60.1,49.69h7.83v1.24H66.3v8.54h-1.54v-8.54H60.1V49.69z"/>
		<path d="M69.88,59.47l0.75-6.22c0.06-0.46,0.19-0.89,0.39-1.29s0.43-0.71,0.71-0.92c0.03-0.02,0.06-0.04,0.09-0.06
			c0.03-0.02,0.06-0.04,0.08-0.05l-0.02-0.02c-0.24,0.04-0.55,0.11-0.93,0.2c-0.37,0.1-0.72,0.2-1.03,0.31l-0.36-1.16
			c0.43-0.15,0.89-0.28,1.39-0.39c0.5-0.11,1.01-0.2,1.52-0.26c0.51-0.06,1-0.1,1.44-0.1c1.32,0,2.32,0.35,3.02,1.05
			c0.69,0.7,1.04,1.73,1.05,3.08v5.83h-4.03v-1.24h2.49v-4.76c0-0.87-0.2-1.54-0.59-1.99c-0.4-0.45-0.96-0.68-1.71-0.68
			c-0.54,0-0.98,0.21-1.34,0.62c-0.36,0.41-0.58,0.97-0.66,1.68l-0.74,6.37H69.88z"/>
		<path d="M79.93,50.93v-4.21h1.54v2.97h5.31v1.24H79.93z M87.36,50.66l-3.59,8.81h-1.65l4.06-9.78h1.18V50.66z"/>
		<path d="M99.38,59.47v-6.13c0-0.85-0.19-1.46-0.57-1.84c-0.38-0.38-1-0.57-1.84-0.57h-3.54v-1.24h3.62c1.28,0,2.25,0.31,2.9,0.93
			c0.66,0.62,0.98,1.54,0.98,2.76v6.09H99.38z M93.44,59.47v-3.34c0-0.57,0.05-1,0.14-1.3s0.19-0.55,0.29-0.76h1.26
			c-0.07,0.25-0.12,0.53-0.15,0.83c-0.03,0.31-0.05,0.68-0.05,1.13v3.44H93.44z"/>
		<path d="M107.73,59.65c-0.81,0-1.53-0.19-2.15-0.56c-0.62-0.37-1.1-0.9-1.45-1.57c-0.35-0.68-0.52-1.46-0.54-2.36v-1
			c0-0.43,0.06-0.86,0.18-1.27c0.12-0.42,0.28-0.79,0.49-1.13c0.21-0.33,0.45-0.59,0.71-0.77c0.02-0.01,0.03-0.02,0.05-0.04
			c0.02-0.01,0.04-0.02,0.06-0.03l-0.01-0.02c-0.21,0.02-0.48,0.07-0.8,0.16c-0.32,0.08-0.64,0.17-0.95,0.25l-0.3-1.16
			c0.43-0.13,0.9-0.24,1.42-0.34c0.51-0.1,1.03-0.17,1.56-0.22c0.52-0.05,1.01-0.08,1.46-0.08c0.91,0,1.7,0.18,2.35,0.54
			c0.65,0.36,1.16,0.87,1.51,1.54c0.35,0.67,0.53,1.47,0.53,2.41v1.17c0,0.9-0.17,1.68-0.51,2.36s-0.82,1.2-1.44,1.57
			C109.29,59.47,108.56,59.65,107.73,59.65z M107.73,58.35c0.52,0,0.98-0.13,1.37-0.4c0.39-0.27,0.69-0.64,0.91-1.11
			c0.22-0.48,0.33-1.03,0.33-1.67v-1.16c0-0.66-0.11-1.24-0.33-1.71c-0.22-0.48-0.53-0.85-0.93-1.1c-0.4-0.26-0.88-0.39-1.44-0.39
			c-0.5,0-0.93,0.13-1.3,0.39c-0.37,0.26-0.66,0.64-0.86,1.13c-0.21,0.49-0.32,1.07-0.34,1.76v1.09c0,0.64,0.11,1.19,0.32,1.67
			s0.52,0.85,0.91,1.11C106.77,58.22,107.22,58.35,107.73,58.35z"/>
		<path d="M115.27,55.15v-4.22h-1.79v-1.24h3.34v5.45H115.27z"/>
		<path d="M120.23,59.64c-0.29,0-0.56-0.02-0.81-0.05s-0.51-0.08-0.77-0.13l0.04-1.2c0.36,0.07,0.76,0.11,1.21,0.11
			s0.79-0.13,1.02-0.39c0.23-0.26,0.34-0.66,0.34-1.21v-5.84h-1.92v-1.24h3.46v7.2c0,0.9-0.22,1.59-0.67,2.05
			C121.69,59.41,121.06,59.64,120.23,59.64z"/>
		<path d="M127.75,59.61c-0.42,0-0.85-0.04-1.32-0.11c-0.46-0.08-0.95-0.18-1.45-0.33l0.25-1.15c0.91,0.25,1.72,0.37,2.41,0.36
			c0.91-0.02,1.6-0.25,2.07-0.7s0.71-1.09,0.71-1.92v-4.83h-5.09v-1.24h6.62v5.74c0,0.95-0.17,1.73-0.51,2.35s-0.83,1.08-1.46,1.38
			C129.35,59.46,128.6,59.61,127.75,59.61z"/>
	</g>
</g>
<g>
	<g>
		<path d="M60.3,71.64c0.91,0,1.6,0.22,2.05,0.65s0.68,1.1,0.68,1.99v4.26h-1.08l-0.01-4.32c0-0.6-0.13-1.03-0.38-1.3
			s-0.67-0.4-1.24-0.4h-0.98c-0.13,0.21-0.23,0.48-0.31,0.81s-0.11,0.67-0.11,1.02v2.33c0,0.64-0.15,1.12-0.45,1.44
			s-0.74,0.49-1.31,0.49c-0.12,0-0.23,0-0.34-0.01s-0.22-0.02-0.34-0.04v-0.87c0.07,0.01,0.14,0.01,0.21,0.02s0.13,0.01,0.2,0.01
			c0.34,0,0.59-0.09,0.74-0.26s0.23-0.45,0.23-0.83v-2.18c0-0.35,0.05-0.7,0.14-1.05s0.22-0.64,0.39-0.86h-1.29v-0.87H60.3z"/>
		<path d="M65.31,78.54v-6.03h-0.8v-0.87h1.89v6.9H65.31z"/>
		<path d="M68.46,78.54l0.53-4.39c0.04-0.32,0.13-0.63,0.28-0.91s0.31-0.5,0.5-0.65c0.02-0.02,0.04-0.03,0.06-0.04
			s0.04-0.03,0.06-0.04l-0.01-0.02c-0.17,0.03-0.39,0.08-0.65,0.14s-0.51,0.14-0.73,0.22l-0.25-0.82c0.3-0.11,0.63-0.2,0.98-0.28
			s0.71-0.14,1.08-0.18s0.7-0.07,1.02-0.07c0.93,0,1.64,0.25,2.13,0.74s0.74,1.22,0.74,2.18v4.11h-2.84v-0.87h1.76v-3.36
			c0-0.62-0.14-1.08-0.42-1.4s-0.68-0.48-1.2-0.48c-0.38,0-0.7,0.15-0.95,0.44s-0.41,0.69-0.47,1.19l-0.52,4.49H68.46z"/>
		<path d="M76.13,78.54l0.01-6.9h2.6c0.91,0,1.6,0.22,2.04,0.65s0.68,1.1,0.68,1.99v4.26h-1.08v-4.32c0-0.6-0.13-1.03-0.39-1.3
			s-0.67-0.4-1.24-0.4h-1.52l-0.01,6.03H76.13z"/>
		<path d="M83.74,78.54v-6.03h-0.8v-0.87h1.89v6.9H83.74z"/>
		<path d="M86.38,72.51v-2.97h1.08v2.1h3.75v0.87H86.38z M91.62,72.32l-2.53,6.22h-1.17l2.87-6.9h0.83V72.32z"/>
		<path d="M98.91,71.64c0.91,0,1.6,0.22,2.05,0.65s0.68,1.1,0.68,1.99v4.26h-1.08l-0.01-4.32c0-0.6-0.13-1.03-0.38-1.3
			s-0.67-0.4-1.24-0.4h-0.98c-0.13,0.21-0.23,0.48-0.31,0.81s-0.11,0.67-0.11,1.02v2.33c0,0.64-0.15,1.12-0.45,1.44
			s-0.74,0.49-1.31,0.49c-0.12,0-0.23,0-0.34-0.01s-0.22-0.02-0.34-0.04v-0.87c0.07,0.01,0.14,0.01,0.21,0.02s0.13,0.01,0.2,0.01
			c0.34,0,0.59-0.09,0.74-0.26s0.23-0.45,0.23-0.83v-2.18c0-0.35,0.05-0.7,0.14-1.05s0.22-0.64,0.39-0.86h-1.29v-0.87H98.91z"/>
		<path d="M104,78.66c-0.2,0-0.39-0.01-0.57-0.04s-0.36-0.05-0.54-0.09l0.03-0.85c0.25,0.05,0.54,0.08,0.86,0.08
			s0.56-0.09,0.72-0.27s0.24-0.47,0.24-0.85v-4.12h-1.35v-0.87h2.44v5.08c0,0.64-0.16,1.12-0.47,1.45S104.58,78.66,104,78.66z"/>
		<path d="M108.46,75.49v-2.98h-1.27v-0.87h2.36v3.85H108.46z"/>
		<path d="M112.92,78.64c-0.29,0-0.6-0.03-0.93-0.08s-0.67-0.13-1.02-0.23l0.18-0.81c0.64,0.18,1.21,0.26,1.7,0.25
			c0.64-0.01,1.13-0.18,1.46-0.49s0.5-0.77,0.5-1.35v-3.41h-3.59v-0.87h4.68v4.05c0,0.67-0.12,1.22-0.36,1.66s-0.58,0.76-1.03,0.98
			S113.53,78.64,112.92,78.64z"/>
		<path d="M117.95,78.54l0.53-4.39c0.04-0.32,0.13-0.63,0.28-0.91s0.31-0.5,0.5-0.65c0.02-0.02,0.04-0.03,0.06-0.04
			s0.04-0.03,0.06-0.04l-0.01-0.02c-0.17,0.03-0.39,0.08-0.65,0.14s-0.51,0.14-0.73,0.22l-0.25-0.82c0.3-0.11,0.63-0.2,0.98-0.28
			s0.71-0.14,1.08-0.18s0.7-0.07,1.02-0.07c0.93,0,1.64,0.25,2.13,0.74s0.74,1.22,0.74,2.18v4.11h-2.84v-0.87h1.76v-3.36
			c0-0.62-0.14-1.08-0.42-1.4s-0.68-0.48-1.2-0.48c-0.38,0-0.7,0.15-0.95,0.44s-0.41,0.69-0.47,1.19l-0.52,4.49H117.95z"/>
		<path d="M125.95,78.54v-6.03h-0.8v-0.87h1.89v6.9H125.95z"/>
	</g>
</g>
</svg>
