<?xml version="1.0" encoding="utf-8"?>
<!-- Generator: Adobe Illustrator 26.0.3, SVG Export Plug-In . SVG Version: 6.00 Build 0)  -->
<svg version="1.1" id="Layer_1" xmlns="http://www.w3.org/2000/svg" xmlns:xlink="http://www.w3.org/1999/xlink" x="0px" y="0px"
	 viewBox="0 0 422.02 183.91" style="enable-background:new 0 0 422.02 183.91;" xml:space="preserve">
<style type="text/css">
	.st0{fill:#71C7FF;}
	.st1{fill:#8BC8EA;stroke:#000000;stroke-width:0.25;stroke-miterlimit:10;}
	.st2{fill:none;stroke:#A6D8ED;stroke-width:0.5;stroke-miterlimit:10;}
	.st3{fill:#E8B158;stroke:#000000;stroke-miterlimit:10;}
	.st4{fill:#8BC8EA;stroke:#000000;stroke-miterlimit:10;}
	.st5{fill:#E8B158;stroke:#000000;stroke-width:0.5;stroke-miterlimit:10;}
	.st6{fill:#E8B158;stroke:#000000;stroke-width:0.25;stroke-miterlimit:10;}
	.st7{fill:#EAB871;stroke:#EAB871;stroke-width:0.5;stroke-miterlimit:10;}
	.st8{fill:#8BC8EA;stroke:#000000;stroke-width:4;stroke-miterlimit:10;}
</style>
<path class="st0" d="M-1013.57,220.3"/>
<path class="st1" d="M-782.12-36.33h-146.31c-1.81,0-3.28-1.47-3.28-3.28V-59.1c0-1.81,1.47-3.28,3.28-3.28h146.31
	c1.81,0,3.28,1.47,3.28,3.28v19.48C-778.83-37.8-780.3-36.33-782.12-36.33z"/>
<g>
	<g>
		<path d="M-872.91-43.33c-0.43,0-0.89-0.04-1.37-0.12c-0.48-0.08-0.98-0.19-1.5-0.34l0.26-1.2c0.95,0.26,1.78,0.38,2.5,0.37
			c0.94-0.02,1.66-0.26,2.15-0.72s0.73-1.13,0.73-1.99v-5.02h-5.28v-1.28h6.88v5.96c0,0.98-0.18,1.8-0.53,2.44
			c-0.36,0.64-0.86,1.12-1.51,1.43C-871.25-43.49-872.02-43.33-872.91-43.33z"/>
		<path d="M-864.05-55.61c0,0.34-0.06,0.71-0.18,1.09c-0.12,0.38-0.29,0.75-0.51,1.1c-0.22,0.35-0.5,0.66-0.82,0.92l-0.91-0.62
			c0.27-0.38,0.48-0.77,0.62-1.17c0.14-0.4,0.21-0.83,0.21-1.31v-1.12h1.59V-55.61z M-861.39-55.61c0,0.34-0.06,0.71-0.18,1.09
			c-0.12,0.38-0.29,0.75-0.51,1.1c-0.22,0.35-0.5,0.66-0.82,0.92l-0.91-0.62c0.27-0.38,0.48-0.77,0.62-1.17
			c0.14-0.4,0.21-0.83,0.21-1.31v-1.12h1.59V-55.61z"/>
		<path d="M-859.19-43.48l0.78-6.45c0.06-0.48,0.2-0.92,0.41-1.34s0.45-0.73,0.73-0.96c0.03-0.02,0.06-0.04,0.09-0.06
			c0.03-0.02,0.06-0.04,0.08-0.06l-0.02-0.03c-0.25,0.04-0.57,0.11-0.96,0.21c-0.39,0.1-0.75,0.21-1.07,0.32l-0.37-1.21
			c0.44-0.15,0.92-0.29,1.44-0.4c0.52-0.12,1.05-0.21,1.58-0.27s1.03-0.1,1.5-0.1c1.37,0,2.41,0.36,3.13,1.09
			c0.72,0.73,1.08,1.79,1.09,3.2v6.05h-4.18v-1.28h2.58v-4.95c0-0.91-0.21-1.6-0.62-2.06c-0.41-0.47-1-0.7-1.77-0.7
			c-0.56,0-1.02,0.21-1.4,0.64c-0.37,0.43-0.6,1.01-0.69,1.75l-0.77,6.61H-859.19z"/>
		<path d="M-847.42-43.48v-8.87h-1.18v-1.28h2.78v10.15H-847.42z"/>
		<path d="M-839.29-43.48v-1.26c0.85-0.03,1.54-0.3,2.06-0.8c0.52-0.51,0.78-1.2,0.78-2.09v-4.71h-6.26v-1.28h7.87v5.96
			c0,0.86-0.18,1.59-0.55,2.21c-0.37,0.62-0.88,1.1-1.55,1.44C-837.62-43.68-838.4-43.5-839.29-43.48z M-842.52-39.89v-7.39
			c0-0.58,0.05-1.03,0.15-1.34c0.1-0.31,0.2-0.57,0.3-0.79h1.31c-0.08,0.26-0.13,0.55-0.16,0.86c-0.03,0.32-0.05,0.71-0.05,1.17
			v7.49H-842.52z"/>
	</g>
</g>
<path class="st2" d="M-926.02-50.75c0.74-0.83,2.22-2.25,4.53-3.19c2.6-1.07,4.91-0.98,6.04-0.86"/>
<path class="st1" d="M-1049.27-36.32h-146.31c-1.81,0-3.28-1.47-3.28-3.28v-19.48c0-1.81,1.47-3.28,3.28-3.28h146.31
	c1.81,0,3.28,1.47,3.28,3.28v19.48C-1045.99-37.79-1047.46-36.32-1049.27-36.32z"/>
<g>
	<g>
		<path d="M-1164.67-43.94v-6.37c0-0.88-0.2-1.52-0.59-1.91c-0.4-0.39-1.03-0.59-1.91-0.59h-3.68v-1.28h3.76
			c1.33,0,2.33,0.32,3.01,0.96c0.68,0.64,1.02,1.6,1.02,2.87v6.33H-1164.67z M-1170.84-43.94v-3.46c0-0.59,0.05-1.04,0.15-1.35
			s0.2-0.57,0.3-0.79h1.31c-0.07,0.26-0.12,0.55-0.16,0.87c-0.03,0.32-0.05,0.71-0.05,1.18v3.57H-1170.84z"/>
		<path d="M-1159.59-43.77c-0.3,0-0.58-0.02-0.84-0.05c-0.26-0.03-0.53-0.08-0.8-0.14l0.04-1.25c0.37,0.07,0.79,0.11,1.26,0.11
			s0.82-0.13,1.06-0.4s0.36-0.69,0.36-1.25v-6.06h-1.99v-1.28h3.59v7.47c0,0.94-0.23,1.65-0.69,2.13
			C-1158.07-44.01-1158.73-43.77-1159.59-43.77z"/>
		<path d="M-1153.32-43.94v-8.87h-1.18v-1.28h2.78v10.15H-1153.32z"/>
		<path d="M-1149.03-43.94v-1.29h5.46l-6.07-8.86h1.8l3.08,4.66l3.24,4.68v0.81H-1149.03z M-1144.47-48.16l-0.99-1.28l2.57-4.65h1.8
			L-1144.47-48.16z"/>
		<path d="M-1135.54-43.94v-1.26c0.85-0.03,1.54-0.3,2.06-0.8c0.52-0.51,0.78-1.2,0.78-2.09v-4.71h-6.26v-1.28h7.87v5.96
			c0,0.86-0.18,1.59-0.55,2.21c-0.37,0.62-0.88,1.1-1.55,1.44C-1133.87-44.15-1134.65-43.97-1135.54-43.94z M-1138.77-40.36v-7.39
			c0-0.58,0.05-1.03,0.15-1.34c0.1-0.31,0.2-0.57,0.3-0.79h1.31c-0.08,0.26-0.13,0.55-0.16,0.86c-0.03,0.32-0.05,0.71-0.05,1.17
			v7.49H-1138.77z"/>
		<path d="M-1128.82-52.81v-4.37h1.59v3.08h5.52v1.28H-1128.82z M-1121.11-53.09l-3.72,9.14h-1.71l4.21-10.15h1.22V-53.09z"/>
		<path d="M-1108.63-43.94v-6.37c0-0.88-0.2-1.52-0.59-1.91s-1.03-0.59-1.91-0.59h-3.68v-1.28h3.76c1.33,0,2.33,0.32,3.01,0.96
			s1.02,1.6,1.02,2.87v6.33H-1108.63z M-1114.8-43.94v-3.46c0-0.59,0.05-1.04,0.15-1.35s0.2-0.57,0.3-0.79h1.31
			c-0.07,0.26-0.12,0.55-0.16,0.87s-0.05,0.71-0.05,1.18v3.57H-1114.8z"/>
		<path d="M-1103.56-43.77c-0.3,0-0.58-0.02-0.84-0.05c-0.26-0.03-0.53-0.08-0.8-0.14l0.04-1.25c0.37,0.07,0.79,0.11,1.26,0.11
			s0.82-0.13,1.06-0.4s0.36-0.69,0.36-1.25v-6.06h-1.99v-1.28h3.59v7.47c0,0.94-0.23,1.65-0.69,2.13
			C-1102.04-44.01-1102.7-43.77-1103.56-43.77z"/>
		<path d="M-1095.76-43.8c-0.43,0-0.89-0.04-1.37-0.12c-0.48-0.08-0.98-0.19-1.5-0.34l0.26-1.2c0.95,0.26,1.78,0.38,2.5,0.37
			c0.94-0.02,1.66-0.26,2.15-0.72s0.73-1.13,0.73-1.99v-5.02h-5.28v-1.28h6.88v5.96c0,0.98-0.18,1.8-0.53,2.44
			c-0.36,0.64-0.86,1.12-1.51,1.43C-1094.1-43.95-1094.87-43.8-1095.76-43.8z"/>
		<path d="M-1082.37-43.94v-6.37c0-0.88-0.2-1.52-0.59-1.91s-1.03-0.59-1.91-0.59h-3.68v-1.28h3.76c1.33,0,2.33,0.32,3.01,0.96
			s1.02,1.6,1.02,2.87v6.33H-1082.37z M-1088.54-43.94v-3.46c0-0.59,0.05-1.04,0.15-1.35s0.2-0.57,0.3-0.79h1.31
			c-0.07,0.26-0.12,0.55-0.16,0.87s-0.05,0.71-0.05,1.18v3.57H-1088.54z"/>
	</g>
</g>
<path class="st2" d="M-1193.17-54.74c0.74-0.83,2.22-2.25,4.53-3.19c2.6-1.07,4.91-0.98,6.04-0.86"/>
<path class="st3" d="M312.07,46.67c13.17-8.26,26.34-16.51,39.5-24.77c2.17-1.36,4.94-1.33,7.09,0.08
	c13.69,9.03,27.38,18.06,41.07,27.08c0.1,0.07,0.2,0.13,0.31,0.19c2.68,1.55,7.33,4.71,11.12,10.37c2.88,4.29,4.19,8.43,4.83,11.26
	c0.11,0.48,0.17,0.97,0.17,1.47v54.39c0,13.02-10.55,23.57-23.57,23.57l-73.85,0c-13.02,0-23.57-10.55-23.57-23.57l0-54.24
	c0-0.56,0.07-1.12,0.21-1.66c0.84-3.09,2.27-7.04,4.78-11.22c3.77-6.26,8.32-10.3,11.45-12.65
	C311.76,46.87,311.91,46.77,312.07,46.67z"/>
<line class="st4" x1="355.8" y1="16.83" x2="355.75" y2="12.83"/>
<g>
	<g>
	</g>
</g>
<path class="st3" d="M18.82,47.14c13.17-8.26,26.34-16.51,39.5-24.77c2.17-1.36,4.94-1.33,7.09,0.08
	c13.69,9.03,27.38,18.06,41.07,27.08c0.1,0.07,0.2,0.13,0.31,0.19c2.68,1.55,7.33,4.71,11.12,10.37c2.88,4.29,4.19,8.43,4.83,11.26
	c0.11,0.48,0.17,0.97,0.17,1.47v54.39c0,13.02-10.55,23.57-23.57,23.57H25.49c-13.02,0-23.57-10.55-23.57-23.57l0-54.24
	c0-0.56,0.07-1.12,0.21-1.66c0.84-3.09,2.27-7.04,4.78-11.22c3.77-6.26,8.32-10.3,11.45-12.65C18.51,47.34,18.66,47.24,18.82,47.14z
	"/>
<line class="st4" x1="62.41" y1="16.83" x2="62.36" y2="12.83"/>
<circle class="st5" cx="62.28" cy="5.83" r="3.5"/>
<g>
	<g>
	</g>
</g>
<circle class="st5" cx="355.66" cy="5.83" r="3.5"/>
<g>
	<g>
		<path d="M339.94,73.04v-7.22c0-1-0.22-1.72-0.67-2.16c-0.45-0.45-1.17-0.67-2.17-0.67h-4.17v-1.46h4.26c1.5,0,2.64,0.36,3.41,1.09
			s1.16,1.81,1.16,3.25v7.17H339.94z M332.95,73.04v-3.93c0-0.67,0.06-1.18,0.17-1.53s0.22-0.65,0.34-0.9h1.48
			c-0.08,0.29-0.14,0.62-0.18,0.98s-0.06,0.81-0.06,1.33v4.04H332.95z"/>
		<path d="M349.76,73.25c-0.96,0-1.8-0.22-2.53-0.66s-1.3-1.06-1.7-1.85s-0.62-1.72-0.63-2.77V66.8c0-0.51,0.07-1.01,0.21-1.5
			s0.33-0.93,0.58-1.33c0.25-0.39,0.53-0.69,0.84-0.9c0.02-0.01,0.04-0.03,0.06-0.04s0.05-0.03,0.07-0.03l-0.01-0.03
			c-0.25,0.03-0.56,0.09-0.94,0.19s-0.75,0.2-1.12,0.29l-0.35-1.37c0.51-0.15,1.06-0.28,1.67-0.4s1.22-0.2,1.83-0.26
			s1.19-0.09,1.72-0.09c1.07,0,2,0.21,2.76,0.63s1.36,1.02,1.77,1.81c0.41,0.78,0.62,1.73,0.62,2.84v1.38c0,1.05-0.2,1.98-0.61,2.77
			s-0.97,1.41-1.7,1.85S350.74,73.25,349.76,73.25z M349.76,71.72c0.61,0,1.15-0.16,1.61-0.47s0.82-0.75,1.07-1.31
			s0.39-1.21,0.39-1.96v-1.37c0-0.78-0.13-1.45-0.39-2.02s-0.62-1-1.1-1.3s-1.04-0.45-1.69-0.45c-0.59,0-1.1,0.15-1.53,0.46
			s-0.77,0.75-1.02,1.33s-0.38,1.26-0.4,2.07v1.28c0,0.75,0.13,1.4,0.38,1.96s0.61,1,1.07,1.31S349.16,71.72,349.76,71.72z"/>
		<path d="M358.63,67.95v-4.96h-2.11v-1.46h3.93v6.42H358.63z"/>
		<path d="M364.47,73.23c-0.34,0-0.66-0.02-0.96-0.06s-0.6-0.09-0.91-0.16l0.05-1.42c0.42,0.08,0.9,0.13,1.43,0.13
			s0.93-0.15,1.2-0.45s0.41-0.78,0.41-1.42v-6.87h-2.26v-1.46h4.07V70c0,1.06-0.26,1.87-0.79,2.41S365.44,73.23,364.47,73.23z"/>
		<path d="M373.31,73.2c-0.49,0-1-0.04-1.55-0.13s-1.11-0.22-1.7-0.39l0.29-1.36c1.07,0.29,2.02,0.43,2.83,0.42
			c1.07-0.02,1.88-0.29,2.43-0.82s0.83-1.28,0.83-2.26v-5.68h-5.99v-1.46h7.79v6.75c0,1.11-0.2,2.03-0.61,2.76s-0.97,1.27-1.71,1.63
			S374.32,73.2,373.31,73.2z"/>
		<path d="M327.54,85.53h9.21v1.46h-1.92v10.05h-1.82V86.99h-5.47V85.53z"/>
		<path d="M339.69,97.04V86.99h-1.34v-1.46h3.15v11.5H339.69z"/>
		<path d="M348.9,97.04v-1.43c0.96-0.03,1.74-0.34,2.33-0.91s0.88-1.36,0.88-2.37v-5.34h-7.1v-1.46h8.92v6.76
			c0,0.97-0.21,1.81-0.62,2.51s-1,1.25-1.76,1.63S349.91,97.01,348.9,97.04z M345.24,101.1v-8.38c0-0.66,0.06-1.16,0.17-1.51
			s0.22-0.65,0.34-0.9h1.48c-0.08,0.29-0.14,0.62-0.18,0.98s-0.05,0.8-0.05,1.33v8.49H345.24z"/>
		<path d="M358.35,91.95v-4.96h-2.11v-1.46h3.93v6.42H358.35z"/>
		<path d="M367.43,97.23c-0.55,0-1.16-0.06-1.82-0.17s-1.3-0.27-1.93-0.49l0.35-1.36c0.6,0.18,1.19,0.32,1.78,0.4
			s1.11,0.13,1.55,0.13c1.07-0.01,1.89-0.28,2.47-0.81s0.87-1.28,0.87-2.27v-5.68h-4.61c-0.21,0.36-0.38,0.81-0.5,1.37
			s-0.19,1.1-0.19,1.64v0.88c0.15,0.06,0.34,0.11,0.59,0.14s0.55,0.04,0.94,0.04v1.56c-0.54,0-1-0.02-1.38-0.06
			s-0.71-0.11-1.01-0.21s-0.6-0.23-0.9-0.39l-0.04-1.48c0-0.66,0.08-1.3,0.25-1.93s0.39-1.15,0.68-1.56h-1.4v-1.46h9.38v6.8
			c0,1.11-0.22,2.03-0.65,2.76s-1.04,1.27-1.8,1.62S368.42,97.24,367.43,97.23z"/>
		<path d="M375.09,86.99v-4.95h1.81v3.5h6.25v1.46H375.09z M383.83,86.68l-4.22,10.36h-1.94l4.78-11.5h1.39V86.68z"/>
		<path d="M334.98,109.53h9.21v1.46h-1.92v10.05h-1.82v-10.05h-5.47V109.53z"/>
		<path d="M348.15,107.29c0,0.39-0.07,0.8-0.2,1.24s-0.33,0.85-0.58,1.25s-0.56,0.75-0.93,1.04l-1.04-0.7
			c0.31-0.43,0.54-0.87,0.7-1.32s0.24-0.95,0.24-1.48v-1.27h1.81V107.29z M351.15,107.29c0,0.39-0.07,0.8-0.2,1.24
			s-0.33,0.85-0.58,1.25s-0.56,0.75-0.93,1.04l-1.04-0.7c0.31-0.43,0.54-0.87,0.7-1.32s0.24-0.95,0.24-1.48v-1.27h1.81V107.29z"/>
		<path d="M353.65,121.04l0.88-7.31c0.07-0.54,0.22-1.04,0.46-1.51s0.51-0.83,0.83-1.08c0.03-0.03,0.07-0.05,0.1-0.07
			s0.07-0.04,0.09-0.06l-0.02-0.03c-0.29,0.05-0.65,0.13-1.09,0.24s-0.84,0.24-1.22,0.37l-0.42-1.37c0.5-0.18,1.05-0.33,1.64-0.46
			s1.19-0.23,1.79-0.31s1.17-0.11,1.7-0.11c1.55,0,2.73,0.41,3.55,1.24s1.23,2.03,1.24,3.63v6.86h-4.74v-1.46h2.93v-5.61
			c0-1.03-0.23-1.81-0.7-2.34s-1.13-0.8-2.01-0.8c-0.63,0-1.16,0.24-1.58,0.73s-0.68,1.14-0.78,1.98l-0.87,7.49H353.65z"/>
		<path d="M370.31,121.04v-1.43c0.96-0.03,1.74-0.34,2.33-0.91s0.88-1.36,0.88-2.37v-5.34h-7.1v-1.46h8.92v6.76
			c0,0.97-0.21,1.81-0.62,2.51s-1,1.25-1.76,1.63S371.31,121.01,370.31,121.04z M366.64,125.1v-8.38c0-0.66,0.06-1.16,0.17-1.51
			s0.22-0.65,0.34-0.9h1.48c-0.08,0.29-0.14,0.62-0.18,0.98s-0.05,0.8-0.05,1.33v8.49H366.64z"/>
	</g>
</g>
<g>
	<g>
		<path d="M47.05,73.04v-7.22c0-1-0.22-1.72-0.67-2.16c-0.45-0.45-1.17-0.67-2.17-0.67h-4.17v-1.46h4.26c1.5,0,2.64,0.36,3.41,1.09
			s1.16,1.81,1.16,3.25v7.17H47.05z M40.06,73.04v-3.93c0-0.67,0.06-1.18,0.17-1.53s0.22-0.65,0.34-0.9h1.48
			c-0.08,0.29-0.14,0.62-0.18,0.98s-0.06,0.81-0.06,1.33v4.04H40.06z"/>
		<path d="M60.18,73.04l-8.34-11.5h2.03l8.33,11.5H60.18z M52.25,73.04v-4.17c0-1.07,0.2-1.94,0.6-2.6s1.02-1.14,1.86-1.45
			l0.71,0.94C54.47,66.19,54,67,54,68.21v4.82H52.25z M62.25,61.53l-3.96,6.94l-1.2-1.4l3.12-5.55H62.25z"/>
		<path d="M65.83,67.95v-4.96h-2.11v-1.46h3.93v6.42H65.83z"/>
		<path d="M70.49,73.04v-1.46h6.18L69.8,61.53h2.04l3.5,5.28l3.67,5.3v0.92H70.49z M75.66,68.26l-1.12-1.46l2.91-5.27h2.04
			L75.66,68.26z"/>
		<path d="M82.79,67.95v-4.96h-2.11v-1.46h3.93v6.42H82.79z"/>
		<path d="M37.9,85.53h9.21v1.46h-1.92v10.05h-1.82V86.99H37.9V85.53z"/>
		<path d="M51.06,83.29c0,0.39-0.07,0.8-0.2,1.24s-0.33,0.85-0.58,1.25s-0.56,0.75-0.93,1.04l-1.04-0.7
			c0.31-0.43,0.54-0.87,0.7-1.32s0.24-0.95,0.24-1.48v-1.27h1.81V83.29z M54.07,83.29c0,0.39-0.07,0.8-0.2,1.24
			s-0.33,0.85-0.58,1.25s-0.56,0.75-0.93,1.04l-1.04-0.7c0.31-0.43,0.54-0.87,0.7-1.32s0.24-0.95,0.24-1.48v-1.27h1.81V83.29z"/>
		<path d="M63.36,97.04v-7.22c0-1-0.22-1.72-0.67-2.16s-1.17-0.67-2.17-0.67h-4.17v-1.46h4.26c1.5,0,2.64,0.36,3.41,1.09
			s1.16,1.81,1.16,3.25v7.17H63.36z M56.36,97.04v-3.93c0-0.67,0.06-1.18,0.17-1.53s0.22-0.65,0.34-0.9h1.48
			c-0.08,0.29-0.14,0.62-0.18,0.98s-0.06,0.81-0.06,1.33v4.04H56.36z"/>
		<path d="M67.25,97.04v-1.46h6.25l1.81-0.07l1.4,0.15v1.39H67.25z M73.5,96.63v-6.81c0-1-0.22-1.72-0.67-2.16s-1.17-0.67-2.17-0.67
			h-2.78v-1.46h2.88c1.5,0,2.63,0.36,3.4,1.09s1.15,1.81,1.15,3.25v6.76H73.5z"/>
		<path d="M78,86.99v-4.95h1.81v3.5h6.25v1.46H78z M86.74,86.68l-4.22,10.36h-1.94l4.78-11.5h1.39V86.68z"/>
		<path d="M63.9,121.04h-1.83v-12.06l-3.63,1.34v-1.63l5.18-1.94h0.28V121.04z"/>
	</g>
</g>
<path class="st6" d="M417.23,182.3H287.1c-1.81,0-3.28-1.47-3.28-3.28v-16.73c0-1.81,1.47-3.28,3.28-3.28h130.13
	c1.81,0,3.28,1.47,3.28,3.28v16.73C420.51,180.83,419.04,182.3,417.23,182.3z"/>
<g>
	<g>
		<path d="M322.31,175.13v-9.08h7.24v9.08H322.31z M323.73,173.98h4.39v-6.77h-4.39V173.98z"/>
		<path d="M333.03,171.12v-3.92h-1.66v-1.15h3.1v5.06H333.03z"/>
		<path d="M338.49,166.06v7.47c0.49,0.21,1,0.37,1.55,0.49c0.54,0.12,1.07,0.18,1.56,0.18c0.72,0,1.38-0.1,1.96-0.31
			c0.58-0.21,1.04-0.53,1.38-0.96c0.34-0.43,0.51-0.97,0.51-1.63v-5.24h1.39v5.37c0,0.66-0.14,1.24-0.41,1.73s-0.65,0.9-1.12,1.23
			c-0.48,0.33-1.03,0.57-1.65,0.73c-0.62,0.16-1.29,0.24-1.99,0.24c-0.74,0-1.51-0.09-2.3-0.27s-1.55-0.44-2.27-0.78v-8.25H338.49z
			 M340.67,172.63c0.2-0.21,0.34-0.48,0.44-0.84c0.09-0.35,0.14-0.76,0.14-1.22v-4.52h1.39v4.26c0,0.52-0.06,0.97-0.19,1.36
			c-0.13,0.39-0.33,0.72-0.6,0.99L340.67,172.63z"/>
		<path d="M348.7,166.06h7.27v1.15h-1.52v7.93h-1.43v-7.93h-4.32V166.06z"/>
		<path d="M358.29,175.13v-7.93h-1.06v-1.15h2.49v9.08H358.29z"/>
		<path d="M362.51,175.13l0.01-9.08h3.41c1.2,0,2.1,0.29,2.69,0.86c0.59,0.57,0.89,1.45,0.89,2.62v5.6h-1.43v-5.69
			c0-0.79-0.17-1.36-0.51-1.71c-0.34-0.35-0.88-0.53-1.63-0.53h-2l-0.01,7.93H362.51z"/>
		<path d="M382.62,172.1c0,0.68-0.16,1.26-0.47,1.74c-0.32,0.48-0.74,0.84-1.28,1.08c-0.54,0.25-1.14,0.37-1.82,0.37
			s-1.28-0.12-1.82-0.37s-0.97-0.61-1.28-1.08s-0.47-1.05-0.47-1.74c0-0.59,0.15-1.12,0.45-1.58c0.3-0.46,0.72-0.83,1.26-1.09
			c0.54-0.26,1.15-0.4,1.84-0.4c0.69,0,1.3,0.13,1.84,0.4c0.54,0.26,0.96,0.63,1.28,1.09C382.46,170.98,382.62,171.51,382.62,172.1z
			 M382.35,166.83c0,0.54-0.14,1.04-0.43,1.47c-0.29,0.44-0.68,0.78-1.18,1.03c-0.5,0.25-1.06,0.38-1.7,0.38
			c-0.64,0-1.21-0.13-1.71-0.38c-0.5-0.25-0.89-0.6-1.17-1.03c-0.28-0.44-0.42-0.93-0.42-1.47c0-0.65,0.14-1.21,0.43-1.66
			c0.29-0.46,0.68-0.81,1.18-1.05c0.5-0.24,1.07-0.36,1.71-0.36s1.21,0.12,1.7,0.36c0.5,0.24,0.89,0.59,1.18,1.05
			C382.21,165.63,382.35,166.18,382.35,166.83z M381.17,172.07c0-0.42-0.09-0.78-0.27-1.11c-0.18-0.32-0.43-0.57-0.75-0.75
			c-0.32-0.18-0.7-0.27-1.12-0.27c-0.43,0-0.8,0.09-1.12,0.27c-0.32,0.18-0.56,0.43-0.73,0.75c-0.17,0.32-0.26,0.69-0.26,1.11
			c0,0.43,0.09,0.8,0.26,1.11c0.17,0.31,0.42,0.54,0.74,0.71c0.32,0.16,0.7,0.25,1.13,0.25c0.44,0,0.82-0.08,1.14-0.25
			c0.32-0.16,0.56-0.4,0.73-0.71C381.09,172.87,381.17,172.5,381.17,172.07z M380.91,166.86c0-0.38-0.08-0.71-0.24-1
			c-0.16-0.29-0.38-0.52-0.66-0.69c-0.28-0.17-0.6-0.25-0.97-0.25c-0.38,0-0.7,0.08-0.98,0.24s-0.5,0.38-0.66,0.67
			c-0.16,0.29-0.23,0.63-0.23,1.03c0,0.39,0.08,0.72,0.23,1.01c0.16,0.29,0.38,0.51,0.66,0.67s0.61,0.24,0.98,0.24
			s0.7-0.08,0.98-0.24s0.5-0.38,0.65-0.67C380.83,167.58,380.91,167.24,380.91,166.86z"/>
	</g>
</g>
<path class="st7" d="M288.9,165.82c0.67-0.74,1.99-2.01,4.05-2.86c2.33-0.96,4.39-0.88,5.4-0.77"/>
<line class="st8" x1="-1038.78" y1="-49.34" x2="-1006.69" y2="-49.34"/>
<line class="st8" x1="-971.73" y1="-49.36" x2="-939.64" y2="-49.36"/>
<line class="st8" x1="-1126.69" y1="-28.55" x2="-1126.69" y2="-16.55"/>
<line class="st8" x1="-855.27" y1="-28.21" x2="-855.27" y2="-16.21"/>
</svg>
