<?xml version="1.0" encoding="utf-8"?>
<!-- Generator: Adobe Illustrator 26.0.3, SVG Export Plug-In . SVG Version: 6.00 Build 0)  -->
<svg version="1.1" id="Layer_1" xmlns="http://www.w3.org/2000/svg" xmlns:xlink="http://www.w3.org/1999/xlink" x="0px" y="0px"
	 viewBox="0 0 43.81 7.88" style="enable-background:new 0 0 43.81 7.88;" xml:space="preserve">
<style type="text/css">
	.st0{fill:#8BC8EA;stroke:#000000;stroke-width:0.25;stroke-miterlimit:10;}
	.st1{fill:none;stroke:#A6D8ED;stroke-width:0.5;stroke-miterlimit:10;}
</style>
<path class="st0" d="M40.28,7.63H3.53c-1.81,0-3.28-1.47-3.28-3.28V3.53c0-1.81,1.47-3.28,3.28-3.28h36.74
	c1.81,0,3.28,1.47,3.28,3.28v0.81C43.56,6.16,42.09,7.63,40.28,7.63z"/>
<g>
	<g>
		<path d="M12.16,5.54V2.66h2.29v2.88H12.16z M12.61,5.17h1.39V3.02h-1.39V5.17z"/>
		<path d="M15.56,4.26V3.02h-0.53V2.66h0.98v1.6H15.56z"/>
		<path d="M17.29,2.66v2.37c0.16,0.06,0.32,0.12,0.49,0.15s0.34,0.06,0.5,0.06c0.23,0,0.44-0.03,0.62-0.1
			c0.18-0.07,0.33-0.17,0.44-0.3s0.16-0.31,0.16-0.52V2.66h0.44v1.7c0,0.21-0.04,0.39-0.13,0.55S19.6,5.19,19.45,5.3
			s-0.33,0.18-0.52,0.23c-0.2,0.05-0.41,0.08-0.63,0.08c-0.23,0-0.48-0.03-0.73-0.08c-0.25-0.06-0.49-0.14-0.72-0.25V2.66H17.29z
			 M17.98,4.74c0.06-0.07,0.11-0.15,0.14-0.27s0.05-0.24,0.05-0.39V2.66h0.44v1.35c0,0.16-0.02,0.31-0.06,0.43
			c-0.04,0.12-0.1,0.23-0.19,0.31L17.98,4.74z"/>
		<path d="M20.53,2.66h2.3v0.36h-0.48v2.51h-0.45V3.02h-1.37V2.66z"/>
		<path d="M23.56,5.54V3.02h-0.33V2.66h0.79v2.88H23.56z"/>
		<path d="M24.9,5.54l0-2.88h1.08c0.38,0,0.67,0.09,0.85,0.27s0.28,0.46,0.28,0.83v1.78h-0.45v-1.8c0-0.25-0.05-0.43-0.16-0.54
			s-0.28-0.17-0.52-0.17h-0.63l0,2.51H24.9z"/>
		<path d="M31.43,4.71h-2.57V4.44l1.59-2.46h0.37l-0.4,0.71l-1.05,1.65h2.05V4.71z M30.94,5.54h-0.46V1.98h0.46V5.54z"/>
	</g>
</g>
<path class="st1" d="M1.86,2.41c0.21-0.23,0.63-0.64,1.28-0.9c0.74-0.3,1.39-0.28,1.71-0.24"/>
</svg>
