<?xml version="1.0" encoding="utf-8"?>
<!-- Generator: Adobe Illustrator 26.0.3, SVG Export Plug-In . SVG Version: 6.00 Build 0)  -->
<svg version="1.1" id="Layer_1" xmlns="http://www.w3.org/2000/svg" xmlns:xlink="http://www.w3.org/1999/xlink" x="0px" y="0px"
	 viewBox="0 0 43.81 7.88" style="enable-background:new 0 0 43.81 7.88;" xml:space="preserve">
<style type="text/css">
	.st0{fill:#E8B158;stroke:#000000;stroke-width:0.25;stroke-miterlimit:10;}
	.st1{fill:#EAB871;stroke:#EAB871;stroke-width:0.5;stroke-miterlimit:10;}
</style>
<path class="st0" d="M40.28,7.63H3.53c-1.81,0-3.28-1.47-3.28-3.28V3.53c0-1.81,1.47-3.28,3.28-3.28h36.74
	c1.81,0,3.28,1.47,3.28,3.28v0.81C43.56,6.16,42.09,7.63,40.28,7.63z"/>
<g>
	<g>
		<path d="M12.45,5.36V2.48h2.29v2.88H12.45z M12.9,4.99h1.39V2.85H12.9V4.99z"/>
		<path d="M15.84,4.09V2.85h-0.53V2.48h0.98v1.6H15.84z"/>
		<path d="M17.57,2.48v2.37c0.16,0.06,0.32,0.12,0.49,0.15s0.34,0.06,0.49,0.06c0.23,0,0.44-0.03,0.62-0.1
			c0.18-0.07,0.33-0.17,0.44-0.3s0.16-0.31,0.16-0.52V2.48h0.44v1.7c0,0.21-0.04,0.39-0.13,0.55s-0.21,0.28-0.36,0.39
			s-0.33,0.18-0.52,0.23c-0.2,0.05-0.41,0.08-0.63,0.08c-0.23,0-0.48-0.03-0.73-0.08C17.6,5.29,17.36,5.2,17.13,5.1V2.48H17.57z
			 M18.26,4.57c0.06-0.07,0.11-0.15,0.14-0.27s0.05-0.24,0.05-0.39V2.48h0.44v1.35c0,0.16-0.02,0.31-0.06,0.43
			c-0.04,0.12-0.1,0.23-0.19,0.31L18.26,4.57z"/>
		<path d="M20.81,2.48h2.3v0.36h-0.48v2.51h-0.45V2.85h-1.37V2.48z"/>
		<path d="M23.84,5.36V2.85h-0.33V2.48h0.79v2.88H23.84z"/>
		<path d="M25.18,5.36l0-2.88h1.08c0.38,0,0.67,0.09,0.85,0.27s0.28,0.46,0.28,0.83v1.78h-0.45v-1.8c0-0.25-0.05-0.43-0.16-0.54
			s-0.28-0.17-0.52-0.17h-0.63l0,2.51H25.18z"/>
		<path d="M29.52,3.57L29.7,1.8h1.82v0.41h-1.44l-0.1,0.97c0.06-0.04,0.14-0.07,0.25-0.1c0.1-0.03,0.21-0.05,0.34-0.05
			c0.22,0,0.41,0.05,0.56,0.15s0.28,0.24,0.37,0.41c0.08,0.18,0.13,0.39,0.13,0.63c0,0.23-0.04,0.43-0.12,0.61
			c-0.08,0.18-0.21,0.32-0.37,0.42c-0.17,0.1-0.38,0.15-0.63,0.15c-0.14,0-0.28-0.02-0.41-0.06s-0.24-0.1-0.34-0.18
			c-0.1-0.08-0.18-0.18-0.25-0.31s-0.1-0.27-0.12-0.43h0.43c0.03,0.2,0.1,0.36,0.22,0.46c0.12,0.1,0.27,0.16,0.46,0.16
			c0.14,0,0.26-0.03,0.36-0.1c0.1-0.07,0.18-0.16,0.23-0.28c0.05-0.12,0.08-0.26,0.08-0.43c0-0.15-0.03-0.28-0.08-0.4
			c-0.05-0.12-0.13-0.21-0.24-0.28c-0.11-0.07-0.23-0.1-0.39-0.1c-0.15,0-0.26,0.02-0.34,0.06c-0.08,0.04-0.16,0.1-0.24,0.17
			L29.52,3.57z"/>
	</g>
</g>
<path class="st1" d="M1.86,2.41c0.21-0.23,0.63-0.64,1.28-0.9c0.74-0.3,1.39-0.28,1.71-0.24"/>
</svg>
